# MagicaVoxel @ Ephtracy

# group
o 

# material
mtllib Clown_Fish.mtl
usemtl palette

# normals
vn -1 0 0
vn 1 0 0
vn 0 0 1
vn 0 0 -1
vn 0 -1 0
vn 0 1 0

# texcoords
vt 0.0644531 0.5
vt 0.873047 0.5
vt 0.958984 0.5

# verts
v -1.1 1.1 0.0999999
v -1.1 1.1 -0.1
v -1.1 1.4 0.0999999
v -1.1 1.4 -0.1
v -1 0.9 0.0999999
v -1 0.9 -0.1
v -1 1.1 0.0999999
v -1 1.1 -0.1
v -1 1.4 0.0999999
v -1 1.4 -0.1
v -1 1.5 0.0999999
v -1 1.5 -0.1
v -0.9 0.8 0.0999999
v -0.9 0.8 -0.1
v -0.9 0.9 0.0999999
v -0.9 0.9 -0.1
v -0.8 1.5 0.0999999
v -0.8 1.5 -0.1
v -0.8 1.6 0.0999999
v -0.8 1.6 -0.1
v -0.7 0.7 0.0999999
v -0.7 0.7 -0.1
v -0.7 0.8 0.0999999
v -0.7 0.8 -0.1
v -0.6 0.6 0.0999999
v -0.6 0.6 -0.1
v -0.6 0.7 0.0999999
v -0.6 0.7 -0.1
v -0.5 0.5 0.0999999
v -0.5 0.5 -0.1
v -0.5 0.6 0.0999999
v -0.5 0.6 -0.1
v -0.5 1.6 0.0999999
v -0.5 1.6 -0.1
v -0.5 1.7 0.0999999
v -0.5 1.7 -0.1
v -0.4 1.7 0.0999999
v -0.4 1.7 -0.1
v -0.4 1.8 0.0999999
v -0.4 1.8 -0.1
v -0.3 0.9 0.2
v -0.3 0.9 0.0999999
v -0.3 0.9 -0.1
v -0.3 0.9 -0.2
v -0.3 1 0.2
v -0.3 1 0.0999999
v -0.3 1 -0.1
v -0.3 1 -0.2
v -0.3 1.1 0.0999999
v -0.3 1.1 -0.1
v -0.3 1.3 0.2
v -0.3 1.3 0.0999999
v -0.3 1.3 -0.1
v -0.3 1.3 -0.2
v -0.2 0.8 0.2
v -0.2 0.8 0.0999999
v -0.2 0.8 -0.1
v -0.2 0.8 -0.2
v -0.2 0.9 0.2
v -0.2 0.9 0.0999999
v -0.2 0.9 -0.1
v -0.2 0.9 -0.2
v -0.2 1.3 0.2
v -0.2 1.3 0.0999999
v -0.2 1.3 -0.1
v -0.2 1.3 -0.2
v -0.2 1.4 0.2
v -0.2 1.4 0.0999999
v -0.2 1.4 -0.1
v -0.2 1.4 -0.2
v -0.2 1.8 0.0999999
v -0.2 1.8 -0.1
v -0.2 1.9 0.0999999
v -0.2 1.9 -0.1
v -0.1 0.4 0.0999999
v -0.1 0.4 -0.1
v -0.1 0.5 0.0999999
v -0.1 0.5 -0.1
v -0.1 1.9 0.0999999
v -0.1 1.9 -0.1
v -0.1 2 0.0999999
v -0.1 2 -0.1
v 0 0.3 0.0999999
v 0 0.3 -0.1
v 0 0.4 0.0999999
v 0 0.4 -0.1
v 0 1.4 0.2
v 0 1.4 0.0999999
v 0 1.4 -0.1
v 0 1.4 -0.2
v 0 1.5 0.2
v 0 1.5 0.0999999
v 0 1.5 -0.1
v 0 1.5 -0.2
v 0 2 0.0999999
v 0 2 -0.1
v 0 2.1 0.0999999
v 0 2.1 -0.1
v 0.2 0.2 0.0999999
v 0.2 0.2 -0.1
v 0.2 0.3 0.0999999
v 0.2 0.3 -0.1
v 1.1 1.3 0.0999999
v 1.1 1.3 -0.1
v 1.1 1.4 0.0999999
v 1.1 1.4 -0.1
v 1.2 0.7 0.0999999
v 1.2 0.7 -0.1
v 1.2 0.8 0.0999999
v 1.2 0.8 -0.1
v 1.2 1.4 0.0999999
v 1.2 1.4 -0.1
v 1.2 1.5 0.0999999
v 1.2 1.5 -0.1
v 1.2 1.6 0.0999999
v 1.2 1.6 -0.1
v 1.3 0.6 0.0999999
v 1.3 0.6 -0.1
v 1.3 0.7 0.0999999
v 1.3 0.7 -0.1
v 1.3 1.6 0.0999999
v 1.3 1.6 -0.1
v 1.3 1.7 0.0999999
v 1.3 1.7 -0.1
v 0 0.8 0.2
v 0 0.8 0.0999999
v 0 0.8 -0.1
v 0 0.8 -0.2
v 0 0.9 0.2
v 0 0.9 0.0999999
v 0 0.9 -0.1
v 0 0.9 -0.2
v 0.1 0.9 0.2
v 0.1 0.9 0.0999999
v 0.1 0.9 -0.1
v 0.1 0.9 -0.2
v 0.1 1 0.2
v 0.1 1 0.0999999
v 0.1 1 -0.1
v 0.1 1 -0.2
v 0.1 1.4 0.2
v 0.1 1.4 0.0999999
v 0.1 1.4 -0.1
v 0.1 1.4 -0.2
v 0.1 1.5 0.2
v 0.1 1.5 0.0999999
v 0.1 1.5 -0.1
v 0.1 1.5 -0.2
v 0.2 1 0.2
v 0.2 1 0.0999999
v 0.2 1 -0.1
v 0.2 1 -0.2
v 0.2 1.4 0.2
v 0.2 1.4 0.0999999
v 0.2 1.4 -0.1
v 0.2 1.4 -0.2
v 0.3 2 0.0999999
v 0.3 2 -0.1
v 0.3 2.1 0.0999999
v 0.3 2.1 -0.1
v 0.4 0.2 0.0999999
v 0.4 0.2 -0.1
v 0.4 0.3 0.0999999
v 0.4 0.3 -0.1
v 0.4 1.8 0.0999999
v 0.4 1.8 -0.1
v 0.4 2 0.0999999
v 0.4 2 -0.1
v 0.5 0.3 0.0999999
v 0.5 0.3 -0.1
v 0.5 0.4 0.0999999
v 0.5 0.4 -0.1
v 0.6 0.4 0.0999999
v 0.6 0.4 -0.1
v 0.6 0.5 0.0999999
v 0.6 0.5 -0.1
v 0.6 1.7 0.0999999
v 0.6 1.7 -0.1
v 0.6 1.8 0.0999999
v 0.6 1.8 -0.1
v 0.7 1.6 0.0999999
v 0.7 1.6 -0.1
v 0.7 1.7 0.0999999
v 0.7 1.7 -0.1
v 0.8 0.5 0.0999999
v 0.8 0.5 -0.1
v 0.8 0.6 0.0999999
v 0.8 0.6 -0.1
v 0.8 1.5 0.0999999
v 0.8 1.5 -0.1
v 0.8 1.6 0.0999999
v 0.8 1.6 -0.1
v 0.9 0.6 0.0999999
v 0.9 0.6 -0.1
v 0.9 0.7 0.0999999
v 0.9 0.7 -0.1
v 0.9 1.4 0.0999999
v 0.9 1.4 -0.1
v 0.9 1.5 0.0999999
v 0.9 1.5 -0.1
v 1 0.7 0.0999999
v 1 0.7 -0.1
v 1 0.8 0.0999999
v 1 0.8 -0.1
v 1 1.3 0.0999999
v 1 1.3 -0.1
v 1 1.4 0.0999999
v 1 1.4 -0.1
v 1.5 0.6 0.0999999
v 1.5 0.6 -0.1
v 1.5 0.7 0.0999999
v 1.5 0.7 -0.1
v 1.5 1.6 0.0999999
v 1.5 1.6 -0.1
v 1.5 1.7 0.0999999
v 1.5 1.7 -0.1
v 1.6 0.7 0.0999999
v 1.6 0.7 -0.1
v 1.6 1.6 0.0999999
v 1.6 1.6 -0.1
v -0.3 0.9 0.2
v -0.3 1 0.2
v -0.3 1.3 0.2
v -0.2 0.8 0.2
v -0.2 0.9 0.2
v -0.2 1 0.2
v -0.2 1.3 0.2
v -0.2 1.4 0.2
v 0 0.8 0.2
v 0 0.9 0.2
v 0 1 0.2
v 0 1.4 0.2
v 0 1.5 0.2
v 0.1 0.9 0.2
v 0.1 1 0.2
v 0.1 1.4 0.2
v 0.1 1.5 0.2
v 0.2 1 0.2
v 0.2 1.4 0.2
v -1.1 1.1 0.0999999
v -1.1 1.4 0.0999999
v -1 0.9 0.0999999
v -1 1.1 0.0999999
v -1 1.4 0.0999999
v -1 1.5 0.0999999
v -0.9 0.8 0.0999999
v -0.9 0.9 0.0999999
v -0.8 1.3 0.0999999
v -0.8 1.4 0.0999999
v -0.8 1.5 0.0999999
v -0.8 1.6 0.0999999
v -0.7 0.7 0.0999999
v -0.7 0.8 0.0999999
v -0.7 0.9 0.0999999
v -0.7 1.3 0.0999999
v -0.7 1.4 0.0999999
v -0.7 1.5 0.0999999
v -0.7 1.6 0.0999999
v -0.6 0.6 0.0999999
v -0.6 0.7 0.0999999
v -0.6 0.8 0.0999999
v -0.6 0.9 0.0999999
v -0.6 1 0.0999999
v -0.6 1.4 0.0999999
v -0.6 1.5 0.0999999
v -0.5 0.5 0.0999999
v -0.5 0.6 0.0999999
v -0.5 0.8 0.0999999
v -0.5 0.9 0.0999999
v -0.5 1 0.0999999
v -0.5 1.2 0.0999999
v -0.5 1.3 0.0999999
v -0.5 1.4 0.0999999
v -0.5 1.5 0.0999999
v -0.5 1.6 0.0999999
v -0.5 1.7 0.0999999
v -0.4 0.9 0.0999999
v -0.4 1.1 0.0999999
v -0.4 1.2 0.0999999
v -0.4 1.3 0.0999999
v -0.4 1.4 0.0999999
v -0.4 1.5 0.0999999
v -0.4 1.7 0.0999999
v -0.4 1.8 0.0999999
v -0.3 0.5 0.0999999
v -0.3 0.6 0.0999999
v -0.3 0.9 0.0999999
v -0.3 1 0.0999999
v -0.3 1.1 0.0999999
v -0.3 1.3 0.0999999
v -0.3 1.4 0.0999999
v -0.2 0.6 0.0999999
v -0.2 0.7 0.0999999
v -0.2 0.8 0.0999999
v -0.2 0.9 0.0999999
v -0.2 1.3 0.0999999
v -0.2 1.4 0.0999999
v -0.2 1.7 0.0999999
v -0.2 1.8 0.0999999
v -0.2 1.9 0.0999999
v -0.1 0.4 0.0999999
v -0.1 0.5 0.0999999
v -0.1 0.7 0.0999999
v -0.1 0.8 0.0999999
v -0.1 1.6 0.0999999
v -0.1 1.7 0.0999999
v -0.1 1.8 0.0999999
v -0.1 1.9 0.0999999
v -0.1 2 0.0999999
v 0 0.3 0.0999999
v 0 0.4 0.0999999
v 0 0.5 0.0999999
v 0 0.6 0.0999999
v 0 0.8 0.0999999
v 0 0.9 0.0999999
v 0 1.4 0.0999999
v 0 1.5 0.0999999
v 0 1.9 0.0999999
v 0 2 0.0999999
v 0 2.1 0.0999999
v 0.1 0.6 0.0999999
v 0.1 0.7 0.0999999
v 0.1 0.9 0.0999999
v 0.1 1 0.0999999
v 0.1 1.4 0.0999999
v 0.1 1.5 0.0999999
v 0.1 1.6 0.0999999
v 0.1 1.7 0.0999999
v 0.1 1.8 0.0999999
v 0.2 0.2 0.0999999
v 0.2 0.3 0.0999999
v 0.2 0.4 0.0999999
v 0.2 0.7 0.0999999
v 0.2 0.8 0.0999999
v 0.2 1 0.0999999
v 0.2 1.4 0.0999999
v 0.2 1.6 0.0999999
v 0.2 1.7 0.0999999
v 0.3 0.8 0.0999999
v 0.3 0.9 0.0999999
v 0.3 1.5 0.0999999
v 0.3 1.6 0.0999999
v 0.3 1.8 0.0999999
v 0.3 2 0.0999999
v 0.3 2.1 0.0999999
v 0.4 0.2 0.0999999
v 0.4 0.3 0.0999999
v 0.4 0.4 0.0999999
v 0.4 0.9 0.0999999
v 0.4 1.5 0.0999999
v 0.4 1.8 0.0999999
v 0.4 2 0.0999999
v 0.5 0.3 0.0999999
v 0.5 0.4 0.0999999
v 0.5 0.5 0.0999999
v 0.5 0.7 0.0999999
v 0.6 0.4 0.0999999
v 0.6 0.5 0.0999999
v 0.6 0.7 0.0999999
v 0.6 0.8 0.0999999
v 0.6 1.5 0.0999999
v 0.6 1.7 0.0999999
v 0.6 1.8 0.0999999
v 0.7 0.5 0.0999999
v 0.7 0.7 0.0999999
v 0.7 0.8 0.0999999
v 0.7 1.1 0.0999999
v 0.7 1.3 0.0999999
v 0.7 1.5 0.0999999
v 0.7 1.6 0.0999999
v 0.7 1.7 0.0999999
v 0.8 0.5 0.0999999
v 0.8 0.6 0.0999999
v 0.8 0.7 0.0999999
v 0.8 1 0.0999999
v 0.8 1.1 0.0999999
v 0.8 1.3 0.0999999
v 0.8 1.5 0.0999999
v 0.8 1.6 0.0999999
v 0.9 0.6 0.0999999
v 0.9 0.7 0.0999999
v 0.9 1 0.0999999
v 0.9 1.4 0.0999999
v 0.9 1.5 0.0999999
v 1 0.7 0.0999999
v 1 0.8 0.0999999
v 1 1.3 0.0999999
v 1 1.4 0.0999999
v 1.1 1.3 0.0999999
v 1.1 1.4 0.0999999
v 1.2 0.7 0.0999999
v 1.2 0.8 0.0999999
v 1.2 1.4 0.0999999
v 1.2 1.5 0.0999999
v 1.2 1.6 0.0999999
v 1.3 0.6 0.0999999
v 1.3 0.7 0.0999999
v 1.3 1.6 0.0999999
v 1.3 1.7 0.0999999
v 1.4 0.8 0.0999999
v 1.4 1.5 0.0999999
v 1.5 0.6 0.0999999
v 1.5 0.7 0.0999999
v 1.5 1.6 0.0999999
v 1.5 1.7 0.0999999
v 1.6 0.7 0.0999999
v 1.6 1.6 0.0999999
v -1.1 1.1 -0.1
v -1.1 1.4 -0.1
v -1 0.9 -0.1
v -1 1.1 -0.1
v -1 1.4 -0.1
v -1 1.5 -0.1
v -0.9 0.8 -0.1
v -0.9 0.9 -0.1
v -0.8 1.3 -0.1
v -0.8 1.4 -0.1
v -0.8 1.5 -0.1
v -0.8 1.6 -0.1
v -0.7 0.7 -0.1
v -0.7 0.8 -0.1
v -0.7 0.9 -0.1
v -0.7 1.3 -0.1
v -0.7 1.4 -0.1
v -0.7 1.5 -0.1
v -0.7 1.6 -0.1
v -0.6 0.6 -0.1
v -0.6 0.7 -0.1
v -0.6 0.8 -0.1
v -0.6 0.9 -0.1
v -0.6 1 -0.1
v -0.6 1.4 -0.1
v -0.6 1.5 -0.1
v -0.5 0.5 -0.1
v -0.5 0.6 -0.1
v -0.5 0.8 -0.1
v -0.5 0.9 -0.1
v -0.5 1 -0.1
v -0.5 1.2 -0.1
v -0.5 1.3 -0.1
v -0.5 1.4 -0.1
v -0.5 1.5 -0.1
v -0.5 1.6 -0.1
v -0.5 1.7 -0.1
v -0.4 0.9 -0.1
v -0.4 1.1 -0.1
v -0.4 1.2 -0.1
v -0.4 1.3 -0.1
v -0.4 1.4 -0.1
v -0.4 1.5 -0.1
v -0.4 1.7 -0.1
v -0.4 1.8 -0.1
v -0.3 0.5 -0.1
v -0.3 0.6 -0.1
v -0.3 0.9 -0.1
v -0.3 1 -0.1
v -0.3 1.1 -0.1
v -0.3 1.3 -0.1
v -0.3 1.4 -0.1
v -0.2 0.6 -0.1
v -0.2 0.7 -0.1
v -0.2 0.8 -0.1
v -0.2 0.9 -0.1
v -0.2 1.3 -0.1
v -0.2 1.4 -0.1
v -0.2 1.7 -0.1
v -0.2 1.8 -0.1
v -0.2 1.9 -0.1
v -0.1 0.4 -0.1
v -0.1 0.5 -0.1
v -0.1 0.7 -0.1
v -0.1 0.8 -0.1
v -0.1 1.6 -0.1
v -0.1 1.7 -0.1
v -0.1 1.8 -0.1
v -0.1 1.9 -0.1
v -0.1 2 -0.1
v 0 0.3 -0.1
v 0 0.4 -0.1
v 0 0.5 -0.1
v 0 0.6 -0.1
v 0 0.8 -0.1
v 0 0.9 -0.1
v 0 1.4 -0.1
v 0 1.5 -0.1
v 0 1.9 -0.1
v 0 2 -0.1
v 0 2.1 -0.1
v 0.1 0.6 -0.1
v 0.1 0.7 -0.1
v 0.1 0.9 -0.1
v 0.1 1 -0.1
v 0.1 1.4 -0.1
v 0.1 1.5 -0.1
v 0.1 1.6 -0.1
v 0.1 1.7 -0.1
v 0.1 1.8 -0.1
v 0.2 0.2 -0.1
v 0.2 0.3 -0.1
v 0.2 0.4 -0.1
v 0.2 0.7 -0.1
v 0.2 0.8 -0.1
v 0.2 1 -0.1
v 0.2 1.4 -0.1
v 0.2 1.6 -0.1
v 0.2 1.7 -0.1
v 0.3 0.8 -0.1
v 0.3 0.9 -0.1
v 0.3 1.5 -0.1
v 0.3 1.6 -0.1
v 0.3 1.8 -0.1
v 0.3 2 -0.1
v 0.3 2.1 -0.1
v 0.4 0.2 -0.1
v 0.4 0.3 -0.1
v 0.4 0.4 -0.1
v 0.4 0.9 -0.1
v 0.4 1.5 -0.1
v 0.4 1.8 -0.1
v 0.4 2 -0.1
v 0.5 0.3 -0.1
v 0.5 0.4 -0.1
v 0.5 0.5 -0.1
v 0.5 0.7 -0.1
v 0.6 0.4 -0.1
v 0.6 0.5 -0.1
v 0.6 0.7 -0.1
v 0.6 0.8 -0.1
v 0.6 1.5 -0.1
v 0.6 1.7 -0.1
v 0.6 1.8 -0.1
v 0.7 0.5 -0.1
v 0.7 0.7 -0.1
v 0.7 0.8 -0.1
v 0.7 1.1 -0.1
v 0.7 1.3 -0.1
v 0.7 1.5 -0.1
v 0.7 1.6 -0.1
v 0.7 1.7 -0.1
v 0.8 0.5 -0.1
v 0.8 0.6 -0.1
v 0.8 0.7 -0.1
v 0.8 1 -0.1
v 0.8 1.1 -0.1
v 0.8 1.3 -0.1
v 0.8 1.5 -0.1
v 0.8 1.6 -0.1
v 0.9 0.6 -0.1
v 0.9 0.7 -0.1
v 0.9 1 -0.1
v 0.9 1.4 -0.1
v 0.9 1.5 -0.1
v 1 0.7 -0.1
v 1 0.8 -0.1
v 1 1.3 -0.1
v 1 1.4 -0.1
v 1.1 1.3 -0.1
v 1.1 1.4 -0.1
v 1.2 0.7 -0.1
v 1.2 0.8 -0.1
v 1.2 1.4 -0.1
v 1.2 1.5 -0.1
v 1.2 1.6 -0.1
v 1.3 0.6 -0.1
v 1.3 0.7 -0.1
v 1.3 1.6 -0.1
v 1.3 1.7 -0.1
v 1.4 0.8 -0.1
v 1.4 1.5 -0.1
v 1.5 0.6 -0.1
v 1.5 0.7 -0.1
v 1.5 1.6 -0.1
v 1.5 1.7 -0.1
v 1.6 0.7 -0.1
v 1.6 1.6 -0.1
v -0.3 0.9 -0.2
v -0.3 1 -0.2
v -0.3 1.3 -0.2
v -0.2 0.8 -0.2
v -0.2 0.9 -0.2
v -0.2 1 -0.2
v -0.2 1.3 -0.2
v -0.2 1.4 -0.2
v 0 0.8 -0.2
v 0 0.9 -0.2
v 0 1 -0.2
v 0 1.4 -0.2
v 0 1.5 -0.2
v 0.1 0.9 -0.2
v 0.1 1 -0.2
v 0.1 1.4 -0.2
v 0.1 1.5 -0.2
v 0.2 1 -0.2
v 0.2 1.4 -0.2
v 0.2 0.2 0.0999999
v 0.4 0.2 0.0999999
v 0.2 0.2 -0.1
v 0.4 0.2 -0.1
v 0 0.3 0.0999999
v 0.2 0.3 0.0999999
v 0.4 0.3 0.0999999
v 0.5 0.3 0.0999999
v 0 0.3 -0.1
v 0.2 0.3 -0.1
v 0.4 0.3 -0.1
v 0.5 0.3 -0.1
v -0.1 0.4 0.0999999
v 0 0.4 0.0999999
v 0.5 0.4 0.0999999
v 0.6 0.4 0.0999999
v -0.1 0.4 -0.1
v 0 0.4 -0.1
v 0.5 0.4 -0.1
v 0.6 0.4 -0.1
v -0.5 0.5 0.0999999
v -0.3 0.5 0.0999999
v -0.1 0.5 0.0999999
v 0.6 0.5 0.0999999
v 0.7 0.5 0.0999999
v 0.8 0.5 0.0999999
v -0.5 0.5 -0.1
v -0.3 0.5 -0.1
v -0.1 0.5 -0.1
v 0.6 0.5 -0.1
v 0.7 0.5 -0.1
v 0.8 0.5 -0.1
v -0.6 0.6 0.0999999
v -0.5 0.6 0.0999999
v 0.8 0.6 0.0999999
v 0.9 0.6 0.0999999
v 1.3 0.6 0.0999999
v 1.5 0.6 0.0999999
v -0.6 0.6 -0.1
v -0.5 0.6 -0.1
v 0.8 0.6 -0.1
v 0.9 0.6 -0.1
v 1.3 0.6 -0.1
v 1.5 0.6 -0.1
v -0.7 0.7 0.0999999
v -0.6 0.7 0.0999999
v 0.9 0.7 0.0999999
v 1 0.7 0.0999999
v 1.2 0.7 0.0999999
v 1.3 0.7 0.0999999
v 1.5 0.7 0.0999999
v 1.6 0.7 0.0999999
v -0.7 0.7 -0.1
v -0.6 0.7 -0.1
v 0.9 0.7 -0.1
v 1 0.7 -0.1
v 1.2 0.7 -0.1
v 1.3 0.7 -0.1
v 1.5 0.7 -0.1
v 1.6 0.7 -0.1
v -0.2 0.8 0.2
v 0 0.8 0.2
v -0.9 0.8 0.0999999
v -0.7 0.8 0.0999999
v -0.2 0.8 0.0999999
v -0.1 0.8 0.0999999
v 0 0.8 0.0999999
v 1 0.8 0.0999999
v 1.2 0.8 0.0999999
v -0.9 0.8 -0.1
v -0.7 0.8 -0.1
v -0.2 0.8 -0.1
v -0.1 0.8 -0.1
v 0 0.8 -0.1
v 1 0.8 -0.1
v 1.2 0.8 -0.1
v -0.2 0.8 -0.2
v 0 0.8 -0.2
v -0.3 0.9 0.2
v -0.2 0.9 0.2
v 0 0.9 0.2
v 0.1 0.9 0.2
v -1 0.9 0.0999999
v -0.9 0.9 0.0999999
v -0.3 0.9 0.0999999
v -0.2 0.9 0.0999999
v 0 0.9 0.0999999
v 0.1 0.9 0.0999999
v -1 0.9 -0.1
v -0.9 0.9 -0.1
v -0.3 0.9 -0.1
v -0.2 0.9 -0.1
v 0 0.9 -0.1
v 0.1 0.9 -0.1
v -0.3 0.9 -0.2
v -0.2 0.9 -0.2
v 0 0.9 -0.2
v 0.1 0.9 -0.2
v 0.1 1 0.2
v 0.2 1 0.2
v 0.1 1 0.0999999
v 0.2 1 0.0999999
v 0.1 1 -0.1
v 0.2 1 -0.1
v 0.1 1 -0.2
v 0.2 1 -0.2
v -1.1 1.1 0.0999999
v -1 1.1 0.0999999
v -1.1 1.1 -0.1
v -1 1.1 -0.1
v -0.3 1.3 0.2
v -0.2 1.3 0.2
v -0.3 1.3 0.0999999
v -0.2 1.3 0.0999999
v 1 1.3 0.0999999
v 1.1 1.3 0.0999999
v -0.3 1.3 -0.1
v -0.2 1.3 -0.1
v 1 1.3 -0.1
v 1.1 1.3 -0.1
v -0.3 1.3 -0.2
v -0.2 1.3 -0.2
v -0.2 1.4 0.2
v 0 1.4 0.2
v 0.1 1.4 0.2
v 0.2 1.4 0.2
v -1.1 1.4 0.0999999
v -1 1.4 0.0999999
v -0.2 1.4 0.0999999
v 0 1.4 0.0999999
v 0.1 1.4 0.0999999
v 0.2 1.4 0.0999999
v 0.9 1.4 0.0999999
v 1 1.4 0.0999999
v 1.1 1.4 0.0999999
v 1.2 1.4 0.0999999
v -1.1 1.4 -0.1
v -1 1.4 -0.1
v -0.2 1.4 -0.1
v 0 1.4 -0.1
v 0.1 1.4 -0.1
v 0.2 1.4 -0.1
v 0.9 1.4 -0.1
v 1 1.4 -0.1
v 1.1 1.4 -0.1
v 1.2 1.4 -0.1
v -0.2 1.4 -0.2
v 0 1.4 -0.2
v 0.1 1.4 -0.2
v 0.2 1.4 -0.2
v 0 1.5 0.2
v 0.1 1.5 0.2
v -1 1.5 0.0999999
v -0.8 1.5 0.0999999
v 0 1.5 0.0999999
v 0.1 1.5 0.0999999
v 0.8 1.5 0.0999999
v 0.9 1.5 0.0999999
v -1 1.5 -0.1
v -0.8 1.5 -0.1
v 0 1.5 -0.1
v 0.1 1.5 -0.1
v 0.8 1.5 -0.1
v 0.9 1.5 -0.1
v 0 1.5 -0.2
v 0.1 1.5 -0.2
v -0.8 1.6 0.0999999
v -0.7 1.6 0.0999999
v -0.5 1.6 0.0999999
v 0.7 1.6 0.0999999
v 0.8 1.6 0.0999999
v 1.2 1.6 0.0999999
v 1.3 1.6 0.0999999
v 1.5 1.6 0.0999999
v 1.6 1.6 0.0999999
v -0.8 1.6 -0.1
v -0.7 1.6 -0.1
v -0.5 1.6 -0.1
v 0.7 1.6 -0.1
v 0.8 1.6 -0.1
v 1.2 1.6 -0.1
v 1.3 1.6 -0.1
v 1.5 1.6 -0.1
v 1.6 1.6 -0.1
v -0.5 1.7 0.0999999
v -0.4 1.7 0.0999999
v 0.6 1.7 0.0999999
v 0.7 1.7 0.0999999
v 1.3 1.7 0.0999999
v 1.5 1.7 0.0999999
v -0.5 1.7 -0.1
v -0.4 1.7 -0.1
v 0.6 1.7 -0.1
v 0.7 1.7 -0.1
v 1.3 1.7 -0.1
v 1.5 1.7 -0.1
v -0.4 1.8 0.0999999
v -0.2 1.8 0.0999999
v 0.4 1.8 0.0999999
v 0.6 1.8 0.0999999
v -0.4 1.8 -0.1
v -0.2 1.8 -0.1
v 0.4 1.8 -0.1
v 0.6 1.8 -0.1
v -0.2 1.9 0.0999999
v -0.1 1.9 0.0999999
v -0.2 1.9 -0.1
v -0.1 1.9 -0.1
v -0.1 2 0.0999999
v 0 2 0.0999999
v 0.3 2 0.0999999
v 0.4 2 0.0999999
v -0.1 2 -0.1
v 0 2 -0.1
v 0.3 2 -0.1
v 0.4 2 -0.1
v 0 2.1 0.0999999
v 0.3 2.1 0.0999999
v 0 2.1 -0.1
v 0.3 2.1 -0.1

# faces
f 3/1/1 2/1/1 1/1/1
f 4/1/1 2/1/1 3/1/1
f 7/1/1 6/1/1 5/1/1
f 8/1/1 6/1/1 7/1/1
f 11/1/1 10/1/1 9/1/1
f 12/1/1 10/1/1 11/1/1
f 15/1/1 14/1/1 13/1/1
f 16/1/1 14/1/1 15/1/1
f 19/1/1 18/1/1 17/1/1
f 20/1/1 18/1/1 19/1/1
f 23/3/1 22/3/1 21/3/1
f 24/3/1 22/3/1 23/3/1
f 27/1/1 26/1/1 25/1/1
f 28/1/1 26/1/1 27/1/1
f 31/1/1 30/1/1 29/1/1
f 32/1/1 30/1/1 31/1/1
f 35/1/1 34/1/1 33/1/1
f 36/1/1 34/1/1 35/1/1
f 39/1/1 38/1/1 37/1/1
f 40/1/1 38/1/1 39/1/1
f 45/2/1 42/2/1 41/2/1
f 46/2/1 42/2/1 45/2/1
f 47/2/1 44/2/1 43/2/1
f 48/2/1 44/2/1 47/2/1
f 49/1/1 46/1/1 45/1/1
f 50/1/1 48/1/1 47/1/1
f 51/1/1 49/1/1 45/1/1
f 52/1/1 49/1/1 51/1/1
f 53/1/1 48/1/1 50/1/1
f 54/1/1 48/1/1 53/1/1
f 59/2/1 56/2/1 55/2/1
f 60/2/1 56/2/1 59/2/1
f 61/2/1 58/2/1 57/2/1
f 62/2/1 58/2/1 61/2/1
f 67/1/1 64/1/1 63/1/1
f 68/1/1 64/1/1 67/1/1
f 69/1/1 66/1/1 65/1/1
f 70/1/1 66/1/1 69/1/1
f 73/2/1 72/2/1 71/2/1
f 74/2/1 72/2/1 73/2/1
f 77/2/1 76/2/1 75/2/1
f 78/2/1 76/2/1 77/2/1
f 81/2/1 80/2/1 79/2/1
f 82/2/1 80/2/1 81/2/1
f 85/2/1 84/2/1 83/2/1
f 86/2/1 84/2/1 85/2/1
f 91/2/1 88/2/1 87/2/1
f 92/2/1 88/2/1 91/2/1
f 93/2/1 90/2/1 89/2/1
f 94/2/1 90/2/1 93/2/1
f 97/2/1 96/2/1 95/2/1
f 98/2/1 96/2/1 97/2/1
f 101/2/1 100/2/1 99/2/1
f 102/2/1 100/2/1 101/2/1
f 105/1/1 104/1/1 103/1/1
f 106/1/1 104/1/1 105/1/1
f 109/2/1 108/2/1 107/2/1
f 110/2/1 108/2/1 109/2/1
f 113/1/1 112/1/1 111/1/1
f 114/1/1 112/1/1 113/1/1
f 115/2/1 114/2/1 113/2/1
f 116/2/1 114/2/1 115/2/1
f 119/2/1 118/2/1 117/2/1
f 120/2/1 118/2/1 119/2/1
f 123/2/1 122/2/1 121/2/1
f 124/2/1 122/2/1 123/2/1
f 125/2/2 126/2/2 129/2/2
f 129/2/2 126/2/2 130/2/2
f 127/2/2 128/2/2 131/2/2
f 131/2/2 128/2/2 132/2/2
f 133/2/2 134/2/2 137/2/2
f 137/2/2 134/2/2 138/2/2
f 135/2/2 136/2/2 139/2/2
f 139/2/2 136/2/2 140/2/2
f 141/2/2 142/2/2 145/2/2
f 145/2/2 142/2/2 146/2/2
f 143/2/2 144/2/2 147/2/2
f 147/2/2 144/2/2 148/2/2
f 149/2/2 150/2/2 153/2/2
f 153/2/2 150/2/2 154/2/2
f 151/2/2 152/2/2 155/2/2
f 155/2/2 152/2/2 156/2/2
f 157/2/2 158/2/2 159/2/2
f 159/2/2 158/2/2 160/2/2
f 161/2/2 162/2/2 163/2/2
f 163/2/2 162/2/2 164/2/2
f 165/2/2 166/2/2 167/2/2
f 167/2/2 166/2/2 168/2/2
f 169/2/2 170/2/2 171/2/2
f 171/2/2 170/2/2 172/2/2
f 173/2/2 174/2/2 175/2/2
f 175/2/2 174/2/2 176/2/2
f 177/1/2 178/1/2 179/1/2
f 179/1/2 178/1/2 180/1/2
f 181/3/2 182/3/2 183/3/2
f 183/3/2 182/3/2 184/3/2
f 185/1/2 186/1/2 187/1/2
f 187/1/2 186/1/2 188/1/2
f 189/3/2 190/3/2 191/3/2
f 191/3/2 190/3/2 192/3/2
f 193/1/2 194/1/2 195/1/2
f 195/1/2 194/1/2 196/1/2
f 197/3/2 198/3/2 199/3/2
f 199/3/2 198/3/2 200/3/2
f 201/1/2 202/1/2 203/1/2
f 203/1/2 202/1/2 204/1/2
f 205/1/2 206/1/2 207/1/2
f 207/1/2 206/1/2 208/1/2
f 209/2/2 210/2/2 211/2/2
f 211/2/2 210/2/2 212/2/2
f 213/2/2 214/2/2 215/2/2
f 215/2/2 214/2/2 216/2/2
f 217/2/2 218/2/2 219/2/2
f 219/2/2 218/2/2 220/2/2
f 225/2/3 222/2/3 221/2/3
f 226/1/3 223/1/3 222/1/3
f 226/2/3 222/2/3 225/2/3
f 227/1/3 223/1/3 226/1/3
f 229/2/3 225/2/3 224/2/3
f 230/1/3 228/1/3 227/1/3
f 230/2/3 225/2/3 229/2/3
f 230/1/3 226/1/3 225/1/3
f 230/1/3 227/1/3 226/1/3
f 231/1/3 228/1/3 230/1/3
f 232/1/3 228/1/3 231/1/3
f 234/2/3 231/2/3 230/2/3
f 235/1/3 232/1/3 231/1/3
f 235/2/3 231/2/3 234/2/3
f 236/2/3 233/2/3 232/2/3
f 236/1/3 232/1/3 235/1/3
f 237/2/3 233/2/3 236/2/3
f 238/2/3 236/2/3 235/2/3
f 239/2/3 236/2/3 238/2/3
f 243/1/3 241/1/3 240/1/3
f 244/1/3 241/1/3 243/1/3
f 247/1/3 243/1/3 242/1/3
f 247/1/3 245/1/3 244/1/3
f 247/1/3 244/1/3 243/1/3
f 248/1/3 245/1/3 247/1/3
f 248/1/3 247/1/3 246/1/3
f 249/1/3 245/1/3 248/1/3
f 250/1/3 245/1/3 249/1/3
f 253/1/3 248/1/3 246/1/3
f 254/1/3 248/1/3 253/1/3
f 255/2/3 249/2/3 248/2/3
f 255/1/3 248/1/3 254/1/3
f 256/1/3 251/1/3 250/1/3
f 256/2/3 249/2/3 255/2/3
f 256/1/3 250/1/3 249/1/3
f 257/1/3 251/1/3 256/1/3
f 258/1/3 251/1/3 257/1/3
f 260/3/3 254/3/3 253/3/3
f 260/3/3 253/3/3 252/3/3
f 261/3/3 254/3/3 260/3/3
f 262/1/3 255/1/3 254/1/3
f 262/3/3 254/3/3 261/3/3
f 262/1/3 256/1/3 255/1/3
f 262/1/3 257/1/3 256/1/3
f 263/1/3 257/1/3 262/1/3
f 264/1/3 257/1/3 263/1/3
f 265/3/3 258/3/3 257/3/3
f 265/1/3 257/1/3 264/1/3
f 267/1/3 261/1/3 260/1/3
f 267/1/3 260/1/3 259/1/3
f 268/3/3 262/3/3 261/3/3
f 268/3/3 263/3/3 262/3/3
f 268/1/3 261/1/3 267/1/3
f 269/3/3 263/3/3 268/3/3
f 270/1/3 264/1/3 263/1/3
f 270/3/3 263/3/3 269/3/3
f 271/1/3 264/1/3 270/1/3
f 272/1/3 264/1/3 271/1/3
f 273/3/3 265/3/3 264/3/3
f 273/1/3 264/1/3 272/1/3
f 274/3/3 258/3/3 265/3/3
f 274/3/3 265/3/3 273/3/3
f 275/3/3 258/3/3 274/3/3
f 277/1/3 269/1/3 268/1/3
f 277/1/3 267/1/3 266/1/3
f 277/1/3 268/1/3 267/1/3
f 277/3/3 271/3/3 270/3/3
f 277/3/3 270/3/3 269/3/3
f 278/3/3 271/3/3 277/3/3
f 279/1/3 272/1/3 271/1/3
f 279/3/3 271/3/3 278/3/3
f 280/3/3 273/3/3 272/3/3
f 280/1/3 272/1/3 279/1/3
f 280/3/3 274/3/3 273/3/3
f 281/3/3 274/3/3 280/3/3
f 282/1/3 275/1/3 274/1/3
f 282/3/3 274/3/3 281/3/3
f 282/1/3 276/1/3 275/1/3
f 283/1/3 276/1/3 282/1/3
f 285/1/3 278/1/3 277/1/3
f 285/1/3 277/1/3 266/1/3
f 286/1/3 278/1/3 285/1/3
f 287/1/3 278/1/3 286/1/3
f 288/1/3 278/1/3 287/1/3
f 289/3/3 279/3/3 278/3/3
f 289/1/3 278/1/3 288/1/3
f 289/3/3 281/3/3 280/3/3
f 289/3/3 280/3/3 279/3/3
f 290/3/3 281/3/3 289/3/3
f 291/1/3 284/1/3 283/1/3
f 291/3/3 281/3/3 290/3/3
f 291/1/3 283/1/3 282/1/3
f 291/1/3 282/1/3 281/1/3
f 292/1/3 287/1/3 286/1/3
f 292/3/3 286/3/3 285/3/3
f 293/1/3 287/1/3 292/1/3
f 294/1/3 287/1/3 293/1/3
f 295/1/3 287/1/3 294/1/3
f 296/1/3 291/1/3 290/1/3
f 297/1/3 284/1/3 291/1/3
f 297/1/3 291/1/3 296/1/3
f 298/1/3 284/1/3 297/1/3
f 299/1/3 284/1/3 298/1/3
f 302/3/3 292/3/3 285/3/3
f 302/3/3 293/3/3 292/3/3
f 303/1/3 294/1/3 293/1/3
f 303/3/3 293/3/3 302/3/3
f 304/1/3 294/1/3 303/1/3
f 305/1/3 298/1/3 297/1/3
f 306/3/3 299/3/3 298/3/3
f 306/1/3 298/1/3 305/1/3
f 307/2/3 300/2/3 299/2/3
f 307/3/3 299/3/3 306/3/3
f 308/2/3 300/2/3 307/2/3
f 311/2/3 302/2/3 301/2/3
f 312/3/3 304/3/3 303/3/3
f 312/3/3 303/3/3 302/3/3
f 312/2/3 302/2/3 311/2/3
f 313/3/3 304/3/3 312/3/3
f 314/3/3 304/3/3 313/3/3
f 316/1/3 305/1/3 297/1/3
f 317/1/3 305/1/3 316/1/3
f 318/2/3 309/2/3 308/2/3
f 318/1/3 308/1/3 307/1/3
f 319/2/3 309/2/3 318/2/3
f 321/3/3 315/3/3 314/3/3
f 321/1/3 312/1/3 311/1/3
f 321/1/3 313/1/3 312/1/3
f 321/3/3 314/3/3 313/3/3
f 322/3/3 315/3/3 321/3/3
f 323/3/3 315/3/3 322/3/3
f 326/1/3 305/1/3 317/1/3
f 327/3/3 306/3/3 305/3/3
f 327/3/3 307/3/3 306/3/3
f 327/1/3 305/1/3 326/1/3
f 328/3/3 307/3/3 327/3/3
f 329/1/3 319/1/3 318/1/3
f 329/3/3 307/3/3 328/3/3
f 329/1/3 318/1/3 307/1/3
f 331/2/3 311/2/3 310/2/3
f 332/1/3 321/1/3 311/1/3
f 332/1/3 322/1/3 321/1/3
f 332/2/3 311/2/3 331/2/3
f 333/3/3 324/3/3 323/3/3
f 333/1/3 322/1/3 332/1/3
f 333/3/3 323/3/3 322/3/3
f 334/3/3 324/3/3 333/3/3
f 335/3/3 324/3/3 334/3/3
f 336/3/3 326/3/3 325/3/3
f 336/3/3 328/3/3 327/3/3
f 336/3/3 327/3/3 326/3/3
f 337/3/3 328/3/3 336/3/3
f 338/1/3 329/1/3 328/1/3
f 338/3/3 328/3/3 337/3/3
f 339/3/3 335/3/3 334/3/3
f 339/1/3 332/1/3 331/1/3
f 339/1/3 334/1/3 333/1/3
f 339/3/3 336/3/3 335/3/3
f 339/1/3 333/1/3 332/1/3
f 339/3/3 337/3/3 336/3/3
f 340/3/3 337/3/3 339/3/3
f 341/3/3 337/3/3 340/3/3
f 342/1/3 338/1/3 337/1/3
f 342/3/3 337/3/3 341/3/3
f 343/1/3 329/1/3 338/1/3
f 343/1/3 338/1/3 342/1/3
f 343/1/3 319/1/3 329/1/3
f 344/2/3 320/2/3 319/2/3
f 344/1/3 319/1/3 343/1/3
f 345/2/3 320/2/3 344/2/3
f 346/2/3 331/2/3 330/2/3
f 347/1/3 340/1/3 339/1/3
f 347/2/3 331/2/3 346/2/3
f 347/1/3 339/1/3 331/1/3
f 348/1/3 340/1/3 347/1/3
f 349/3/3 341/3/3 340/3/3
f 349/1/3 340/1/3 348/1/3
f 350/1/3 342/1/3 341/1/3
f 350/3/3 341/3/3 349/3/3
f 350/1/3 343/1/3 342/1/3
f 351/2/3 344/2/3 343/2/3
f 351/1/3 343/1/3 350/1/3
f 352/2/3 344/2/3 351/2/3
f 353/2/3 348/2/3 347/2/3
f 354/1/3 349/1/3 348/1/3
f 354/2/3 348/2/3 353/2/3
f 354/1/3 351/1/3 350/1/3
f 354/1/3 350/1/3 349/1/3
f 355/1/3 351/1/3 354/1/3
f 356/1/3 351/1/3 355/1/3
f 357/2/3 355/2/3 354/2/3
f 358/3/3 356/3/3 355/3/3
f 358/2/3 355/2/3 357/2/3
f 359/1/3 351/1/3 356/1/3
f 359/3/3 356/3/3 358/3/3
f 360/1/3 351/1/3 359/1/3
f 361/1/3 351/1/3 360/1/3
f 362/1/3 351/1/3 361/1/3
f 363/1/3 351/1/3 362/1/3
f 364/3/3 359/3/3 358/3/3
f 364/3/3 360/3/3 359/3/3
f 365/3/3 360/3/3 364/3/3
f 366/1/3 361/1/3 360/1/3
f 366/3/3 360/3/3 365/3/3
f 367/1/3 361/1/3 366/1/3
f 368/1/3 361/1/3 367/1/3
f 369/3/3 362/3/3 361/3/3
f 369/1/3 361/1/3 368/1/3
f 370/3/3 362/3/3 369/3/3
f 371/3/3 362/3/3 370/3/3
f 372/1/3 365/1/3 364/1/3
f 373/1/3 365/1/3 372/1/3
f 374/3/3 366/3/3 365/3/3
f 374/1/3 365/1/3 373/1/3
f 374/3/3 367/3/3 366/3/3
f 375/3/3 367/3/3 374/3/3
f 376/1/3 368/1/3 367/1/3
f 376/3/3 367/3/3 375/3/3
f 377/3/3 369/3/3 368/3/3
f 377/1/3 368/1/3 376/1/3
f 377/3/3 370/3/3 369/3/3
f 378/3/3 370/3/3 377/3/3
f 379/3/3 370/3/3 378/3/3
f 380/1/3 375/1/3 374/1/3
f 380/1/3 374/1/3 373/1/3
f 381/1/3 375/1/3 380/1/3
f 382/3/3 378/3/3 377/3/3
f 382/1/3 375/1/3 381/1/3
f 382/3/3 376/3/3 375/3/3
f 382/3/3 377/3/3 376/3/3
f 383/3/3 378/3/3 382/3/3
f 384/3/3 378/3/3 383/3/3
f 385/1/3 382/1/3 381/1/3
f 385/1/3 383/1/3 382/1/3
f 386/1/3 383/1/3 385/1/3
f 387/1/3 383/1/3 386/1/3
f 388/1/3 383/1/3 387/1/3
f 389/1/3 387/1/3 386/1/3
f 392/1/3 389/1/3 386/1/3
f 392/1/3 390/1/3 389/1/3
f 393/1/3 390/1/3 392/1/3
f 397/2/3 392/2/3 391/2/3
f 398/2/3 395/2/3 394/2/3
f 400/1/3 394/1/3 393/1/3
f 400/1/3 393/1/3 392/1/3
f 400/2/3 392/2/3 397/2/3
f 400/2/3 397/2/3 396/2/3
f 401/2/3 398/2/3 394/2/3
f 401/1/3 394/1/3 400/1/3
f 401/2/3 399/2/3 398/2/3
f 402/2/3 400/2/3 396/2/3
f 402/2/3 401/2/3 400/2/3
f 403/2/3 401/2/3 402/2/3
f 404/2/3 399/2/3 401/2/3
f 404/2/3 401/2/3 403/2/3
f 405/2/3 399/2/3 404/2/3
f 406/2/3 404/2/3 403/2/3
f 407/2/3 404/2/3 406/2/3
f 408/1/4 409/1/4 411/1/4
f 411/1/4 409/1/4 412/1/4
f 410/1/4 411/1/4 415/1/4
f 412/1/4 413/1/4 415/1/4
f 411/1/4 412/1/4 415/1/4
f 415/1/4 413/1/4 416/1/4
f 414/1/4 415/1/4 416/1/4
f 416/1/4 413/1/4 417/1/4
f 417/1/4 413/1/4 418/1/4
f 414/1/4 416/1/4 421/1/4
f 421/1/4 416/1/4 422/1/4
f 416/2/4 417/2/4 423/2/4
f 422/1/4 416/1/4 423/1/4
f 418/1/4 419/1/4 424/1/4
f 423/2/4 417/2/4 424/2/4
f 417/1/4 418/1/4 424/1/4
f 424/1/4 419/1/4 425/1/4
f 425/1/4 419/1/4 426/1/4
f 421/3/4 422/3/4 428/3/4
f 420/3/4 421/3/4 428/3/4
f 428/3/4 422/3/4 429/3/4
f 422/1/4 423/1/4 430/1/4
f 429/3/4 422/3/4 430/3/4
f 423/1/4 424/1/4 430/1/4
f 424/1/4 425/1/4 430/1/4
f 430/1/4 425/1/4 431/1/4
f 431/1/4 425/1/4 432/1/4
f 425/3/4 426/3/4 433/3/4
f 432/1/4 425/1/4 433/1/4
f 428/1/4 429/1/4 435/1/4
f 427/1/4 428/1/4 435/1/4
f 429/3/4 430/3/4 436/3/4
f 430/3/4 431/3/4 436/3/4
f 435/1/4 429/1/4 436/1/4
f 436/3/4 431/3/4 437/3/4
f 431/1/4 432/1/4 438/1/4
f 437/3/4 431/3/4 438/3/4
f 438/1/4 432/1/4 439/1/4
f 439/1/4 432/1/4 440/1/4
f 432/3/4 433/3/4 441/3/4
f 440/1/4 432/1/4 441/1/4
f 433/3/4 426/3/4 442/3/4
f 441/3/4 433/3/4 442/3/4
f 442/3/4 426/3/4 443/3/4
f 436/1/4 437/1/4 445/1/4
f 434/1/4 435/1/4 445/1/4
f 435/1/4 436/1/4 445/1/4
f 438/3/4 439/3/4 445/3/4
f 437/3/4 438/3/4 445/3/4
f 445/3/4 439/3/4 446/3/4
f 439/1/4 440/1/4 447/1/4
f 446/3/4 439/3/4 447/3/4
f 440/3/4 441/3/4 448/3/4
f 447/1/4 440/1/4 448/1/4
f 441/3/4 442/3/4 448/3/4
f 448/3/4 442/3/4 449/3/4
f 442/1/4 443/1/4 450/1/4
f 449/3/4 442/3/4 450/3/4
f 443/1/4 444/1/4 450/1/4
f 450/1/4 444/1/4 451/1/4
f 445/1/4 446/1/4 453/1/4
f 434/1/4 445/1/4 453/1/4
f 453/1/4 446/1/4 454/1/4
f 454/1/4 446/1/4 455/1/4
f 455/1/4 446/1/4 456/1/4
f 446/3/4 447/3/4 457/3/4
f 456/1/4 446/1/4 457/1/4
f 448/3/4 449/3/4 457/3/4
f 447/3/4 448/3/4 457/3/4
f 457/3/4 449/3/4 458/3/4
f 451/1/4 452/1/4 459/1/4
f 458/3/4 449/3/4 459/3/4
f 450/1/4 451/1/4 459/1/4
f 449/1/4 450/1/4 459/1/4
f 454/1/4 455/1/4 460/1/4
f 453/3/4 454/3/4 460/3/4
f 460/1/4 455/1/4 461/1/4
f 461/1/4 455/1/4 462/1/4
f 462/1/4 455/1/4 463/1/4
f 458/1/4 459/1/4 464/1/4
f 459/1/4 452/1/4 465/1/4
f 464/1/4 459/1/4 465/1/4
f 465/1/4 452/1/4 466/1/4
f 466/1/4 452/1/4 467/1/4
f 453/3/4 460/3/4 470/3/4
f 460/3/4 461/3/4 470/3/4
f 461/1/4 462/1/4 471/1/4
f 470/3/4 461/3/4 471/3/4
f 471/1/4 462/1/4 472/1/4
f 465/1/4 466/1/4 473/1/4
f 466/3/4 467/3/4 474/3/4
f 473/1/4 466/1/4 474/1/4
f 467/2/4 468/2/4 475/2/4
f 474/3/4 467/3/4 475/3/4
f 475/2/4 468/2/4 476/2/4
f 469/2/4 470/2/4 479/2/4
f 471/3/4 472/3/4 480/3/4
f 470/3/4 471/3/4 480/3/4
f 479/2/4 470/2/4 480/2/4
f 480/3/4 472/3/4 481/3/4
f 481/3/4 472/3/4 482/3/4
f 465/1/4 473/1/4 484/1/4
f 484/1/4 473/1/4 485/1/4
f 476/2/4 477/2/4 486/2/4
f 475/1/4 476/1/4 486/1/4
f 486/2/4 477/2/4 487/2/4
f 482/3/4 483/3/4 489/3/4
f 479/1/4 480/1/4 489/1/4
f 480/1/4 481/1/4 489/1/4
f 481/3/4 482/3/4 489/3/4
f 489/3/4 483/3/4 490/3/4
f 490/3/4 483/3/4 491/3/4
f 485/1/4 473/1/4 494/1/4
f 473/3/4 474/3/4 495/3/4
f 474/3/4 475/3/4 495/3/4
f 494/1/4 473/1/4 495/1/4
f 495/3/4 475/3/4 496/3/4
f 486/1/4 487/1/4 497/1/4
f 496/3/4 475/3/4 497/3/4
f 475/1/4 486/1/4 497/1/4
f 478/2/4 479/2/4 499/2/4
f 479/1/4 489/1/4 500/1/4
f 489/1/4 490/1/4 500/1/4
f 499/2/4 479/2/4 500/2/4
f 491/3/4 492/3/4 501/3/4
f 500/1/4 490/1/4 501/1/4
f 490/3/4 491/3/4 501/3/4
f 501/3/4 492/3/4 502/3/4
f 502/3/4 492/3/4 503/3/4
f 493/3/4 494/3/4 504/3/4
f 495/3/4 496/3/4 504/3/4
f 494/3/4 495/3/4 504/3/4
f 504/3/4 496/3/4 505/3/4
f 496/1/4 497/1/4 506/1/4
f 505/3/4 496/3/4 506/3/4
f 502/3/4 503/3/4 507/3/4
f 499/1/4 500/1/4 507/1/4
f 501/1/4 502/1/4 507/1/4
f 503/3/4 504/3/4 507/3/4
f 500/1/4 501/1/4 507/1/4
f 504/3/4 505/3/4 507/3/4
f 507/3/4 505/3/4 508/3/4
f 508/3/4 505/3/4 509/3/4
f 505/1/4 506/1/4 510/1/4
f 509/3/4 505/3/4 510/3/4
f 506/1/4 497/1/4 511/1/4
f 510/1/4 506/1/4 511/1/4
f 497/1/4 487/1/4 511/1/4
f 487/2/4 488/2/4 512/2/4
f 511/1/4 487/1/4 512/1/4
f 512/2/4 488/2/4 513/2/4
f 498/2/4 499/2/4 514/2/4
f 507/1/4 508/1/4 515/1/4
f 514/2/4 499/2/4 515/2/4
f 499/1/4 507/1/4 515/1/4
f 515/1/4 508/1/4 516/1/4
f 508/3/4 509/3/4 517/3/4
f 516/1/4 508/1/4 517/1/4
f 509/1/4 510/1/4 518/1/4
f 517/3/4 509/3/4 518/3/4
f 510/1/4 511/1/4 518/1/4
f 511/2/4 512/2/4 519/2/4
f 518/1/4 511/1/4 519/1/4
f 519/2/4 512/2/4 520/2/4
f 515/2/4 516/2/4 521/2/4
f 516/1/4 517/1/4 522/1/4
f 521/2/4 516/2/4 522/2/4
f 518/1/4 519/1/4 522/1/4
f 517/1/4 518/1/4 522/1/4
f 522/1/4 519/1/4 523/1/4
f 523/1/4 519/1/4 524/1/4
f 522/2/4 523/2/4 525/2/4
f 523/3/4 524/3/4 526/3/4
f 525/2/4 523/2/4 526/2/4
f 524/1/4 519/1/4 527/1/4
f 526/3/4 524/3/4 527/3/4
f 527/1/4 519/1/4 528/1/4
f 528/1/4 519/1/4 529/1/4
f 529/1/4 519/1/4 530/1/4
f 530/1/4 519/1/4 531/1/4
f 526/3/4 527/3/4 532/3/4
f 527/3/4 528/3/4 532/3/4
f 532/3/4 528/3/4 533/3/4
f 528/1/4 529/1/4 534/1/4
f 533/3/4 528/3/4 534/3/4
f 534/1/4 529/1/4 535/1/4
f 535/1/4 529/1/4 536/1/4
f 529/3/4 530/3/4 537/3/4
f 536/1/4 529/1/4 537/1/4
f 537/3/4 530/3/4 538/3/4
f 538/3/4 530/3/4 539/3/4
f 532/1/4 533/1/4 540/1/4
f 540/1/4 533/1/4 541/1/4
f 533/3/4 534/3/4 542/3/4
f 541/1/4 533/1/4 542/1/4
f 534/3/4 535/3/4 542/3/4
f 542/3/4 535/3/4 543/3/4
f 535/1/4 536/1/4 544/1/4
f 543/3/4 535/3/4 544/3/4
f 536/3/4 537/3/4 545/3/4
f 544/1/4 536/1/4 545/1/4
f 537/3/4 538/3/4 545/3/4
f 545/3/4 538/3/4 546/3/4
f 546/3/4 538/3/4 547/3/4
f 542/1/4 543/1/4 548/1/4
f 541/1/4 542/1/4 548/1/4
f 548/1/4 543/1/4 549/1/4
f 545/3/4 546/3/4 550/3/4
f 549/1/4 543/1/4 550/1/4
f 543/3/4 544/3/4 550/3/4
f 544/3/4 545/3/4 550/3/4
f 550/3/4 546/3/4 551/3/4
f 551/3/4 546/3/4 552/3/4
f 549/1/4 550/1/4 553/1/4
f 550/1/4 551/1/4 553/1/4
f 553/1/4 551/1/4 554/1/4
f 554/1/4 551/1/4 555/1/4
f 555/1/4 551/1/4 556/1/4
f 554/1/4 555/1/4 557/1/4
f 554/1/4 557/1/4 560/1/4
f 557/1/4 558/1/4 560/1/4
f 560/1/4 558/1/4 561/1/4
f 559/2/4 560/2/4 565/2/4
f 562/2/4 563/2/4 566/2/4
f 561/1/4 562/1/4 568/1/4
f 560/1/4 561/1/4 568/1/4
f 565/2/4 560/2/4 568/2/4
f 564/2/4 565/2/4 568/2/4
f 562/2/4 566/2/4 569/2/4
f 568/1/4 562/1/4 569/1/4
f 566/2/4 567/2/4 569/2/4
f 564/2/4 568/2/4 570/2/4
f 568/2/4 569/2/4 570/2/4
f 570/2/4 569/2/4 571/2/4
f 569/2/4 567/2/4 572/2/4
f 571/2/4 569/2/4 572/2/4
f 572/2/4 567/2/4 573/2/4
f 571/2/4 572/2/4 574/2/4
f 574/2/4 572/2/4 575/2/4
f 576/2/4 577/2/4 580/2/4
f 577/1/4 578/1/4 581/1/4
f 580/2/4 577/2/4 581/2/4
f 581/1/4 578/1/4 582/1/4
f 579/2/4 580/2/4 584/2/4
f 582/1/4 583/1/4 585/1/4
f 584/2/4 580/2/4 585/2/4
f 580/1/4 581/1/4 585/1/4
f 581/1/4 582/1/4 585/1/4
f 585/1/4 583/1/4 586/1/4
f 586/1/4 583/1/4 587/1/4
f 585/2/4 586/2/4 589/2/4
f 586/1/4 587/1/4 590/1/4
f 589/2/4 586/2/4 590/2/4
f 587/2/4 588/2/4 591/2/4
f 590/1/4 587/1/4 591/1/4
f 591/2/4 588/2/4 592/2/4
f 590/2/4 591/2/4 593/2/4
f 593/2/4 591/2/4 594/2/4
f 597/2/5 596/2/5 595/2/5
f 598/2/5 596/2/5 597/2/5
f 603/2/5 600/2/5 599/2/5
f 604/2/5 600/2/5 603/2/5
f 605/2/5 602/2/5 601/2/5
f 606/2/5 602/2/5 605/2/5
f 611/2/5 608/2/5 607/2/5
f 612/2/5 608/2/5 611/2/5
f 613/2/5 610/2/5 609/2/5
f 614/2/5 610/2/5 613/2/5
f 621/1/5 616/1/5 615/1/5
f 622/3/5 617/3/5 616/3/5
f 622/1/5 616/1/5 621/1/5
f 623/3/5 617/3/5 622/3/5
f 624/3/5 619/3/5 618/3/5
f 625/1/5 620/1/5 619/1/5
f 625/3/5 619/3/5 624/3/5
f 626/1/5 620/1/5 625/1/5
f 633/1/5 628/1/5 627/1/5
f 634/1/5 628/1/5 633/1/5
f 635/1/5 630/1/5 629/1/5
f 636/1/5 630/1/5 635/1/5
f 637/2/5 632/2/5 631/2/5
f 638/2/5 632/2/5 637/2/5
f 647/3/5 640/3/5 639/3/5
f 648/3/5 640/3/5 647/3/5
f 649/1/5 642/1/5 641/1/5
f 650/1/5 642/1/5 649/1/5
f 651/2/5 644/2/5 643/2/5
f 652/2/5 644/2/5 651/2/5
f 653/2/5 646/2/5 645/2/5
f 654/2/5 646/2/5 653/2/5
f 659/2/5 656/2/5 655/2/5
f 660/2/5 656/2/5 659/2/5
f 661/2/5 656/2/5 660/2/5
f 664/1/5 658/1/5 657/1/5
f 665/1/5 658/1/5 664/1/5
f 669/1/5 663/1/5 662/1/5
f 670/1/5 663/1/5 669/1/5
f 671/2/5 668/2/5 667/2/5
f 671/2/5 667/2/5 666/2/5
f 672/2/5 668/2/5 671/2/5
f 679/2/5 674/2/5 673/2/5
f 680/2/5 674/2/5 679/2/5
f 681/2/5 676/2/5 675/2/5
f 682/2/5 676/2/5 681/2/5
f 683/1/5 678/1/5 677/1/5
f 684/1/5 678/1/5 683/1/5
f 689/2/5 686/2/5 685/2/5
f 690/2/5 686/2/5 689/2/5
f 691/2/5 688/2/5 687/2/5
f 692/2/5 688/2/5 691/2/5
f 695/2/5 694/2/5 693/2/5
f 696/2/5 694/2/5 695/2/5
f 699/2/5 698/2/5 697/2/5
f 700/2/5 698/2/5 699/2/5
f 703/1/5 702/1/5 701/1/5
f 704/1/5 702/1/5 703/1/5
f 705/1/6 706/1/6 707/1/6
f 707/1/6 706/1/6 708/1/6
f 709/1/6 710/1/6 713/1/6
f 713/1/6 710/1/6 714/1/6
f 711/1/6 712/1/6 715/1/6
f 715/1/6 712/1/6 716/1/6
f 717/1/6 718/1/6 723/1/6
f 723/1/6 718/1/6 724/1/6
f 719/2/6 720/2/6 725/2/6
f 725/2/6 720/2/6 726/2/6
f 721/1/6 722/1/6 731/1/6
f 731/1/6 722/1/6 732/1/6
f 727/1/6 728/1/6 737/1/6
f 737/1/6 728/1/6 738/1/6
f 729/1/6 730/1/6 739/1/6
f 739/1/6 730/1/6 740/1/6
f 733/1/6 734/1/6 741/1/6
f 741/1/6 734/1/6 742/1/6
f 735/2/6 736/2/6 743/2/6
f 743/2/6 736/2/6 744/2/6
f 745/2/6 746/2/6 749/2/6
f 749/2/6 746/2/6 750/2/6
f 747/1/6 748/1/6 753/1/6
f 753/1/6 748/1/6 754/1/6
f 751/3/6 752/3/6 757/3/6
f 757/3/6 752/3/6 758/3/6
f 755/2/6 756/2/6 759/2/6
f 759/2/6 756/2/6 760/2/6
f 761/1/6 762/1/6 770/1/6
f 762/3/6 763/3/6 771/3/6
f 770/1/6 762/1/6 771/1/6
f 771/3/6 763/3/6 772/3/6
f 764/3/6 765/3/6 773/3/6
f 773/3/6 765/3/6 774/3/6
f 766/2/6 767/2/6 775/2/6
f 775/2/6 767/2/6 776/2/6
f 768/2/6 769/2/6 777/2/6
f 777/2/6 769/2/6 778/2/6
f 779/1/6 780/1/6 785/1/6
f 785/1/6 780/1/6 786/1/6
f 781/3/6 782/3/6 787/3/6
f 787/3/6 782/3/6 788/3/6
f 783/2/6 784/2/6 789/2/6
f 789/2/6 784/2/6 790/2/6
f 791/1/6 792/1/6 795/1/6
f 795/1/6 792/1/6 796/1/6
f 793/1/6 794/1/6 797/1/6
f 797/1/6 794/1/6 798/1/6
f 799/2/6 800/2/6 801/2/6
f 801/2/6 800/2/6 802/2/6
f 803/2/6 804/2/6 807/2/6
f 807/2/6 804/2/6 808/2/6
f 805/2/6 806/2/6 809/2/6
f 809/2/6 806/2/6 810/2/6
f 811/2/6 812/2/6 813/2/6
f 813/2/6 812/2/6 814/2/6
