# MagicaVoxel @ Ephtracy

# group
o 

# material
mtllib Decorator_Crab.mtl
usemtl palette

# normals
vn -1 0 0
vn 1 0 0
vn 0 0 1
vn 0 0 -1
vn 0 -1 0
vn 0 1 0

# texcoords
vt 0.970703 0.5
vt 0.974609 0.5
vt 0.978516 0.5
vt 0.982422 0.5
vt 0.986328 0.5

# verts
v -1 0.3 0.2
v -1 0.3 0.1
v -1 0.4 0.2
v -1 0.4 0.1
v -1 0.5 0.2
v -1 0.5 0.1
v -1 0.6 0.2
v -1 0.6 0.1
v -0.9 0.3 1.1
v -0.9 0.3 1
v -0.9 0.4 1.1
v -0.9 0.4 1
v -0.9 0.5 1.1
v -0.9 0.5 1
v -0.9 0.6 1.1
v -0.9 0.6 1
v -0.8 0.4 0.2
v -0.8 0.4 0.1
v -0.8 0.5 0.2
v -0.8 0.5 0.1
v -0.7 0.4 1.1
v -0.7 0.4 1
v -0.7 0.5 1.1
v -0.7 0.5 1
v -0.6 0.3 1.1
v -0.6 0.3 1
v -0.6 0.3 0.2
v -0.6 0.3 0.1
v -0.6 0.4 1.1
v -0.6 0.4 1
v -0.6 0.4 0.2
v -0.6 0.4 0.1
v -0.5 0 0
v -0.5 0 -0.1
v -0.5 0.2 0
v -0.5 0.2 -0.1
v -0.5 0.4 1.1
v -0.5 0.4 1
v -0.5 0.5 1.1
v -0.5 0.5 1
v -0.4 0.2 0.9
v -0.4 0.2 0.3
v -0.4 0.2 0.1
v -0.4 0.2 0
v -0.4 0.3 1
v -0.4 0.3 0.9
v -0.4 0.3 0.3
v -0.4 0.3 0.2
v -0.4 0.3 0.1
v -0.4 0.3 0
v -0.4 0.4 0.2
v -0.4 0.4 0.1
v -0.4 0.5 1
v -0.4 0.5 0.8
v -0.4 0.5 0.7
v -0.4 0.5 0.5
v -0.4 0.5 0.4
v -0.4 0.5 0.2
v -0.4 0.5 0.1
v -0.4 0.6 1
v -0.4 0.6 0.9
v -0.4 0.6 0.3
v -0.4 0.6 0.2
v -0.4 0.7 0.9
v -0.4 0.7 0.8
v -0.4 0.7 0.7
v -0.4 0.7 0.5
v -0.4 0.7 0.4
v -0.4 0.7 0.3
v -0.4 1 1.1
v -0.4 1 1
v -0.4 1.2 1.1
v -0.4 1.2 1
v -0.3 0 1.4
v -0.3 0 1.3
v -0.3 0.2 1.4
v -0.3 0.2 1.3
v -0.3 0.2 1.2
v -0.3 0.2 1
v -0.3 0.2 0.9
v -0.3 0.2 0.3
v -0.3 0.2 0.2
v -0.3 0.3 1.3
v -0.3 0.3 1.2
v -0.3 0.3 1
v -0.3 0.3 0.9
v -0.3 0.3 0.3
v -0.3 0.3 0.2
v -0.3 0.3 0.1
v -0.3 0.3 0
v -0.3 0.4 1.2
v -0.3 0.4 1.1
v -0.3 0.4 1
v -0.3 0.4 0.2
v -0.3 0.4 0.1
v -0.3 0.4 0
v -0.3 0.5 1.1
v -0.3 0.5 1
v -0.3 0.5 0.2
v -0.3 0.5 0.1
v -0.3 0.6 1.1
v -0.3 0.6 1
v -0.3 0.6 0.9
v -0.3 0.6 0.3
v -0.3 0.6 0.2
v -0.3 0.6 0.1
v -0.3 0.7 1
v -0.3 0.7 0.9
v -0.3 0.7 0.8
v -0.3 0.7 0.7
v -0.3 0.7 0.5
v -0.3 0.7 0.4
v -0.3 0.7 0.3
v -0.3 0.7 0.2
v -0.3 0.8 0.9
v -0.3 0.8 0.3
v -0.3 0.9 1.1
v -0.3 0.9 1
v -0.3 1 1.1
v -0.3 1 1
v -0.2 0.7 1
v -0.2 0.7 0.9
v -0.2 0.8 0.9
v -0.2 0.9 1
v -0.2 0.9 0.9
v -0.2 1 1.2
v -0.2 1 1.1
v -0.2 1.2 1.2
v -0.2 1.2 1.1
v -0.0999999 0 1.4
v -0.0999999 0 1.3
v -0.0999999 0 -0.1
v -0.0999999 0 -0.2
v -0.0999999 0.2 1.4
v -0.0999999 0.2 1.3
v -0.0999999 0.2 1.2
v -0.0999999 0.2 0
v -0.0999999 0.2 -0.1
v -0.0999999 0.2 -0.2
v -0.0999999 0.3 1.3
v -0.0999999 0.3 1.2
v -0.0999999 0.3 1.1
v -0.0999999 0.3 0.1
v -0.0999999 0.3 0
v -0.0999999 0.3 -0.1
v -0.0999999 0.4 1.2
v -0.0999999 0.4 1.1
v -0.0999999 0.4 0.1
v -0.0999999 0.4 0
v -0.0999999 1.1 0.4
v -0.0999999 1.1 0.3
v -0.0999999 1.3 0.4
v -0.0999999 1.3 0.3
v 1.19209e-07 0.4 1.2
v 1.19209e-07 0.4 1.1
v 1.19209e-07 0.5 1.3
v 1.19209e-07 0.5 1.2
v 1.19209e-07 0.5 1.1
v 1.19209e-07 0.6 0.2
v 1.19209e-07 0.6 0.1
v 1.19209e-07 0.7 1.5
v 1.19209e-07 0.7 1.3
v 1.19209e-07 0.7 1.2
v 1.19209e-07 0.7 0.3
v 1.19209e-07 0.7 0.2
v 1.19209e-07 0.8 1.5
v 1.19209e-07 0.8 1.4
v 1.19209e-07 0.8 0.3
v 1.19209e-07 0.8 0.2
v 1.19209e-07 0.8 0.1
v 1.19209e-07 0.8 -0.1
v 1.19209e-07 0.9 1.4
v 1.19209e-07 0.9 1.3
v 1.19209e-07 0.9 0.4
v 1.19209e-07 0.9 0.3
v 1.19209e-07 0.9 0.2
v 1.19209e-07 0.9 0.1
v 1.19209e-07 0.9 0
v 1.19209e-07 1 0
v 1.19209e-07 1 -0.1
v 1.19209e-07 1.1 0.4
v 1.19209e-07 1.1 0.3
v 0.1 0.2 1.2
v 0.1 0.2 1.1
v 0.1 0.2 0.1
v 0.1 0.2 0
v 0.1 0.3 1.2
v 0.1 0.3 1.1
v 0.1 0.3 0.1
v 0.1 0.3 0
v 0.1 0.9 0.3
v 0.1 0.9 0.2
v 0.1 1 0.3
v 0.1 1 0.2
v 0.2 0 1.3
v 0.2 0 1.2
v 0.2 0 0
v 0.2 0 -0.1
v 0.2 0.2 1.3
v 0.2 0.2 1.2
v 0.2 0.2 0.9
v 0.2 0.2 0.8
v 0.2 0.2 0.4
v 0.2 0.2 0.3
v 0.2 0.2 0
v 0.2 0.2 -0.1
v 0.2 0.3 0.9
v 0.2 0.3 0.8
v 0.2 0.3 0.4
v 0.2 0.3 0.3
v 0.2 0.6 1.3
v 0.2 0.6 1.2
v 0.2 0.8 1.3
v 0.2 0.8 1.2
v 0.2 1 0.3
v 0.2 1 0.2
v 0.2 1.2 0.3
v 0.2 1.2 0.2
v 0.3 0 0.9
v 0.3 0 0.8
v 0.3 0 0.4
v 0.3 0 0.3
v 0.3 0.2 0.9
v 0.3 0.2 0.8
v 0.3 0.2 0.4
v 0.3 0.2 0.3
v 0.3 0.6 0.7
v 0.3 0.6 0.6
v 0.3 0.8 0.7
v 0.3 0.8 0.6
v 0.4 0.8 0.7
v 0.4 0.8 0.6
v 0.4 0.9 0.7
v 0.4 0.9 0.6
v -0.8 0.3 0.2
v -0.8 0.3 0.1
v -0.8 0.4 0.2
v -0.8 0.4 0.1
v -0.8 0.5 0.2
v -0.8 0.5 0.1
v -0.8 0.6 0.2
v -0.8 0.6 0.1
v -0.7 0.3 1.1
v -0.7 0.3 1
v -0.7 0.4 1.1
v -0.7 0.4 1
v -0.7 0.5 1.1
v -0.7 0.5 1
v -0.7 0.6 1.1
v -0.7 0.6 1
v -0.6 0.4 1.1
v -0.6 0.4 1
v -0.6 0.4 0.2
v -0.6 0.4 0.1
v -0.6 0.5 1.1
v -0.6 0.5 1
v -0.6 0.5 0.2
v -0.6 0.5 0.1
v -0.4 0 0
v -0.4 0 -0.1
v -0.4 0.2 0
v -0.4 0.2 -0.1
v -0.4 0.3 1.1
v -0.4 0.3 1
v -0.4 0.3 0.2
v -0.4 0.3 0.1
v -0.4 0.4 1.1
v -0.4 0.4 1
v -0.4 0.4 0.2
v -0.4 0.4 0.1
v -0.3 0.2 0.1
v -0.3 0.2 0
v -0.3 0.3 0.1
v -0.3 0.3 0
v -0.3 1 1.1
v -0.3 1 1
v -0.3 1.2 1.1
v -0.3 1.2 1
v -0.2 0 1.4
v -0.2 0 1.3
v -0.2 0.2 1.4
v -0.2 0.2 1.3
v -0.2 0.2 1.2
v -0.2 0.3 1.3
v -0.2 0.3 1.2
v -0.2 0.3 1.1
v -0.2 0.3 0.1
v -0.2 0.3 0
v -0.2 0.4 1.2
v -0.2 0.4 1.1
v -0.2 0.4 0.1
v -0.2 0.4 0
v -0.2 0.9 1.1
v -0.2 0.9 1
v -0.2 1 1.1
v -0.2 1 1
v -0.0999999 0.7 1
v -0.0999999 0.7 0.9
v -0.0999999 0.8 0.9
v -0.0999999 0.9 1
v -0.0999999 0.9 0.9
v -0.0999999 1 1.2
v -0.0999999 1 1.1
v -0.0999999 1.2 1.2
v -0.0999999 1.2 1.1
v 1.19209e-07 0 1.4
v 1.19209e-07 0 1.3
v 1.19209e-07 0 -0.1
v 1.19209e-07 0 -0.2
v 1.19209e-07 0.2 1.4
v 1.19209e-07 0.2 1.3
v 1.19209e-07 0.2 1.2
v 1.19209e-07 0.2 0
v 1.19209e-07 0.2 -0.1
v 1.19209e-07 0.2 -0.2
v 1.19209e-07 0.3 1.3
v 1.19209e-07 0.3 1.2
v 1.19209e-07 0.3 1.1
v 1.19209e-07 0.3 0.1
v 1.19209e-07 0.3 0
v 1.19209e-07 0.3 -0.1
v 1.19209e-07 0.4 1.2
v 1.19209e-07 0.4 1.1
v 1.19209e-07 0.4 0.1
v 1.19209e-07 0.4 0
v 1.19209e-07 1.1 0.4
v 1.19209e-07 1.1 0.3
v 1.19209e-07 1.3 0.4
v 1.19209e-07 1.3 0.3
v 0.1 0.2 1
v 0.1 0.2 0.2
v 0.1 0.3 1.1
v 0.1 0.3 1
v 0.1 0.3 0.3
v 0.1 0.3 0.2
v 0.1 0.3 0.1
v 0.1 0.4 1.2
v 0.1 0.4 1.1
v 0.1 0.5 1.2
v 0.1 0.5 1.1
v 0.1 0.6 1.3
v 0.1 0.6 1.2
v 0.1 0.6 1.1
v 0.1 0.6 1
v 0.1 0.6 0.9
v 0.1 0.6 0.2
v 0.1 0.6 0.1
v 0.1 0.7 1.5
v 0.1 0.7 1.3
v 0.1 0.7 1.2
v 0.1 0.7 1
v 0.1 0.7 0.9
v 0.1 0.7 0.3
v 0.1 0.7 0.2
v 0.1 0.8 1.5
v 0.1 0.8 1.4
v 0.1 0.8 0.9
v 0.1 0.8 0.3
v 0.1 0.8 0.2
v 0.1 0.8 0.1
v 0.1 0.8 -0.1
v 0.1 0.9 1.4
v 0.1 0.9 1.3
v 0.1 0.9 0.4
v 0.1 0.9 0.3
v 0.1 0.9 0.2
v 0.1 0.9 0.1
v 0.1 0.9 0
v 0.1 1 0.3
v 0.1 1 0
v 0.1 1 -0.1
v 0.1 1.1 0.4
v 0.1 1.1 0.3
v 0.2 0.2 1.2
v 0.2 0.2 1.1
v 0.2 0.2 0.1
v 0.2 0.2 0
v 0.2 0.3 1.2
v 0.2 0.3 1.1
v 0.2 0.3 1
v 0.2 0.3 0.9
v 0.2 0.3 0.8
v 0.2 0.3 0.4
v 0.2 0.3 0.3
v 0.2 0.3 0.1
v 0.2 0.3 0
v 0.2 0.5 1.3
v 0.2 0.5 1.2
v 0.2 0.5 0.7
v 0.2 0.5 0.6
v 0.2 0.6 1.3
v 0.2 0.6 1.2
v 0.2 0.6 1
v 0.2 0.6 0.9
v 0.2 0.6 0.7
v 0.2 0.6 0.6
v 0.2 0.7 0.9
v 0.2 0.7 0.3
v 0.2 0.9 0.3
v 0.2 0.9 0.2
v 0.2 1 0.3
v 0.2 1 0.2
v 0.3 0 1.3
v 0.3 0 1.2
v 0.3 0 0
v 0.3 0 -0.1
v 0.3 0.2 1.3
v 0.3 0.2 1.2
v 0.3 0.2 0.9
v 0.3 0.2 0.8
v 0.3 0.2 0.4
v 0.3 0.2 0.3
v 0.3 0.2 0
v 0.3 0.2 -0.1
v 0.3 0.3 0.9
v 0.3 0.3 0.8
v 0.3 0.3 0.4
v 0.3 0.3 0.3
v 0.3 0.5 0.7
v 0.3 0.5 0.6
v 0.3 0.6 1.3
v 0.3 0.6 1.2
v 0.3 0.6 0.7
v 0.3 0.6 0.6
v 0.3 0.8 1.3
v 0.3 0.8 1.2
v 0.3 1 0.3
v 0.3 1 0.2
v 0.3 1.2 0.3
v 0.3 1.2 0.2
v 0.4 0 0.9
v 0.4 0 0.8
v 0.4 0 0.4
v 0.4 0 0.3
v 0.4 0.2 0.9
v 0.4 0.2 0.8
v 0.4 0.2 0.4
v 0.4 0.2 0.3
v 0.4 0.6 0.7
v 0.4 0.6 0.6
v 0.4 0.8 0.7
v 0.4 0.8 0.6
v 0.5 0.8 0.7
v 0.5 0.8 0.6
v 0.5 0.9 0.7
v 0.5 0.9 0.6
v 1.19209e-07 0.7 1.5
v 1.19209e-07 0.8 1.5
v 0.1 0.7 1.5
v 0.1 0.8 1.5
v -0.3 0 1.4
v -0.3 0.2 1.4
v -0.2 0 1.4
v -0.2 0.2 1.4
v -0.0999999 0 1.4
v -0.0999999 0.2 1.4
v 1.19209e-07 0 1.4
v 1.19209e-07 0.2 1.4
v 1.19209e-07 0.8 1.4
v 1.19209e-07 0.9 1.4
v 0.1 0.8 1.4
v 0.1 0.9 1.4
v -0.3 0.2 1.3
v -0.3 0.3 1.3
v -0.2 0.2 1.3
v -0.2 0.3 1.3
v -0.0999999 0.2 1.3
v -0.0999999 0.3 1.3
v 1.19209e-07 0.2 1.3
v 1.19209e-07 0.3 1.3
v 1.19209e-07 0.5 1.3
v 1.19209e-07 0.7 1.3
v 0.1 0.6 1.3
v 0.1 0.7 1.3
v 0.2 0 1.3
v 0.2 0.2 1.3
v 0.2 0.5 1.3
v 0.2 0.6 1.3
v 0.2 0.8 1.3
v 0.3 0 1.3
v 0.3 0.2 1.3
v 0.3 0.6 1.3
v 0.3 0.8 1.3
v -0.3 0.3 1.2
v -0.3 0.4 1.2
v -0.2 0.3 1.2
v -0.2 0.4 1.2
v -0.2 1 1.2
v -0.2 1.2 1.2
v -0.0999999 0.3 1.2
v -0.0999999 0.4 1.2
v -0.0999999 1 1.2
v -0.0999999 1.2 1.2
v 1.19209e-07 0.3 1.2
v 1.19209e-07 0.4 1.2
v 1.19209e-07 0.5 1.2
v 0.1 0.2 1.2
v 0.1 0.3 1.2
v 0.1 0.4 1.2
v 0.1 0.5 1.2
v 0.2 0.2 1.2
v 0.2 0.3 1.2
v -0.9 0.3 1.1
v -0.9 0.4 1.1
v -0.9 0.5 1.1
v -0.9 0.6 1.1
v -0.7 0.3 1.1
v -0.7 0.4 1.1
v -0.7 0.5 1.1
v -0.7 0.6 1.1
v -0.6 0.3 1.1
v -0.6 0.4 1.1
v -0.6 0.5 1.1
v -0.5 0.4 1.1
v -0.5 0.5 1.1
v -0.4 0.3 1.1
v -0.4 0.4 1.1
v -0.4 1 1.1
v -0.4 1.2 1.1
v -0.3 0.4 1.1
v -0.3 0.5 1.1
v -0.3 0.6 1.1
v -0.3 0.9 1.1
v -0.3 1 1.1
v -0.3 1.2 1.1
v -0.2 0.3 1.1
v -0.2 0.4 1.1
v -0.2 0.9 1.1
v -0.2 1 1.1
v -0.0999999 0.3 1.1
v -0.0999999 0.4 1.1
v 1.19209e-07 0.3 1.1
v 1.19209e-07 0.4 1.1
v 1.19209e-07 0.5 1.1
v 0.1 0.3 1.1
v 0.1 0.4 1.1
v 0.1 0.5 1.1
v 0.1 0.6 1.1
v -0.4 0.3 1
v -0.4 0.4 1
v -0.4 0.5 1
v -0.4 0.6 1
v -0.3 0.2 1
v -0.3 0.3 1
v -0.3 0.4 1
v -0.3 0.5 1
v -0.3 0.6 1
v -0.3 0.7 1
v -0.2 0.7 1
v -0.2 0.9 1
v -0.0999999 0.7 1
v -0.0999999 0.9 1
v 0.1 0.2 1
v 0.1 0.3 1
v 0.1 0.6 1
v 0.1 0.7 1
v 0.2 0.3 1
v 0.2 0.6 1
v -0.4 0.2 0.9
v -0.4 0.3 0.9
v -0.4 0.6 0.9
v -0.4 0.7 0.9
v -0.3 0.2 0.9
v -0.3 0.3 0.9
v -0.3 0.6 0.9
v -0.3 0.7 0.9
v -0.3 0.8 0.9
v -0.2 0.7 0.9
v -0.2 0.8 0.9
v -0.0999999 0.7 0.9
v -0.0999999 0.8 0.9
v 0.1 0.6 0.9
v 0.1 0.7 0.9
v 0.1 0.8 0.9
v 0.2 0.2 0.9
v 0.2 0.3 0.9
v 0.2 0.6 0.9
v 0.2 0.7 0.9
v 0.3 0 0.9
v 0.3 0.2 0.9
v 0.3 0.3 0.9
v 0.4 0 0.9
v 0.4 0.2 0.9
v 0.2 0.5 0.7
v 0.2 0.6 0.7
v 0.3 0.5 0.7
v 0.3 0.6 0.7
v 0.3 0.8 0.7
v 0.4 0.6 0.7
v 0.4 0.8 0.7
v 0.4 0.9 0.7
v 0.5 0.8 0.7
v 0.5 0.9 0.7
v -0.0999999 1.1 0.4
v -0.0999999 1.3 0.4
v 1.19209e-07 0.9 0.4
v 1.19209e-07 1.1 0.4
v 1.19209e-07 1.3 0.4
v 0.1 0.9 0.4
v 0.1 1.1 0.4
v 0.2 0.2 0.4
v 0.2 0.3 0.4
v 0.3 0 0.4
v 0.3 0.2 0.4
v 0.3 0.3 0.4
v 0.4 0 0.4
v 0.4 0.2 0.4
v 1.19209e-07 0.8 0.3
v 1.19209e-07 0.9 0.3
v 0.1 0.8 0.3
v 0.1 0.9 0.3
v 0.1 1 0.3
v 0.2 0.9 0.3
v 0.2 1 0.3
v 0.2 1.2 0.3
v 0.3 1 0.3
v 0.3 1.2 0.3
v -1 0.3 0.2
v -1 0.4 0.2
v -1 0.5 0.2
v -1 0.6 0.2
v -0.8 0.3 0.2
v -0.8 0.4 0.2
v -0.8 0.5 0.2
v -0.8 0.6 0.2
v -0.7 0.4 0.2
v -0.7 0.5 0.2
v -0.6 0.3 0.2
v -0.6 0.4 0.2
v -0.6 0.5 0.2
v -0.4 0.3 0.2
v -0.4 0.4 0.2
v -0.4 0.2 0.1
v -0.4 0.3 0.1
v -0.3 0.2 0.1
v -0.3 0.3 0.1
v 1.19209e-07 0.8 0.1
v 1.19209e-07 0.9 0.1
v 0.1 0.2 0.1
v 0.1 0.3 0.1
v 0.1 0.8 0.1
v 0.1 0.9 0.1
v 0.2 0.2 0.1
v 0.2 0.3 0.1
v -0.5 0 0
v -0.5 0.2 0
v -0.4 0 0
v -0.4 0.2 0
v -0.0999999 0.2 0
v -0.0999999 0.3 0
v 1.19209e-07 0.2 0
v 1.19209e-07 0.3 0
v 1.19209e-07 0.9 0
v 1.19209e-07 1 0
v 0.1 0.9 0
v 0.1 1 0
v 0.2 0 0
v 0.2 0.2 0
v 0.3 0 0
v 0.3 0.2 0
v -0.0999999 0 -0.1
v -0.0999999 0.2 -0.1
v 1.19209e-07 0 -0.1
v 1.19209e-07 0.2 -0.1
v -0.3 0 1.3
v -0.3 0.2 1.3
v -0.2 0 1.3
v -0.2 0.2 1.3
v -0.0999999 0 1.3
v -0.0999999 0.2 1.3
v 1.19209e-07 0 1.3
v 1.19209e-07 0.2 1.3
v 1.19209e-07 0.7 1.3
v 1.19209e-07 0.9 1.3
v 0.1 0.7 1.3
v 0.1 0.9 1.3
v -0.3 0.2 1.2
v -0.3 0.3 1.2
v -0.2 0.2 1.2
v -0.2 0.3 1.2
v -0.0999999 0.2 1.2
v -0.0999999 0.3 1.2
v 1.19209e-07 0.2 1.2
v 1.19209e-07 0.3 1.2
v 1.19209e-07 0.5 1.2
v 1.19209e-07 0.7 1.2
v 0.1 0.5 1.2
v 0.1 0.6 1.2
v 0.1 0.7 1.2
v 0.2 0 1.2
v 0.2 0.2 1.2
v 0.2 0.5 1.2
v 0.2 0.6 1.2
v 0.2 0.8 1.2
v 0.3 0 1.2
v 0.3 0.2 1.2
v 0.3 0.6 1.2
v 0.3 0.8 1.2
v -0.2 1 1.1
v -0.2 1.2 1.1
v -0.0999999 1 1.1
v -0.0999999 1.2 1.1
v 0.1 0.2 1.1
v 0.1 0.3 1.1
v 0.2 0.2 1.1
v 0.2 0.3 1.1
v -0.9 0.3 1
v -0.9 0.4 1
v -0.9 0.5 1
v -0.9 0.6 1
v -0.7 0.3 1
v -0.7 0.4 1
v -0.7 0.5 1
v -0.7 0.6 1
v -0.6 0.3 1
v -0.6 0.4 1
v -0.6 0.5 1
v -0.5 0.4 1
v -0.5 0.5 1
v -0.4 0.3 1
v -0.4 0.5 1
v -0.4 1 1
v -0.4 1.2 1
v -0.3 0.9 1
v -0.3 1 1
v -0.3 1.2 1
v -0.2 0.9 1
v -0.2 1 1
v -0.2 0.8 0.9
v -0.2 0.9 0.9
v -0.0999999 0.8 0.9
v -0.0999999 0.9 0.9
v 0.2 0.2 0.8
v 0.2 0.3 0.8
v 0.3 0 0.8
v 0.3 0.2 0.8
v 0.3 0.3 0.8
v 0.4 0 0.8
v 0.4 0.2 0.8
v 0.2 0.5 0.6
v 0.2 0.6 0.6
v 0.3 0.5 0.6
v 0.3 0.6 0.6
v 0.3 0.8 0.6
v 0.4 0.6 0.6
v 0.4 0.8 0.6
v 0.4 0.9 0.6
v 0.5 0.8 0.6
v 0.5 0.9 0.6
v -0.4 0.2 0.3
v -0.4 0.3 0.3
v -0.4 0.6 0.3
v -0.4 0.7 0.3
v -0.3 0.2 0.3
v -0.3 0.3 0.3
v -0.3 0.6 0.3
v -0.3 0.7 0.3
v -0.3 0.8 0.3
v -0.0999999 1.1 0.3
v -0.0999999 1.3 0.3
v 1.19209e-07 0.7 0.3
v 1.19209e-07 0.8 0.3
v 1.19209e-07 0.9 0.3
v 1.19209e-07 1.1 0.3
v 1.19209e-07 1.3 0.3
v 0.1 0.3 0.3
v 0.1 0.7 0.3
v 0.1 0.9 0.3
v 0.1 1 0.3
v 0.1 1.1 0.3
v 0.2 0.2 0.3
v 0.2 0.3 0.3
v 0.2 0.7 0.3
v 0.3 0 0.3
v 0.3 0.2 0.3
v 0.3 0.3 0.3
v 0.4 0 0.3
v 0.4 0.2 0.3
v -0.4 0.3 0.2
v -0.4 0.4 0.2
v -0.4 0.5 0.2
v -0.4 0.6 0.2
v -0.3 0.2 0.2
v -0.3 0.3 0.2
v -0.3 0.4 0.2
v -0.3 0.5 0.2
v -0.3 0.6 0.2
v -0.3 0.7 0.2
v 1.19209e-07 0.6 0.2
v 1.19209e-07 0.7 0.2
v 1.19209e-07 0.8 0.2
v 1.19209e-07 0.9 0.2
v 0.1 0.2 0.2
v 0.1 0.3 0.2
v 0.1 0.8 0.2
v 0.1 0.9 0.2
v 0.1 1 0.2
v 0.2 0.9 0.2
v 0.2 1 0.2
v 0.2 1.2 0.2
v 0.3 1 0.2
v 0.3 1.2 0.2
v -1 0.3 0.1
v -1 0.4 0.1
v -1 0.5 0.1
v -1 0.6 0.1
v -0.8 0.3 0.1
v -0.8 0.4 0.1
v -0.8 0.5 0.1
v -0.8 0.6 0.1
v -0.7 0.4 0.1
v -0.7 0.5 0.1
v -0.6 0.3 0.1
v -0.6 0.4 0.1
v -0.6 0.5 0.1
v -0.4 0.3 0.1
v -0.4 0.4 0.1
v -0.4 0.5 0.1
v -0.3 0.4 0.1
v -0.3 0.5 0.1
v -0.3 0.6 0.1
v -0.2 0.3 0.1
v -0.2 0.4 0.1
v -0.0999999 0.3 0.1
v -0.0999999 0.4 0.1
v 1.19209e-07 0.3 0.1
v 1.19209e-07 0.4 0.1
v 1.19209e-07 0.6 0.1
v 1.19209e-07 0.8 0.1
v 0.1 0.3 0.1
v 0.1 0.6 0.1
v 0.1 0.8 0.1
v -0.4 0.2 0
v -0.4 0.3 0
v -0.3 0.2 0
v -0.3 0.3 0
v -0.3 0.4 0
v -0.2 0.3 0
v -0.2 0.4 0
v -0.0999999 0.3 0
v -0.0999999 0.4 0
v 1.19209e-07 0.3 0
v 1.19209e-07 0.4 0
v 0.1 0.2 0
v 0.1 0.3 0
v 0.2 0.2 0
v 0.2 0.3 0
v -0.5 0 -0.1
v -0.5 0.2 -0.1
v -0.4 0 -0.1
v -0.4 0.2 -0.1
v -0.0999999 0.2 -0.1
v -0.0999999 0.3 -0.1
v 1.19209e-07 0.2 -0.1
v 1.19209e-07 0.3 -0.1
v 1.19209e-07 0.8 -0.1
v 1.19209e-07 1 -0.1
v 0.1 0.8 -0.1
v 0.1 1 -0.1
v 0.2 0 -0.1
v 0.2 0.2 -0.1
v 0.3 0 -0.1
v 0.3 0.2 -0.1
v -0.0999999 0 -0.2
v -0.0999999 0.2 -0.2
v 1.19209e-07 0 -0.2
v 1.19209e-07 0.2 -0.2
v -0.3 0 1.4
v -0.2 0 1.4
v -0.0999999 0 1.4
v 1.19209e-07 0 1.4
v -0.3 0 1.3
v -0.2 0 1.3
v -0.0999999 0 1.3
v 1.19209e-07 0 1.3
v 0.2 0 1.3
v 0.3 0 1.3
v 0.2 0 1.2
v 0.3 0 1.2
v 0.3 0 0.9
v 0.4 0 0.9
v 0.3 0 0.8
v 0.4 0 0.8
v 0.3 0 0.4
v 0.4 0 0.4
v 0.3 0 0.3
v 0.4 0 0.3
v -0.5 0 0
v -0.4 0 0
v 0.2 0 0
v 0.3 0 0
v -0.5 0 -0.1
v -0.4 0 -0.1
v -0.0999999 0 -0.1
v 1.19209e-07 0 -0.1
v 0.2 0 -0.1
v 0.3 0 -0.1
v -0.0999999 0 -0.2
v 1.19209e-07 0 -0.2
v -0.3 0.2 1.3
v -0.2 0.2 1.3
v -0.0999999 0.2 1.3
v 1.19209e-07 0.2 1.3
v -0.3 0.2 1.2
v -0.2 0.2 1.2
v -0.0999999 0.2 1.2
v 1.19209e-07 0.2 1.2
v 0.1 0.2 1.2
v 0.2 0.2 1.2
v 0.1 0.2 1.1
v 0.2 0.2 1.1
v -0.3 0.2 1
v 0.1 0.2 1
v -0.4 0.2 0.9
v -0.3 0.2 0.9
v 0.2 0.2 0.9
v 0.3 0.2 0.9
v 0.2 0.2 0.8
v 0.3 0.2 0.8
v 0.2 0.2 0.4
v 0.3 0.2 0.4
v -0.4 0.2 0.3
v -0.3 0.2 0.3
v 0.2 0.2 0.3
v 0.3 0.2 0.3
v -0.3 0.2 0.2
v 0.1 0.2 0.2
v -0.4 0.2 0.1
v -0.3 0.2 0.1
v 0.1 0.2 0.1
v 0.2 0.2 0.1
v -0.4 0.2 0
v -0.3 0.2 0
v -0.0999999 0.2 0
v 1.19209e-07 0.2 0
v 0.1 0.2 0
v 0.2 0.2 0
v -0.0999999 0.2 -0.1
v 1.19209e-07 0.2 -0.1
v -0.3 0.3 1.2
v -0.2 0.3 1.2
v -0.0999999 0.3 1.2
v 1.19209e-07 0.3 1.2
v -0.9 0.3 1.1
v -0.7 0.3 1.1
v -0.6 0.3 1.1
v -0.4 0.3 1.1
v -0.2 0.3 1.1
v -0.0999999 0.3 1.1
v 1.19209e-07 0.3 1.1
v 0.1 0.3 1.1
v -0.9 0.3 1
v -0.7 0.3 1
v -0.6 0.3 1
v -0.4 0.3 1
v -0.3 0.3 1
v 0.1 0.3 1
v 0.2 0.3 1
v -0.4 0.3 0.9
v -0.3 0.3 0.9
v 0.2 0.3 0.9
v 0.2 0.3 0.8
v 0.2 0.3 0.4
v -0.4 0.3 0.3
v -0.3 0.3 0.3
v 0.1 0.3 0.3
v 0.2 0.3 0.3
v -1 0.3 0.2
v -0.8 0.3 0.2
v -0.6 0.3 0.2
v -0.4 0.3 0.2
v -0.3 0.3 0.2
v 0.1 0.3 0.2
v -1 0.3 0.1
v -0.8 0.3 0.1
v -0.6 0.3 0.1
v -0.4 0.3 0.1
v -0.3 0.3 0.1
v -0.2 0.3 0.1
v -0.0999999 0.3 0.1
v 1.19209e-07 0.3 0.1
v 0.1 0.3 0.1
v -0.3 0.3 0
v -0.2 0.3 0
v -0.0999999 0.3 0
v 1.19209e-07 0.3 0
v 1.19209e-07 0.4 1.2
v 0.1 0.4 1.2
v -0.7 0.4 1.1
v -0.6 0.4 1.1
v -0.4 0.4 1.1
v -0.3 0.4 1.1
v 1.19209e-07 0.4 1.1
v 0.1 0.4 1.1
v -0.7 0.4 1
v -0.6 0.4 1
v -0.4 0.4 1
v -0.3 0.4 1
v -0.8 0.4 0.2
v -0.7 0.4 0.2
v -0.6 0.4 0.2
v -0.4 0.4 0.2
v -0.3 0.4 0.2
v -0.8 0.4 0.1
v -0.7 0.4 0.1
v -0.6 0.4 0.1
v -0.4 0.4 0.1
v -0.3 0.4 0.1
v 1.19209e-07 0.5 1.3
v 0.2 0.5 1.3
v 1.19209e-07 0.5 1.2
v 0.1 0.5 1.2
v 0.2 0.5 1.2
v -0.9 0.5 1.1
v -0.7 0.5 1.1
v -0.9 0.5 1
v -0.7 0.5 1
v 0.2 0.5 0.7
v 0.3 0.5 0.7
v 0.2 0.5 0.6
v 0.3 0.5 0.6
v -1 0.5 0.2
v -0.8 0.5 0.2
v -1 0.5 0.1
v -0.8 0.5 0.1
v 0.2 0.6 1.3
v 0.3 0.6 1.3
v 0.2 0.6 1.2
v 0.3 0.6 1.2
v 0.3 0.6 0.7
v 0.4 0.6 0.7
v 0.3 0.6 0.6
v 0.4 0.6 0.6
v 1.19209e-07 0.7 1.5
v 0.1 0.7 1.5
v 1.19209e-07 0.7 1.3
v 0.1 0.7 1.3
v 0.4 0.8 0.7
v 0.5 0.8 0.7
v 0.4 0.8 0.6
v 0.5 0.8 0.6
v 1.19209e-07 0.8 0.1
v 0.1 0.8 0.1
v 1.19209e-07 0.8 -0.1
v 0.1 0.8 -0.1
v -0.3 0.9 1.1
v -0.2 0.9 1.1
v -0.3 0.9 1
v -0.2 0.9 1
v 1.19209e-07 0.9 0.4
v 0.1 0.9 0.4
v 1.19209e-07 0.9 0.3
v 0.1 0.9 0.3
v 0.2 0.9 0.3
v 0.1 0.9 0.2
v 0.2 0.9 0.2
v -0.2 1 1.2
v -0.0999999 1 1.2
v -0.4 1 1.1
v -0.3 1 1.1
v -0.2 1 1.1
v -0.0999999 1 1.1
v -0.4 1 1
v -0.3 1 1
v 0.2 1 0.3
v 0.3 1 0.3
v 0.2 1 0.2
v 0.3 1 0.2
v -0.0999999 1.1 0.4
v 1.19209e-07 1.1 0.4
v -0.0999999 1.1 0.3
v 1.19209e-07 1.1 0.3
v -0.3 0.2 1.4
v -0.2 0.2 1.4
v -0.0999999 0.2 1.4
v 1.19209e-07 0.2 1.4
v -0.3 0.2 1.3
v -0.2 0.2 1.3
v -0.0999999 0.2 1.3
v 1.19209e-07 0.2 1.3
v 0.2 0.2 1.3
v 0.3 0.2 1.3
v 0.2 0.2 1.2
v 0.3 0.2 1.2
v 0.3 0.2 0.9
v 0.4 0.2 0.9
v 0.3 0.2 0.8
v 0.4 0.2 0.8
v 0.3 0.2 0.4
v 0.4 0.2 0.4
v 0.3 0.2 0.3
v 0.4 0.2 0.3
v -0.5 0.2 0
v -0.4 0.2 0
v 0.2 0.2 0
v 0.3 0.2 0
v -0.5 0.2 -0.1
v -0.4 0.2 -0.1
v -0.0999999 0.2 -0.1
v 1.19209e-07 0.2 -0.1
v 0.2 0.2 -0.1
v 0.3 0.2 -0.1
v -0.0999999 0.2 -0.2
v 1.19209e-07 0.2 -0.2
v -0.3 0.3 1.3
v -0.2 0.3 1.3
v -0.0999999 0.3 1.3
v 1.19209e-07 0.3 1.3
v -0.3 0.3 1.2
v -0.2 0.3 1.2
v -0.0999999 0.3 1.2
v 1.19209e-07 0.3 1.2
v 0.1 0.3 1.2
v 0.2 0.3 1.2
v 0.1 0.3 1.1
v 0.2 0.3 1.1
v 0.2 0.3 0.9
v 0.3 0.3 0.9
v 0.2 0.3 0.8
v 0.3 0.3 0.8
v 0.2 0.3 0.4
v 0.3 0.3 0.4
v 0.2 0.3 0.3
v 0.3 0.3 0.3
v -0.4 0.3 0.1
v -0.3 0.3 0.1
v 0.1 0.3 0.1
v 0.2 0.3 0.1
v -0.4 0.3 0
v -0.3 0.3 0
v -0.0999999 0.3 0
v 1.19209e-07 0.3 0
v 0.1 0.3 0
v 0.2 0.3 0
v -0.0999999 0.3 -0.1
v 1.19209e-07 0.3 -0.1
v -0.3 0.4 1.2
v -0.2 0.4 1.2
v -0.0999999 0.4 1.2
v 1.19209e-07 0.4 1.2
v -0.9 0.4 1.1
v -0.7 0.4 1.1
v -0.6 0.4 1.1
v -0.5 0.4 1.1
v -0.3 0.4 1.1
v -0.2 0.4 1.1
v -0.0999999 0.4 1.1
v 1.19209e-07 0.4 1.1
v -0.9 0.4 1
v -0.7 0.4 1
v -0.6 0.4 1
v -0.5 0.4 1
v -1 0.4 0.2
v -0.8 0.4 0.2
v -0.6 0.4 0.2
v -0.4 0.4 0.2
v -1 0.4 0.1
v -0.8 0.4 0.1
v -0.6 0.4 0.1
v -0.4 0.4 0.1
v -0.3 0.4 0.1
v -0.2 0.4 0.1
v -0.0999999 0.4 0.1
v 1.19209e-07 0.4 0.1
v -0.3 0.4 0
v -0.2 0.4 0
v -0.0999999 0.4 0
v 1.19209e-07 0.4 0
v 1.19209e-07 0.5 1.2
v 0.1 0.5 1.2
v -0.7 0.5 1.1
v -0.6 0.5 1.1
v -0.5 0.5 1.1
v -0.3 0.5 1.1
v 1.19209e-07 0.5 1.1
v 0.1 0.5 1.1
v -0.7 0.5 1
v -0.6 0.5 1
v -0.5 0.5 1
v -0.4 0.5 1
v -0.3 0.5 1
v -0.8 0.5 0.2
v -0.7 0.5 0.2
v -0.6 0.5 0.2
v -0.4 0.5 0.2
v -0.3 0.5 0.2
v -0.8 0.5 0.1
v -0.7 0.5 0.1
v -0.6 0.5 0.1
v -0.4 0.5 0.1
v -0.3 0.5 0.1
v 0.1 0.6 1.3
v 0.2 0.6 1.3
v 0.1 0.6 1.2
v 0.2 0.6 1.2
v -0.9 0.6 1.1
v -0.7 0.6 1.1
v -0.3 0.6 1.1
v 0.1 0.6 1.1
v -0.9 0.6 1
v -0.7 0.6 1
v -0.4 0.6 1
v -0.3 0.6 1
v 0.1 0.6 1
v 0.2 0.6 1
v -0.4 0.6 0.9
v -0.3 0.6 0.9
v 0.1 0.6 0.9
v 0.2 0.6 0.9
v 0.2 0.6 0.7
v 0.3 0.6 0.7
v 0.2 0.6 0.6
v 0.3 0.6 0.6
v -0.4 0.6 0.3
v -0.3 0.6 0.3
v -1 0.6 0.2
v -0.8 0.6 0.2
v -0.4 0.6 0.2
v -0.3 0.6 0.2
v 1.19209e-07 0.6 0.2
v -1 0.6 0.1
v -0.8 0.6 0.1
v -0.3 0.6 0.1
v 1.19209e-07 0.6 0.1
v 1.19209e-07 0.7 1.3
v 0.1 0.7 1.3
v 1.19209e-07 0.7 1.2
v 0.1 0.7 1.2
v -0.3 0.7 1
v -0.2 0.7 1
v -0.0999999 0.7 1
v 0.1 0.7 1
v -0.4 0.7 0.9
v -0.3 0.7 0.9
v -0.2 0.7 0.9
v -0.0999999 0.7 0.9
v 0.1 0.7 0.9
v 0.2 0.7 0.9
v -0.4 0.7 0.8
v -0.3 0.7 0.8
v -0.4 0.7 0.7
v -0.3 0.7 0.7
v -0.4 0.7 0.5
v -0.3 0.7 0.5
v -0.4 0.7 0.4
v -0.3 0.7 0.4
v -0.4 0.7 0.3
v -0.3 0.7 0.3
v 1.19209e-07 0.7 0.3
v 0.1 0.7 0.3
v 0.2 0.7 0.3
v -0.3 0.7 0.2
v 1.19209e-07 0.7 0.2
v 1.19209e-07 0.8 1.5
v 0.1 0.8 1.5
v 1.19209e-07 0.8 1.4
v 0.1 0.8 1.4
v 0.2 0.8 1.3
v 0.3 0.8 1.3
v 0.2 0.8 1.2
v 0.3 0.8 1.2
v -0.3 0.8 0.9
v -0.2 0.8 0.9
v -0.0999999 0.8 0.9
v 0.1 0.8 0.9
v 0.3 0.8 0.7
v 0.4 0.8 0.7
v 0.3 0.8 0.6
v 0.4 0.8 0.6
v -0.3 0.8 0.3
v 1.19209e-07 0.8 0.3
v 0.1 0.8 0.3
v 1.19209e-07 0.8 0.2
v 0.1 0.8 0.2
v 1.19209e-07 0.8 0.1
v 0.1 0.8 0.1
v 1.19209e-07 0.9 1.4
v 0.1 0.9 1.4
v 1.19209e-07 0.9 1.3
v 0.1 0.9 1.3
v -0.2 0.9 1
v -0.0999999 0.9 1
v -0.2 0.9 0.9
v -0.0999999 0.9 0.9
v 0.4 0.9 0.7
v 0.5 0.9 0.7
v 0.4 0.9 0.6
v 0.5 0.9 0.6
v 1.19209e-07 0.9 0.3
v 0.1 0.9 0.3
v 1.19209e-07 0.9 0.2
v 0.1 0.9 0.2
v 1.19209e-07 0.9 0.1
v 0.1 0.9 0.1
v 1.19209e-07 0.9 0
v 0.1 0.9 0
v -0.3 1 1.1
v -0.2 1 1.1
v -0.3 1 1
v -0.2 1 1
v 0.1 1 0.3
v 0.2 1 0.3
v 0.1 1 0.2
v 0.2 1 0.2
v 1.19209e-07 1 0
v 0.1 1 0
v 1.19209e-07 1 -0.1
v 0.1 1 -0.1
v 1.19209e-07 1.1 0.4
v 0.1 1.1 0.4
v 1.19209e-07 1.1 0.3
v 0.1 1.1 0.3
v -0.2 1.2 1.2
v -0.0999999 1.2 1.2
v -0.4 1.2 1.1
v -0.3 1.2 1.1
v -0.2 1.2 1.1
v -0.0999999 1.2 1.1
v -0.4 1.2 1
v -0.3 1.2 1
v 0.2 1.2 0.3
v 0.3 1.2 0.3
v 0.2 1.2 0.2
v 0.3 1.2 0.2
v -0.0999999 1.3 0.4
v 1.19209e-07 1.3 0.4
v -0.0999999 1.3 0.3
v 1.19209e-07 1.3 0.3

# faces
f 3/3/1 2/3/1 1/3/1
f 4/3/1 2/3/1 3/3/1
f 7/3/1 6/3/1 5/3/1
f 8/3/1 6/3/1 7/3/1
f 11/3/1 10/3/1 9/3/1
f 12/3/1 10/3/1 11/3/1
f 15/3/1 14/3/1 13/3/1
f 16/3/1 14/3/1 15/3/1
f 19/3/1 18/3/1 17/3/1
f 20/3/1 18/3/1 19/3/1
f 23/1/1 22/1/1 21/1/1
f 24/1/1 22/1/1 23/1/1
f 29/1/1 26/1/1 25/1/1
f 30/1/1 26/1/1 29/1/1
f 31/1/1 28/1/1 27/1/1
f 32/1/1 28/1/1 31/1/1
f 35/3/1 34/3/1 33/3/1
f 36/3/1 34/3/1 35/3/1
f 39/1/1 38/1/1 37/1/1
f 40/1/1 38/1/1 39/1/1
f 46/1/1 42/1/1 41/1/1
f 47/1/1 42/1/1 46/1/1
f 49/1/1 44/1/1 43/1/1
f 50/1/1 44/1/1 49/1/1
f 51/1/1 48/1/1 47/1/1
f 51/1/1 46/1/1 45/1/1
f 51/1/1 47/1/1 46/1/1
f 53/1/1 51/1/1 45/1/1
f 53/1/1 52/1/1 51/1/1
f 54/1/1 52/1/1 53/1/1
f 55/1/1 52/1/1 54/1/1
f 56/1/1 52/1/1 55/1/1
f 57/1/1 52/1/1 56/1/1
f 58/1/1 52/1/1 57/1/1
f 59/1/1 52/1/1 58/1/1
f 60/1/1 54/1/1 53/1/1
f 61/1/1 54/1/1 60/1/1
f 62/1/1 58/1/1 57/1/1
f 63/1/1 58/1/1 62/1/1
f 64/1/1 54/1/1 61/1/1
f 65/2/1 55/2/1 54/2/1
f 65/1/1 54/1/1 64/1/1
f 66/1/1 56/1/1 55/1/1
f 66/2/1 55/2/1 65/2/1
f 67/2/1 57/2/1 56/2/1
f 67/1/1 56/1/1 66/1/1
f 68/1/1 62/1/1 57/1/1
f 68/2/1 57/2/1 67/2/1
f 69/1/1 62/1/1 68/1/1
f 72/5/1 71/5/1 70/5/1
f 73/5/1 71/5/1 72/5/1
f 76/3/1 75/3/1 74/3/1
f 77/3/1 75/3/1 76/3/1
f 83/1/1 78/1/1 77/1/1
f 84/1/1 78/1/1 83/1/1
f 85/1/1 80/1/1 79/1/1
f 86/1/1 80/1/1 85/1/1
f 87/1/1 82/1/1 81/1/1
f 88/1/1 82/1/1 87/1/1
f 91/1/1 85/1/1 84/1/1
f 92/1/1 85/1/1 91/1/1
f 93/1/1 85/1/1 92/1/1
f 94/1/1 90/1/1 89/1/1
f 94/1/1 89/1/1 88/1/1
f 95/1/1 90/1/1 94/1/1
f 96/1/1 90/1/1 95/1/1
f 101/1/1 98/1/1 97/1/1
f 102/1/1 98/1/1 101/1/1
f 105/1/1 100/1/1 99/1/1
f 106/1/1 100/1/1 105/1/1
f 107/1/1 103/1/1 102/1/1
f 108/1/1 103/1/1 107/1/1
f 113/1/1 105/1/1 104/1/1
f 114/1/1 105/1/1 113/1/1
f 115/1/1 112/1/1 111/1/1
f 115/1/1 113/1/1 112/1/1
f 115/1/1 109/1/1 108/1/1
f 115/1/1 111/1/1 110/1/1
f 115/1/1 110/1/1 109/1/1
f 116/1/1 113/1/1 115/1/1
f 119/5/1 118/5/1 117/5/1
f 120/5/1 118/5/1 119/5/1
f 123/5/1 122/5/1 121/5/1
f 124/5/1 123/5/1 121/5/1
f 125/5/1 123/5/1 124/5/1
f 128/5/1 127/5/1 126/5/1
f 129/5/1 127/5/1 128/5/1
f 134/3/1 131/3/1 130/3/1
f 135/3/1 131/3/1 134/3/1
f 138/3/1 133/3/1 132/3/1
f 139/3/1 133/3/1 138/3/1
f 140/1/1 136/1/1 135/1/1
f 141/1/1 136/1/1 140/1/1
f 144/1/1 138/1/1 137/1/1
f 145/1/1 138/1/1 144/1/1
f 146/1/1 142/1/1 141/1/1
f 147/1/1 142/1/1 146/1/1
f 148/1/1 144/1/1 143/1/1
f 149/1/1 144/1/1 148/1/1
f 152/4/1 151/4/1 150/4/1
f 153/4/1 151/4/1 152/4/1
f 157/4/1 155/4/1 154/4/1
f 158/4/1 155/4/1 157/4/1
f 162/4/1 157/4/1 156/4/1
f 163/4/1 157/4/1 162/4/1
f 165/4/1 160/4/1 159/4/1
f 166/4/1 162/4/1 161/4/1
f 167/4/1 162/4/1 166/4/1
f 168/4/1 165/4/1 164/4/1
f 169/4/1 160/4/1 165/4/1
f 169/4/1 165/4/1 168/4/1
f 170/4/1 160/4/1 169/4/1
f 172/4/1 162/4/1 167/4/1
f 173/4/1 162/4/1 172/4/1
f 175/4/1 169/4/1 168/4/1
f 176/4/1 169/4/1 175/4/1
f 177/4/1 171/4/1 170/4/1
f 178/4/1 171/4/1 177/4/1
f 179/4/1 171/4/1 178/4/1
f 180/4/1 171/4/1 179/4/1
f 181/4/1 175/4/1 174/4/1
f 182/4/1 175/4/1 181/4/1
f 187/1/1 184/1/1 183/1/1
f 188/1/1 184/1/1 187/1/1
f 189/1/1 186/1/1 185/1/1
f 190/1/1 186/1/1 189/1/1
f 193/4/1 192/4/1 191/4/1
f 194/4/1 192/4/1 193/4/1
f 199/3/1 196/3/1 195/3/1
f 200/3/1 196/3/1 199/3/1
f 205/3/1 198/3/1 197/3/1
f 206/3/1 198/3/1 205/3/1
f 207/1/1 202/1/1 201/1/1
f 208/1/1 202/1/1 207/1/1
f 209/1/1 204/1/1 203/1/1
f 210/1/1 204/1/1 209/1/1
f 213/4/1 212/4/1 211/4/1
f 214/4/1 212/4/1 213/4/1
f 217/4/1 216/4/1 215/4/1
f 218/4/1 216/4/1 217/4/1
f 223/3/1 220/3/1 219/3/1
f 224/3/1 220/3/1 223/3/1
f 225/3/1 222/3/1 221/3/1
f 226/3/1 222/3/1 225/3/1
f 229/5/1 228/5/1 227/5/1
f 230/5/1 228/5/1 229/5/1
f 233/5/1 232/5/1 231/5/1
f 234/5/1 232/5/1 233/5/1
f 235/3/2 236/3/2 237/3/2
f 237/3/2 236/3/2 238/3/2
f 239/3/2 240/3/2 241/3/2
f 241/3/2 240/3/2 242/3/2
f 243/3/2 244/3/2 245/3/2
f 245/3/2 244/3/2 246/3/2
f 247/3/2 248/3/2 249/3/2
f 249/3/2 248/3/2 250/3/2
f 251/1/2 252/1/2 255/1/2
f 255/1/2 252/1/2 256/1/2
f 253/1/2 254/1/2 257/1/2
f 257/1/2 254/1/2 258/1/2
f 259/3/2 260/3/2 261/3/2
f 261/3/2 260/3/2 262/3/2
f 263/1/2 264/1/2 267/1/2
f 267/1/2 264/1/2 268/1/2
f 265/1/2 266/1/2 269/1/2
f 269/1/2 266/1/2 270/1/2
f 271/1/2 272/1/2 273/1/2
f 273/1/2 272/1/2 274/1/2
f 275/5/2 276/5/2 277/5/2
f 277/5/2 276/5/2 278/5/2
f 279/3/2 280/3/2 281/3/2
f 281/3/2 280/3/2 282/3/2
f 282/1/2 283/1/2 284/1/2
f 284/1/2 283/1/2 285/1/2
f 285/1/2 286/1/2 289/1/2
f 289/1/2 286/1/2 290/1/2
f 287/1/2 288/1/2 291/1/2
f 291/1/2 288/1/2 292/1/2
f 293/5/2 294/5/2 295/5/2
f 295/5/2 294/5/2 296/5/2
f 297/5/2 298/5/2 299/5/2
f 297/5/2 299/5/2 300/5/2
f 300/5/2 299/5/2 301/5/2
f 302/5/2 303/5/2 304/5/2
f 304/5/2 303/5/2 305/5/2
f 306/3/2 307/3/2 310/3/2
f 310/3/2 307/3/2 311/3/2
f 308/3/2 309/3/2 314/3/2
f 314/3/2 309/3/2 315/3/2
f 311/1/2 312/1/2 316/1/2
f 316/1/2 312/1/2 317/1/2
f 313/1/2 314/1/2 320/1/2
f 320/1/2 314/1/2 321/1/2
f 317/1/2 318/1/2 322/1/2
f 322/1/2 318/1/2 323/1/2
f 319/1/2 320/1/2 324/1/2
f 324/1/2 320/1/2 325/1/2
f 326/4/2 327/4/2 328/4/2
f 328/4/2 327/4/2 329/4/2
f 330/1/2 331/1/2 333/1/2
f 333/1/2 331/1/2 334/1/2
f 334/1/2 331/1/2 335/1/2
f 332/1/2 333/1/2 338/1/2
f 337/4/2 338/4/2 339/4/2
f 338/1/2 333/1/2 340/1/2
f 339/4/2 338/4/2 340/4/2
f 340/1/2 333/1/2 343/1/2
f 343/1/2 333/1/2 344/1/2
f 334/1/2 335/1/2 346/1/2
f 335/1/2 336/1/2 346/1/2
f 346/1/2 336/1/2 347/1/2
f 341/4/2 342/4/2 349/4/2
f 349/4/2 342/4/2 350/4/2
f 344/1/2 345/1/2 351/1/2
f 351/1/2 345/1/2 352/1/2
f 334/1/2 346/1/2 353/1/2
f 346/4/2 347/4/2 354/4/2
f 353/1/2 346/1/2 354/1/2
f 348/4/2 349/4/2 355/4/2
f 355/4/2 349/4/2 356/4/2
f 352/1/2 353/1/2 357/1/2
f 353/4/2 354/4/2 358/4/2
f 357/1/2 353/1/2 358/1/2
f 354/4/2 347/4/2 359/4/2
f 358/4/2 354/4/2 359/4/2
f 359/4/2 347/4/2 360/4/2
f 356/4/2 349/4/2 362/4/2
f 362/4/2 349/4/2 363/4/2
f 358/4/2 359/4/2 365/4/2
f 365/4/2 359/4/2 366/4/2
f 360/4/2 361/4/2 367/4/2
f 367/4/2 361/4/2 368/4/2
f 364/4/2 365/4/2 369/4/2
f 368/4/2 361/4/2 370/4/2
f 370/4/2 361/4/2 371/4/2
f 364/4/2 369/4/2 372/4/2
f 372/4/2 369/4/2 373/4/2
f 374/1/2 375/1/2 378/1/2
f 378/1/2 375/1/2 379/1/2
f 376/1/2 377/1/2 385/1/2
f 385/1/2 377/1/2 386/1/2
f 383/1/2 384/1/2 389/1/2
f 380/1/2 381/1/2 389/1/2
f 381/1/2 382/1/2 389/1/2
f 382/1/2 383/1/2 389/1/2
f 389/1/2 384/1/2 390/1/2
f 387/4/2 388/4/2 391/4/2
f 391/4/2 388/4/2 392/4/2
f 380/1/2 389/1/2 393/1/2
f 393/1/2 389/1/2 394/1/2
f 394/1/2 389/1/2 395/1/2
f 390/1/2 384/1/2 396/1/2
f 394/1/2 395/1/2 397/1/2
f 395/1/2 396/1/2 397/1/2
f 396/1/2 384/1/2 398/1/2
f 397/1/2 396/1/2 398/1/2
f 399/4/2 400/4/2 401/4/2
f 401/4/2 400/4/2 402/4/2
f 403/3/2 404/3/2 407/3/2
f 407/3/2 404/3/2 408/3/2
f 405/3/2 406/3/2 413/3/2
f 413/3/2 406/3/2 414/3/2
f 409/1/2 410/1/2 415/1/2
f 415/1/2 410/1/2 416/1/2
f 411/1/2 412/1/2 417/1/2
f 417/1/2 412/1/2 418/1/2
f 419/5/2 420/5/2 423/5/2
f 423/5/2 420/5/2 424/5/2
f 421/4/2 422/4/2 425/4/2
f 425/4/2 422/4/2 426/4/2
f 427/4/2 428/4/2 429/4/2
f 429/4/2 428/4/2 430/4/2
f 431/3/2 432/3/2 435/3/2
f 435/3/2 432/3/2 436/3/2
f 433/3/2 434/3/2 437/3/2
f 437/3/2 434/3/2 438/3/2
f 439/5/2 440/5/2 441/5/2
f 441/5/2 440/5/2 442/5/2
f 443/5/2 444/5/2 445/5/2
f 445/5/2 444/5/2 446/5/2
f 449/4/3 448/4/3 447/4/3
f 450/4/3 448/4/3 449/4/3
f 453/3/3 452/3/3 451/3/3
f 454/3/3 452/3/3 453/3/3
f 457/3/3 456/3/3 455/3/3
f 458/3/3 456/3/3 457/3/3
f 461/4/3 460/4/3 459/4/3
f 462/4/3 460/4/3 461/4/3
f 465/1/3 464/1/3 463/1/3
f 466/1/3 464/1/3 465/1/3
f 469/1/3 468/1/3 467/1/3
f 470/1/3 468/1/3 469/1/3
f 473/4/3 472/4/3 471/4/3
f 474/4/3 472/4/3 473/4/3
f 477/4/3 473/4/3 471/4/3
f 478/4/3 473/4/3 477/4/3
f 480/3/3 476/3/3 475/3/3
f 481/3/3 476/3/3 480/3/3
f 482/4/3 479/4/3 478/4/3
f 483/4/3 479/4/3 482/4/3
f 486/1/3 485/1/3 484/1/3
f 487/1/3 485/1/3 486/1/3
f 492/5/3 489/5/3 488/5/3
f 493/5/3 489/5/3 492/5/3
f 494/1/3 491/1/3 490/1/3
f 495/1/3 491/1/3 494/1/3
f 499/4/3 496/4/3 495/4/3
f 500/4/3 496/4/3 499/4/3
f 501/1/3 498/1/3 497/1/3
f 502/1/3 498/1/3 501/1/3
f 507/3/3 504/3/3 503/3/3
f 508/3/3 504/3/3 507/3/3
f 509/3/3 506/3/3 505/3/3
f 510/3/3 506/3/3 509/3/3
f 512/1/3 509/1/3 508/1/3
f 513/1/3 509/1/3 512/1/3
f 514/1/3 512/1/3 511/1/3
f 516/1/3 514/1/3 511/1/3
f 516/1/3 515/1/3 514/1/3
f 517/1/3 515/1/3 516/1/3
f 520/1/3 515/1/3 517/1/3
f 521/1/3 515/1/3 520/1/3
f 524/5/3 519/5/3 518/5/3
f 525/5/3 519/5/3 524/5/3
f 527/1/3 522/1/3 521/1/3
f 527/1/3 521/1/3 520/1/3
f 528/5/3 524/5/3 523/5/3
f 529/5/3 524/5/3 528/5/3
f 530/1/3 527/1/3 526/1/3
f 531/1/3 522/1/3 527/1/3
f 531/1/3 527/1/3 530/1/3
f 533/1/3 522/1/3 531/1/3
f 534/1/3 522/1/3 533/1/3
f 535/1/3 533/1/3 532/1/3
f 536/1/3 533/1/3 535/1/3
f 537/1/3 522/1/3 534/1/3
f 538/1/3 522/1/3 537/1/3
f 544/1/3 540/1/3 539/1/3
f 545/1/3 540/1/3 544/1/3
f 546/1/3 542/1/3 541/1/3
f 547/1/3 542/1/3 546/1/3
f 549/1/3 548/1/3 547/1/3
f 551/1/3 549/1/3 547/1/3
f 551/5/3 550/5/3 549/5/3
f 552/5/3 550/5/3 551/5/3
f 553/1/3 544/1/3 543/1/3
f 554/1/3 544/1/3 553/1/3
f 555/1/3 551/1/3 547/1/3
f 556/1/3 551/1/3 555/1/3
f 557/1/3 555/1/3 554/1/3
f 558/1/3 555/1/3 557/1/3
f 563/1/3 560/1/3 559/1/3
f 564/1/3 560/1/3 563/1/3
f 565/1/3 562/1/3 561/1/3
f 566/1/3 562/1/3 565/1/3
f 568/1/3 567/1/3 566/1/3
f 569/1/3 567/1/3 568/1/3
f 573/1/3 571/1/3 570/1/3
f 574/1/3 571/1/3 573/1/3
f 577/1/3 573/1/3 572/1/3
f 578/1/3 573/1/3 577/1/3
f 580/1/3 576/1/3 575/1/3
f 581/1/3 576/1/3 580/1/3
f 582/3/3 580/3/3 579/3/3
f 583/3/3 580/3/3 582/3/3
f 586/5/3 585/5/3 584/5/3
f 587/5/3 585/5/3 586/5/3
f 589/5/3 588/5/3 587/5/3
f 590/5/3 588/5/3 589/5/3
f 592/5/3 591/5/3 590/5/3
f 593/5/3 591/5/3 592/5/3
f 597/4/3 595/4/3 594/4/3
f 598/4/3 595/4/3 597/4/3
f 599/4/3 597/4/3 596/4/3
f 600/4/3 597/4/3 599/4/3
f 604/1/3 602/1/3 601/1/3
f 605/1/3 602/1/3 604/1/3
f 606/3/3 604/3/3 603/3/3
f 607/3/3 604/3/3 606/3/3
f 610/4/3 609/4/3 608/4/3
f 611/4/3 609/4/3 610/4/3
f 613/4/3 612/4/3 611/4/3
f 614/4/3 612/4/3 613/4/3
f 616/4/3 615/4/3 614/4/3
f 617/4/3 615/4/3 616/4/3
f 622/3/3 619/3/3 618/3/3
f 623/3/3 619/3/3 622/3/3
f 624/3/3 621/3/3 620/3/3
f 625/3/3 621/3/3 624/3/3
f 626/3/3 624/3/3 623/3/3
f 627/3/3 624/3/3 626/3/3
f 629/1/3 627/1/3 626/1/3
f 630/1/3 627/1/3 629/1/3
f 631/1/3 629/1/3 628/1/3
f 632/1/3 629/1/3 631/1/3
f 635/1/3 634/1/3 633/1/3
f 636/1/3 634/1/3 635/1/3
f 641/4/3 638/4/3 637/4/3
f 642/4/3 638/4/3 641/4/3
f 643/1/3 640/1/3 639/1/3
f 644/1/3 640/1/3 643/1/3
f 647/3/3 646/3/3 645/3/3
f 648/3/3 646/3/3 647/3/3
f 651/1/3 650/1/3 649/1/3
f 652/1/3 650/1/3 651/1/3
f 655/4/3 654/4/3 653/4/3
f 656/4/3 654/4/3 655/4/3
f 659/3/3 658/3/3 657/3/3
f 660/3/3 658/3/3 659/3/3
f 663/3/3 662/3/3 661/3/3
f 664/3/3 662/3/3 663/3/3
f 665/3/4 666/3/4 667/3/4
f 667/3/4 666/3/4 668/3/4
f 669/3/4 670/3/4 671/3/4
f 671/3/4 670/3/4 672/3/4
f 673/4/4 674/4/4 675/4/4
f 675/4/4 674/4/4 676/4/4
f 677/1/4 678/1/4 679/1/4
f 679/1/4 678/1/4 680/1/4
f 681/1/4 682/1/4 683/1/4
f 683/1/4 682/1/4 684/1/4
f 685/4/4 686/4/4 687/4/4
f 687/4/4 686/4/4 688/4/4
f 688/4/4 686/4/4 689/4/4
f 687/4/4 688/4/4 692/4/4
f 692/4/4 688/4/4 693/4/4
f 690/3/4 691/3/4 695/3/4
f 695/3/4 691/3/4 696/3/4
f 693/4/4 694/4/4 697/4/4
f 697/4/4 694/4/4 698/4/4
f 699/5/4 700/5/4 701/5/4
f 701/5/4 700/5/4 702/5/4
f 703/1/4 704/1/4 705/1/4
f 705/1/4 704/1/4 706/1/4
f 707/3/4 708/3/4 711/3/4
f 711/3/4 708/3/4 712/3/4
f 709/3/4 710/3/4 713/3/4
f 713/3/4 710/3/4 714/3/4
f 712/1/4 713/1/4 716/1/4
f 716/1/4 713/1/4 717/1/4
f 715/1/4 716/1/4 718/1/4
f 715/1/4 718/1/4 720/1/4
f 718/1/4 719/1/4 720/1/4
f 720/1/4 719/1/4 721/1/4
f 722/5/4 723/5/4 725/5/4
f 725/5/4 723/5/4 726/5/4
f 724/5/4 725/5/4 727/5/4
f 727/5/4 725/5/4 728/5/4
f 729/5/4 730/5/4 731/5/4
f 731/5/4 730/5/4 732/5/4
f 733/1/4 734/1/4 736/1/4
f 736/1/4 734/1/4 737/1/4
f 735/3/4 736/3/4 738/3/4
f 738/3/4 736/3/4 739/3/4
f 740/5/4 741/5/4 742/5/4
f 742/5/4 741/5/4 743/5/4
f 743/5/4 744/5/4 745/5/4
f 745/5/4 744/5/4 746/5/4
f 746/5/4 747/5/4 748/5/4
f 748/5/4 747/5/4 749/5/4
f 750/1/4 751/1/4 754/1/4
f 754/1/4 751/1/4 755/1/4
f 752/1/4 753/1/4 756/1/4
f 756/1/4 753/1/4 757/1/4
f 757/1/4 758/1/4 761/1/4
f 761/1/4 758/1/4 762/1/4
f 759/4/4 760/4/4 764/4/4
f 764/4/4 760/4/4 765/4/4
f 763/4/4 764/4/4 768/4/4
f 768/4/4 764/4/4 769/4/4
f 769/4/4 764/4/4 770/4/4
f 766/1/4 767/1/4 772/1/4
f 772/1/4 767/1/4 773/1/4
f 771/1/4 772/1/4 775/1/4
f 775/1/4 772/1/4 776/1/4
f 774/3/4 775/3/4 777/3/4
f 777/3/4 775/3/4 778/3/4
f 779/1/4 780/1/4 784/1/4
f 784/1/4 780/1/4 785/1/4
f 781/1/4 782/1/4 786/1/4
f 786/1/4 782/1/4 787/1/4
f 787/1/4 788/1/4 789/1/4
f 789/1/4 788/1/4 790/1/4
f 783/1/4 784/1/4 793/1/4
f 793/1/4 784/1/4 794/1/4
f 791/4/4 792/4/4 795/4/4
f 795/4/4 792/4/4 796/4/4
f 796/4/4 797/4/4 798/4/4
f 798/4/4 797/4/4 799/4/4
f 799/4/4 800/4/4 801/4/4
f 801/4/4 800/4/4 802/4/4
f 803/3/4 804/3/4 807/3/4
f 807/3/4 804/3/4 808/3/4
f 805/3/4 806/3/4 809/3/4
f 809/3/4 806/3/4 810/3/4
f 808/3/4 809/3/4 811/3/4
f 811/3/4 809/3/4 812/3/4
f 811/1/4 812/1/4 814/1/4
f 814/1/4 812/1/4 815/1/4
f 813/1/4 814/1/4 816/1/4
f 816/1/4 814/1/4 817/1/4
f 817/1/4 818/1/4 819/1/4
f 819/1/4 818/1/4 820/1/4
f 819/1/4 820/1/4 823/1/4
f 820/1/4 821/1/4 823/1/4
f 822/1/4 823/1/4 824/1/4
f 823/1/4 821/1/4 825/1/4
f 824/1/4 823/1/4 825/1/4
f 825/1/4 821/1/4 827/1/4
f 827/1/4 821/1/4 828/1/4
f 827/1/4 828/1/4 830/1/4
f 826/1/4 827/1/4 830/1/4
f 828/4/4 829/4/4 831/4/4
f 830/1/4 828/1/4 831/1/4
f 831/4/4 829/4/4 832/4/4
f 833/1/4 834/1/4 835/1/4
f 835/1/4 834/1/4 836/1/4
f 836/1/4 837/1/4 838/1/4
f 838/1/4 837/1/4 839/1/4
f 840/1/4 841/1/4 842/1/4
f 842/1/4 841/1/4 843/1/4
f 844/1/4 845/1/4 846/1/4
f 846/1/4 845/1/4 847/1/4
f 848/3/4 849/3/4 850/3/4
f 850/3/4 849/3/4 851/3/4
f 852/1/4 853/1/4 854/1/4
f 854/1/4 853/1/4 855/1/4
f 856/4/4 857/4/4 858/4/4
f 858/4/4 857/4/4 859/4/4
f 860/3/4 861/3/4 862/3/4
f 862/3/4 861/3/4 863/3/4
f 864/3/4 865/3/4 866/3/4
f 866/3/4 865/3/4 867/3/4
f 872/3/5 869/3/5 868/3/5
f 873/3/5 869/3/5 872/3/5
f 874/3/5 871/3/5 870/3/5
f 875/3/5 871/3/5 874/3/5
f 878/3/5 877/3/5 876/3/5
f 879/3/5 877/3/5 878/3/5
f 882/3/5 881/3/5 880/3/5
f 883/3/5 881/3/5 882/3/5
f 886/3/5 885/3/5 884/3/5
f 887/3/5 885/3/5 886/3/5
f 892/3/5 889/3/5 888/3/5
f 893/3/5 889/3/5 892/3/5
f 896/3/5 891/3/5 890/3/5
f 897/3/5 891/3/5 896/3/5
f 898/3/5 895/3/5 894/3/5
f 899/3/5 895/3/5 898/3/5
f 904/1/5 901/1/5 900/1/5
f 905/1/5 901/1/5 904/1/5
f 906/1/5 903/1/5 902/1/5
f 907/1/5 903/1/5 906/1/5
f 910/1/5 909/1/5 908/1/5
f 911/1/5 909/1/5 910/1/5
f 915/1/5 913/1/5 912/1/5
f 918/1/5 917/1/5 916/1/5
f 919/1/5 917/1/5 918/1/5
f 922/1/5 915/1/5 914/1/5
f 923/1/5 913/1/5 915/1/5
f 923/1/5 915/1/5 922/1/5
f 924/1/5 921/1/5 920/1/5
f 925/1/5 921/1/5 924/1/5
f 926/1/5 913/1/5 923/1/5
f 927/1/5 913/1/5 926/1/5
f 932/1/5 929/1/5 928/1/5
f 933/1/5 929/1/5 932/1/5
f 936/1/5 931/1/5 930/1/5
f 937/1/5 931/1/5 936/1/5
f 938/1/5 935/1/5 934/1/5
f 939/1/5 935/1/5 938/1/5
f 948/1/5 941/1/5 940/1/5
f 949/1/5 943/1/5 942/1/5
f 950/1/5 943/1/5 949/1/5
f 952/3/5 945/3/5 944/3/5
f 953/3/5 945/3/5 952/3/5
f 954/1/5 947/1/5 946/1/5
f 955/1/5 947/1/5 954/1/5
f 956/1/5 948/1/5 940/1/5
f 956/1/5 951/1/5 950/1/5
f 956/1/5 949/1/5 948/1/5
f 956/1/5 950/1/5 949/1/5
f 957/1/5 951/1/5 956/1/5
f 959/1/5 956/1/5 955/1/5
f 960/1/5 956/1/5 959/1/5
f 961/1/5 958/1/5 957/1/5
f 962/1/5 961/1/5 957/1/5
f 963/1/5 962/1/5 957/1/5
f 966/1/5 963/1/5 957/1/5
f 967/1/5 963/1/5 966/1/5
f 971/1/5 965/1/5 964/1/5
f 972/1/5 965/1/5 971/1/5
f 974/3/5 969/3/5 968/3/5
f 975/3/5 969/3/5 974/3/5
f 976/1/5 971/1/5 970/1/5
f 977/1/5 971/1/5 976/1/5
f 978/1/5 973/1/5 972/1/5
f 979/1/5 973/1/5 978/1/5
f 980/1/5 973/1/5 979/1/5
f 981/1/5 973/1/5 980/1/5
f 982/1/5 973/1/5 981/1/5
f 983/1/5 979/1/5 978/1/5
f 984/1/5 979/1/5 983/1/5
f 985/1/5 981/1/5 980/1/5
f 986/1/5 981/1/5 985/1/5
f 993/4/5 988/4/5 987/4/5
f 994/4/5 988/4/5 993/4/5
f 995/1/5 990/1/5 989/1/5
f 996/1/5 990/1/5 995/1/5
f 997/1/5 992/1/5 991/1/5
f 998/1/5 992/1/5 997/1/5
f 1004/3/5 1000/3/5 999/3/5
f 1005/1/5 1001/1/5 1000/1/5
f 1005/3/5 1000/3/5 1004/3/5
f 1006/1/5 1001/1/5 1005/1/5
f 1007/1/5 1003/1/5 1002/1/5
f 1008/1/5 1003/1/5 1007/1/5
f 1011/4/5 1010/4/5 1009/4/5
f 1012/4/5 1010/4/5 1011/4/5
f 1013/4/5 1010/4/5 1012/4/5
f 1016/3/5 1015/3/5 1014/3/5
f 1017/3/5 1015/3/5 1016/3/5
f 1020/5/5 1019/5/5 1018/5/5
f 1021/5/5 1019/5/5 1020/5/5
f 1024/3/5 1023/3/5 1022/3/5
f 1025/3/5 1023/3/5 1024/3/5
f 1028/4/5 1027/4/5 1026/4/5
f 1029/4/5 1027/4/5 1028/4/5
f 1032/5/5 1031/5/5 1030/5/5
f 1033/5/5 1031/5/5 1032/5/5
f 1036/4/5 1035/4/5 1034/4/5
f 1037/4/5 1035/4/5 1036/4/5
f 1040/5/5 1039/5/5 1038/5/5
f 1041/5/5 1039/5/5 1040/5/5
f 1044/4/5 1043/4/5 1042/4/5
f 1045/4/5 1043/4/5 1044/4/5
f 1048/5/5 1047/5/5 1046/5/5
f 1049/5/5 1047/5/5 1048/5/5
f 1052/4/5 1051/4/5 1050/4/5
f 1053/4/5 1051/4/5 1052/4/5
f 1055/4/5 1054/4/5 1053/4/5
f 1056/4/5 1054/4/5 1055/4/5
f 1061/5/5 1058/5/5 1057/5/5
f 1062/5/5 1058/5/5 1061/5/5
f 1063/5/5 1060/5/5 1059/5/5
f 1064/5/5 1060/5/5 1063/5/5
f 1067/4/5 1066/4/5 1065/4/5
f 1068/4/5 1066/4/5 1067/4/5
f 1071/4/5 1070/4/5 1069/4/5
f 1072/4/5 1070/4/5 1071/4/5
f 1073/3/6 1074/3/6 1077/3/6
f 1077/3/6 1074/3/6 1078/3/6
f 1075/3/6 1076/3/6 1079/3/6
f 1079/3/6 1076/3/6 1080/3/6
f 1081/3/6 1082/3/6 1083/3/6
f 1083/3/6 1082/3/6 1084/3/6
f 1085/3/6 1086/3/6 1087/3/6
f 1087/3/6 1086/3/6 1088/3/6
f 1089/3/6 1090/3/6 1091/3/6
f 1091/3/6 1090/3/6 1092/3/6
f 1093/3/6 1094/3/6 1097/3/6
f 1097/3/6 1094/3/6 1098/3/6
f 1095/3/6 1096/3/6 1101/3/6
f 1101/3/6 1096/3/6 1102/3/6
f 1099/3/6 1100/3/6 1103/3/6
f 1103/3/6 1100/3/6 1104/3/6
f 1105/1/6 1106/1/6 1109/1/6
f 1109/1/6 1106/1/6 1110/1/6
f 1107/1/6 1108/1/6 1111/1/6
f 1111/1/6 1108/1/6 1112/1/6
f 1113/1/6 1114/1/6 1115/1/6
f 1115/1/6 1114/1/6 1116/1/6
f 1117/1/6 1118/1/6 1119/1/6
f 1119/1/6 1118/1/6 1120/1/6
f 1121/1/6 1122/1/6 1123/1/6
f 1123/1/6 1122/1/6 1124/1/6
f 1125/1/6 1126/1/6 1129/1/6
f 1129/1/6 1126/1/6 1130/1/6
f 1127/1/6 1128/1/6 1133/1/6
f 1133/1/6 1128/1/6 1134/1/6
f 1131/1/6 1132/1/6 1135/1/6
f 1135/1/6 1132/1/6 1136/1/6
f 1137/1/6 1138/1/6 1145/1/6
f 1145/1/6 1138/1/6 1146/1/6
f 1139/1/6 1140/1/6 1147/1/6
f 1147/1/6 1140/1/6 1148/1/6
f 1141/3/6 1142/3/6 1149/3/6
f 1149/3/6 1142/3/6 1150/3/6
f 1143/1/6 1144/1/6 1151/1/6
f 1151/1/6 1144/1/6 1152/1/6
f 1153/3/6 1154/3/6 1157/3/6
f 1157/3/6 1154/3/6 1158/3/6
f 1155/1/6 1156/1/6 1159/1/6
f 1159/1/6 1156/1/6 1160/1/6
f 1161/1/6 1162/1/6 1165/1/6
f 1165/1/6 1162/1/6 1166/1/6
f 1163/1/6 1164/1/6 1167/1/6
f 1167/1/6 1164/1/6 1168/1/6
f 1169/4/6 1170/4/6 1175/4/6
f 1175/4/6 1170/4/6 1176/4/6
f 1171/1/6 1172/1/6 1177/1/6
f 1177/1/6 1172/1/6 1178/1/6
f 1173/1/6 1174/1/6 1179/1/6
f 1179/1/6 1174/1/6 1180/1/6
f 1180/1/6 1174/1/6 1181/1/6
f 1182/3/6 1183/3/6 1187/3/6
f 1183/1/6 1184/1/6 1188/1/6
f 1187/3/6 1183/3/6 1188/3/6
f 1188/1/6 1184/1/6 1189/1/6
f 1185/1/6 1186/1/6 1190/1/6
f 1190/1/6 1186/1/6 1191/1/6
f 1192/4/6 1193/4/6 1194/4/6
f 1194/4/6 1193/4/6 1195/4/6
f 1196/3/6 1197/3/6 1200/3/6
f 1200/3/6 1197/3/6 1201/3/6
f 1198/1/6 1199/1/6 1203/1/6
f 1203/1/6 1199/1/6 1204/1/6
f 1202/1/6 1203/1/6 1206/1/6
f 1206/1/6 1203/1/6 1207/1/6
f 1204/1/6 1205/1/6 1208/1/6
f 1208/1/6 1205/1/6 1209/1/6
f 1210/5/6 1211/5/6 1212/5/6
f 1212/5/6 1211/5/6 1213/5/6
f 1214/1/6 1215/1/6 1218/1/6
f 1218/1/6 1215/1/6 1219/1/6
f 1216/3/6 1217/3/6 1221/3/6
f 1221/3/6 1217/3/6 1222/3/6
f 1219/1/6 1220/1/6 1223/1/6
f 1223/1/6 1220/1/6 1224/1/6
f 1225/4/6 1226/4/6 1227/4/6
f 1227/4/6 1226/4/6 1228/4/6
f 1229/1/6 1230/1/6 1234/1/6
f 1234/1/6 1230/1/6 1235/1/6
f 1231/1/6 1232/1/6 1236/1/6
f 1236/1/6 1232/1/6 1237/1/6
f 1233/1/6 1234/1/6 1239/1/6
f 1239/1/6 1234/1/6 1240/1/6
f 1239/2/6 1240/2/6 1241/2/6
f 1241/2/6 1240/2/6 1242/2/6
f 1241/1/6 1242/1/6 1243/1/6
f 1243/1/6 1242/1/6 1244/1/6
f 1243/2/6 1244/2/6 1245/2/6
f 1245/2/6 1244/2/6 1246/2/6
f 1245/1/6 1246/1/6 1247/1/6
f 1247/1/6 1246/1/6 1248/1/6
f 1237/1/6 1238/1/6 1250/1/6
f 1250/1/6 1238/1/6 1251/1/6
f 1248/1/6 1249/1/6 1252/1/6
f 1252/1/6 1249/1/6 1253/1/6
f 1254/4/6 1255/4/6 1256/4/6
f 1256/4/6 1255/4/6 1257/4/6
f 1258/4/6 1259/4/6 1260/4/6
f 1260/4/6 1259/4/6 1261/4/6
f 1266/5/6 1267/5/6 1268/5/6
f 1268/5/6 1267/5/6 1269/5/6
f 1264/1/6 1265/1/6 1270/1/6
f 1262/1/6 1263/1/6 1270/1/6
f 1263/1/6 1264/1/6 1270/1/6
f 1270/1/6 1265/1/6 1271/1/6
f 1271/1/6 1265/1/6 1272/1/6
f 1273/4/6 1274/4/6 1275/4/6
f 1275/4/6 1274/4/6 1276/4/6
f 1277/4/6 1278/4/6 1279/4/6
f 1279/4/6 1278/4/6 1280/4/6
f 1281/5/6 1282/5/6 1283/5/6
f 1283/5/6 1282/5/6 1284/5/6
f 1285/5/6 1286/5/6 1287/5/6
f 1287/5/6 1286/5/6 1288/5/6
f 1289/4/6 1290/4/6 1291/4/6
f 1291/4/6 1290/4/6 1292/4/6
f 1293/4/6 1294/4/6 1295/4/6
f 1295/4/6 1294/4/6 1296/4/6
f 1297/5/6 1298/5/6 1299/5/6
f 1299/5/6 1298/5/6 1300/5/6
f 1301/4/6 1302/4/6 1303/4/6
f 1303/4/6 1302/4/6 1304/4/6
f 1305/4/6 1306/4/6 1307/4/6
f 1307/4/6 1306/4/6 1308/4/6
f 1309/4/6 1310/4/6 1311/4/6
f 1311/4/6 1310/4/6 1312/4/6
f 1313/5/6 1314/5/6 1317/5/6
f 1317/5/6 1314/5/6 1318/5/6
f 1315/5/6 1316/5/6 1319/5/6
f 1319/5/6 1316/5/6 1320/5/6
f 1321/4/6 1322/4/6 1323/4/6
f 1323/4/6 1322/4/6 1324/4/6
f 1325/4/6 1326/4/6 1327/4/6
f 1327/4/6 1326/4/6 1328/4/6
