# MagicaVoxel @ Ephtracy

# group
o 

# material
mtllib Princess_Crab.mtl
usemtl palette

# normals
vn -1 0 0
vn 1 0 0
vn 0 0 1
vn 0 0 -1
vn 0 -1 0
vn 0 1 0

# texcoords
vt 0.970703 0.5
vt 0.974609 0.5
vt 0.978516 0.5
vt 0.982422 0.5
vt 0.986328 0.5
vt 0.990234 0.5
vt 0.994141 0.5

# verts
v -1 0.3 -0.4
v -1 0.3 -0.5
v -1 0.4 -0.4
v -1 0.4 -0.5
v -1 0.5 -0.4
v -1 0.5 -0.5
v -1 0.6 -0.4
v -1 0.6 -0.5
v -0.9 0.3 0.5
v -0.9 0.3 0.4
v -0.9 0.4 0.5
v -0.9 0.4 0.4
v -0.9 0.5 0.5
v -0.9 0.5 0.4
v -0.9 0.6 0.5
v -0.9 0.6 0.4
v -0.8 0.4 -0.4
v -0.8 0.4 -0.5
v -0.8 0.5 -0.4
v -0.8 0.5 -0.5
v -0.7 0.4 0.5
v -0.7 0.4 0.4
v -0.7 0.5 0.5
v -0.7 0.5 0.4
v -0.6 0.3 0.5
v -0.6 0.3 0.4
v -0.6 0.3 -0.4
v -0.6 0.3 -0.5
v -0.6 0.4 0.5
v -0.6 0.4 0.4
v -0.6 0.4 -0.4
v -0.6 0.4 -0.5
v -0.5 0 -0.6
v -0.5 0 -0.7
v -0.5 0.2 -0.6
v -0.5 0.2 -0.7
v -0.5 0.4 0.5
v -0.5 0.4 0.4
v -0.5 0.5 0.5
v -0.5 0.5 0.4
v -0.4 0.2 0.3
v -0.4 0.2 -0.3
v -0.4 0.2 -0.5
v -0.4 0.2 -0.6
v -0.4 0.3 0.4
v -0.4 0.3 0.3
v -0.4 0.3 0.2
v -0.4 0.3 -0.2
v -0.4 0.3 -0.3
v -0.4 0.3 -0.4
v -0.4 0.3 -0.5
v -0.4 0.3 -0.6
v -0.4 0.4 0.2
v -0.4 0.4 -0.2
v -0.4 0.4 -0.4
v -0.4 0.4 -0.5
v -0.4 0.5 0.4
v -0.4 0.5 0.2
v -0.4 0.5 0.1
v -0.4 0.5 -0.1
v -0.4 0.5 -0.2
v -0.4 0.5 -0.4
v -0.4 0.5 -0.5
v -0.4 0.6 0.4
v -0.4 0.6 0.3
v -0.4 0.6 -0.3
v -0.4 0.6 -0.4
v -0.4 0.7 0.3
v -0.4 0.7 0.2
v -0.4 0.7 0.1
v -0.4 0.7 -0.1
v -0.4 0.7 -0.2
v -0.4 0.7 -0.3
v -0.4 1 0.5
v -0.4 1 0.4
v -0.4 1.2 0.5
v -0.4 1.2 0.4
v -0.3 0 0.8
v -0.3 0 0.7
v -0.3 0.2 0.8
v -0.3 0.2 0.7
v -0.3 0.2 0.6
v -0.3 0.2 0.4
v -0.3 0.2 0.3
v -0.3 0.2 -0.3
v -0.3 0.2 -0.4
v -0.3 0.3 0.7
v -0.3 0.3 0.6
v -0.3 0.3 0.4
v -0.3 0.3 0.3
v -0.3 0.3 -0.3
v -0.3 0.3 -0.4
v -0.3 0.3 -0.5
v -0.3 0.3 -0.6
v -0.3 0.4 0.6
v -0.3 0.4 0.5
v -0.3 0.4 0.4
v -0.3 0.4 -0.4
v -0.3 0.4 -0.5
v -0.3 0.4 -0.6
v -0.3 0.5 0.5
v -0.3 0.5 0.4
v -0.3 0.5 -0.4
v -0.3 0.5 -0.5
v -0.3 0.6 0.5
v -0.3 0.6 0.4
v -0.3 0.6 0.3
v -0.3 0.6 -0.3
v -0.3 0.6 -0.4
v -0.3 0.6 -0.5
v -0.3 0.7 0.4
v -0.3 0.7 0.3
v -0.3 0.7 0.2
v -0.3 0.7 0.1
v -0.3 0.7 -0.1
v -0.3 0.7 -0.2
v -0.3 0.7 -0.3
v -0.3 0.7 -0.4
v -0.3 0.8 0.3
v -0.3 0.8 0.1
v -0.3 0.8 -0.1
v -0.3 0.8 -0.3
v -0.3 0.9 0.5
v -0.3 0.9 0.4
v -0.3 1 0.5
v -0.3 1 0.4
v -0.3 1.1 0.1
v -0.3 1.1 -0.1
v -0.2 0.7 0.4
v -0.2 0.7 0.3
v -0.2 0.8 0.3
v -0.2 0.8 0.2
v -0.2 0.8 0.1
v -0.2 0.8 -0.1
v -0.2 0.8 -0.2
v -0.2 0.9 0.4
v -0.2 0.9 0.3
v -0.2 1 0.6
v -0.2 1 0.5
v -0.2 1 0.2
v -0.2 1 0.1
v -0.2 1 -0.1
v -0.2 1 -0.2
v -0.2 1.2 0.6
v -0.2 1.2 0.5
v -0.0999999 0 0.8
v -0.0999999 0 0.7
v -0.0999999 0 -0.7
v -0.0999999 0 -0.8
v -0.0999999 0.2 0.8
v -0.0999999 0.2 0.7
v -0.0999999 0.2 0.6
v -0.0999999 0.2 -0.6
v -0.0999999 0.2 -0.7
v -0.0999999 0.2 -0.8
v -0.0999999 0.3 0.7
v -0.0999999 0.3 0.6
v -0.0999999 0.3 0.5
v -0.0999999 0.3 -0.5
v -0.0999999 0.3 -0.6
v -0.0999999 0.3 -0.7
v -0.0999999 0.4 0.6
v -0.0999999 0.4 0.5
v -0.0999999 0.4 -0.5
v -0.0999999 0.4 -0.6
v -0.0999999 0.8 0.3
v -0.0999999 0.8 0.2
v -0.0999999 0.8 -0.2
v -0.0999999 0.8 -0.3
v -0.0999999 0.9 0.3
v -0.0999999 0.9 0.2
v -0.0999999 0.9 -0.2
v -0.0999999 0.9 -0.3
v -0.0999999 1.1 -0.2
v -0.0999999 1.1 -0.3
v -0.0999999 1.3 -0.2
v -0.0999999 1.3 -0.3
v 1.19209e-07 0.4 0.6
v 1.19209e-07 0.4 0.5
v 1.19209e-07 0.5 0.7
v 1.19209e-07 0.5 0.6
v 1.19209e-07 0.5 0.5
v 1.19209e-07 0.6 -0.4
v 1.19209e-07 0.6 -0.5
v 1.19209e-07 0.7 0.9
v 1.19209e-07 0.7 0.7
v 1.19209e-07 0.7 0.6
v 1.19209e-07 0.7 -0.3
v 1.19209e-07 0.7 -0.4
v 1.19209e-07 0.8 0.9
v 1.19209e-07 0.8 0.8
v 1.19209e-07 0.8 -0.3
v 1.19209e-07 0.8 -0.4
v 1.19209e-07 0.8 -0.5
v 1.19209e-07 0.8 -0.7
v 1.19209e-07 0.9 0.8
v 1.19209e-07 0.9 0.7
v 1.19209e-07 0.9 -0.2
v 1.19209e-07 0.9 -0.3
v 1.19209e-07 0.9 -0.4
v 1.19209e-07 0.9 -0.5
v 1.19209e-07 0.9 -0.6
v 1.19209e-07 1 -0.6
v 1.19209e-07 1 -0.7
v 1.19209e-07 1.1 -0.2
v 1.19209e-07 1.1 -0.3
v 0.1 0.2 0.6
v 0.1 0.2 0.5
v 0.1 0.2 -0.5
v 0.1 0.2 -0.6
v 0.1 0.3 0.6
v 0.1 0.3 0.5
v 0.1 0.3 -0.5
v 0.1 0.3 -0.6
v 0.1 0.9 -0.3
v 0.1 0.9 -0.4
v 0.1 1 -0.3
v 0.1 1 -0.4
v 0.2 0 0.7
v 0.2 0 0.6
v 0.2 0 -0.6
v 0.2 0 -0.7
v 0.2 0.2 0.7
v 0.2 0.2 0.6
v 0.2 0.2 0.3
v 0.2 0.2 0.2
v 0.2 0.2 -0.2
v 0.2 0.2 -0.3
v 0.2 0.2 -0.6
v 0.2 0.2 -0.7
v 0.2 0.3 0.3
v 0.2 0.3 0.2
v 0.2 0.3 -0.2
v 0.2 0.3 -0.3
v 0.2 0.6 0.7
v 0.2 0.6 0.6
v 0.2 0.8 0.7
v 0.2 0.8 0.6
v 0.2 1 -0.3
v 0.2 1 -0.4
v 0.2 1.2 -0.3
v 0.2 1.2 -0.4
v 0.3 0 0.3
v 0.3 0 0.2
v 0.3 0 -0.2
v 0.3 0 -0.3
v 0.3 0.2 0.3
v 0.3 0.2 0.2
v 0.3 0.2 -0.2
v 0.3 0.2 -0.3
v 0.3 0.6 0.1
v 0.3 0.6 0
v 0.3 0.8 0.1
v 0.3 0.8 0
v 0.4 0.8 0.1
v 0.4 0.8 0
v 0.4 0.9 0.1
v 0.4 0.9 0
v -0.8 0.3 -0.4
v -0.8 0.3 -0.5
v -0.8 0.4 -0.4
v -0.8 0.4 -0.5
v -0.8 0.5 -0.4
v -0.8 0.5 -0.5
v -0.8 0.6 -0.4
v -0.8 0.6 -0.5
v -0.7 0.3 0.5
v -0.7 0.3 0.4
v -0.7 0.4 0.5
v -0.7 0.4 0.4
v -0.7 0.5 0.5
v -0.7 0.5 0.4
v -0.7 0.6 0.5
v -0.7 0.6 0.4
v -0.6 0.4 0.5
v -0.6 0.4 0.4
v -0.6 0.4 -0.4
v -0.6 0.4 -0.5
v -0.6 0.5 0.5
v -0.6 0.5 0.4
v -0.6 0.5 -0.4
v -0.6 0.5 -0.5
v -0.4 0 -0.6
v -0.4 0 -0.7
v -0.4 0.2 -0.6
v -0.4 0.2 -0.7
v -0.4 0.3 0.5
v -0.4 0.3 0.4
v -0.4 0.3 -0.4
v -0.4 0.3 -0.5
v -0.4 0.4 0.5
v -0.4 0.4 0.4
v -0.4 0.4 -0.4
v -0.4 0.4 -0.5
v -0.3 0.2 -0.5
v -0.3 0.2 -0.6
v -0.3 0.3 -0.5
v -0.3 0.3 -0.6
v -0.3 1 0.5
v -0.3 1 0.4
v -0.3 1.2 0.5
v -0.3 1.2 0.4
v -0.2 0 0.8
v -0.2 0 0.7
v -0.2 0.2 0.8
v -0.2 0.2 0.7
v -0.2 0.2 0.6
v -0.2 0.3 0.7
v -0.2 0.3 0.6
v -0.2 0.3 0.5
v -0.2 0.3 -0.5
v -0.2 0.3 -0.6
v -0.2 0.4 0.6
v -0.2 0.4 0.5
v -0.2 0.4 -0.5
v -0.2 0.4 -0.6
v -0.2 0.8 0.1
v -0.2 0.8 -0.1
v -0.2 0.9 0.5
v -0.2 0.9 0.4
v -0.2 1 0.5
v -0.2 1 0.4
v -0.2 1 0.1
v -0.2 1 -0.1
v -0.2 1.1 0.1
v -0.2 1.1 -0.1
v -0.0999999 0.7 0.4
v -0.0999999 0.7 0.3
v -0.0999999 0.8 0.3
v -0.0999999 0.8 0.2
v -0.0999999 0.8 0.1
v -0.0999999 0.8 -0.1
v -0.0999999 0.8 -0.2
v -0.0999999 0.9 0.4
v -0.0999999 0.9 0.3
v -0.0999999 0.9 0.2
v -0.0999999 0.9 -0.2
v -0.0999999 1 0.6
v -0.0999999 1 0.5
v -0.0999999 1 0.2
v -0.0999999 1 0.1
v -0.0999999 1 -0.1
v -0.0999999 1 -0.2
v -0.0999999 1.2 0.6
v -0.0999999 1.2 0.5
v 1.19209e-07 0 0.8
v 1.19209e-07 0 0.7
v 1.19209e-07 0 -0.7
v 1.19209e-07 0 -0.8
v 1.19209e-07 0.2 0.8
v 1.19209e-07 0.2 0.7
v 1.19209e-07 0.2 0.6
v 1.19209e-07 0.2 -0.6
v 1.19209e-07 0.2 -0.7
v 1.19209e-07 0.2 -0.8
v 1.19209e-07 0.3 0.7
v 1.19209e-07 0.3 0.6
v 1.19209e-07 0.3 0.5
v 1.19209e-07 0.3 -0.5
v 1.19209e-07 0.3 -0.6
v 1.19209e-07 0.3 -0.7
v 1.19209e-07 0.4 0.6
v 1.19209e-07 0.4 0.5
v 1.19209e-07 0.4 -0.5
v 1.19209e-07 0.4 -0.6
v 1.19209e-07 0.8 0.3
v 1.19209e-07 0.8 0.2
v 1.19209e-07 0.8 -0.2
v 1.19209e-07 0.8 -0.3
v 1.19209e-07 0.9 0.3
v 1.19209e-07 0.9 0.2
v 1.19209e-07 0.9 -0.2
v 1.19209e-07 0.9 -0.3
v 1.19209e-07 1.1 -0.2
v 1.19209e-07 1.1 -0.3
v 1.19209e-07 1.3 -0.2
v 1.19209e-07 1.3 -0.3
v 0.1 0.2 0.4
v 0.1 0.2 -0.4
v 0.1 0.3 0.5
v 0.1 0.3 0.4
v 0.1 0.3 0.3
v 0.1 0.3 -0.3
v 0.1 0.3 -0.4
v 0.1 0.3 -0.5
v 0.1 0.4 0.6
v 0.1 0.4 0.5
v 0.1 0.4 -0.3
v 0.1 0.5 0.6
v 0.1 0.5 0.5
v 0.1 0.6 0.7
v 0.1 0.6 0.6
v 0.1 0.6 0.5
v 0.1 0.6 0.4
v 0.1 0.6 0.3
v 0.1 0.6 -0.4
v 0.1 0.6 -0.5
v 0.1 0.7 0.9
v 0.1 0.7 0.7
v 0.1 0.7 0.6
v 0.1 0.7 0.4
v 0.1 0.7 0.3
v 0.1 0.7 -0.3
v 0.1 0.7 -0.4
v 0.1 0.8 0.9
v 0.1 0.8 0.8
v 0.1 0.8 0.3
v 0.1 0.8 -0.3
v 0.1 0.8 -0.4
v 0.1 0.8 -0.5
v 0.1 0.8 -0.7
v 0.1 0.9 0.8
v 0.1 0.9 0.7
v 0.1 0.9 -0.2
v 0.1 0.9 -0.3
v 0.1 0.9 -0.4
v 0.1 0.9 -0.5
v 0.1 0.9 -0.6
v 0.1 1 -0.3
v 0.1 1 -0.6
v 0.1 1 -0.7
v 0.1 1.1 -0.2
v 0.1 1.1 -0.3
v 0.2 0.2 0.6
v 0.2 0.2 0.5
v 0.2 0.2 -0.5
v 0.2 0.2 -0.6
v 0.2 0.3 0.6
v 0.2 0.3 0.5
v 0.2 0.3 0.4
v 0.2 0.3 0.3
v 0.2 0.3 0.2
v 0.2 0.3 -0.2
v 0.2 0.3 -0.3
v 0.2 0.3 -0.5
v 0.2 0.3 -0.6
v 0.2 0.4 0.3
v 0.2 0.4 -0.3
v 0.2 0.5 0.7
v 0.2 0.5 0.6
v 0.2 0.5 0.1
v 0.2 0.5 0
v 0.2 0.6 0.7
v 0.2 0.6 0.6
v 0.2 0.6 0.4
v 0.2 0.6 0.3
v 0.2 0.6 0.1
v 0.2 0.6 0
v 0.2 0.7 0.3
v 0.2 0.7 -0.3
v 0.2 0.9 -0.3
v 0.2 0.9 -0.4
v 0.2 1 -0.3
v 0.2 1 -0.4
v 0.3 0 0.7
v 0.3 0 0.6
v 0.3 0 -0.6
v 0.3 0 -0.7
v 0.3 0.2 0.7
v 0.3 0.2 0.6
v 0.3 0.2 0.3
v 0.3 0.2 0.2
v 0.3 0.2 -0.2
v 0.3 0.2 -0.3
v 0.3 0.2 -0.6
v 0.3 0.2 -0.7
v 0.3 0.3 0.3
v 0.3 0.3 0.2
v 0.3 0.3 -0.2
v 0.3 0.3 -0.3
v 0.3 0.5 0.1
v 0.3 0.5 0
v 0.3 0.6 0.7
v 0.3 0.6 0.6
v 0.3 0.6 0.1
v 0.3 0.6 0
v 0.3 0.8 0.7
v 0.3 0.8 0.6
v 0.3 1 -0.3
v 0.3 1 -0.4
v 0.3 1.2 -0.3
v 0.3 1.2 -0.4
v 0.4 0 0.3
v 0.4 0 0.2
v 0.4 0 -0.2
v 0.4 0 -0.3
v 0.4 0.2 0.3
v 0.4 0.2 0.2
v 0.4 0.2 -0.2
v 0.4 0.2 -0.3
v 0.4 0.6 0.1
v 0.4 0.6 0
v 0.4 0.8 0.1
v 0.4 0.8 0
v 0.5 0.8 0.1
v 0.5 0.8 0
v 0.5 0.9 0.1
v 0.5 0.9 0
v 1.19209e-07 0.7 0.9
v 1.19209e-07 0.8 0.9
v 0.1 0.7 0.9
v 0.1 0.8 0.9
v -0.3 0 0.8
v -0.3 0.2 0.8
v -0.2 0 0.8
v -0.2 0.2 0.8
v -0.0999999 0 0.8
v -0.0999999 0.2 0.8
v 1.19209e-07 0 0.8
v 1.19209e-07 0.2 0.8
v 1.19209e-07 0.8 0.8
v 1.19209e-07 0.9 0.8
v 0.1 0.8 0.8
v 0.1 0.9 0.8
v -0.3 0.2 0.7
v -0.3 0.3 0.7
v -0.2 0.2 0.7
v -0.2 0.3 0.7
v -0.0999999 0.2 0.7
v -0.0999999 0.3 0.7
v 1.19209e-07 0.2 0.7
v 1.19209e-07 0.3 0.7
v 1.19209e-07 0.5 0.7
v 1.19209e-07 0.7 0.7
v 0.1 0.6 0.7
v 0.1 0.7 0.7
v 0.2 0 0.7
v 0.2 0.2 0.7
v 0.2 0.5 0.7
v 0.2 0.6 0.7
v 0.2 0.8 0.7
v 0.3 0 0.7
v 0.3 0.2 0.7
v 0.3 0.6 0.7
v 0.3 0.8 0.7
v -0.3 0.3 0.6
v -0.3 0.4 0.6
v -0.2 0.3 0.6
v -0.2 0.4 0.6
v -0.2 1 0.6
v -0.2 1.2 0.6
v -0.0999999 0.3 0.6
v -0.0999999 0.4 0.6
v -0.0999999 1 0.6
v -0.0999999 1.2 0.6
v 1.19209e-07 0.3 0.6
v 1.19209e-07 0.4 0.6
v 1.19209e-07 0.5 0.6
v 0.1 0.2 0.6
v 0.1 0.3 0.6
v 0.1 0.4 0.6
v 0.1 0.5 0.6
v 0.2 0.2 0.6
v 0.2 0.3 0.6
v -0.9 0.3 0.5
v -0.9 0.4 0.5
v -0.9 0.5 0.5
v -0.9 0.6 0.5
v -0.7 0.3 0.5
v -0.7 0.4 0.5
v -0.7 0.5 0.5
v -0.7 0.6 0.5
v -0.6 0.3 0.5
v -0.6 0.4 0.5
v -0.6 0.5 0.5
v -0.5 0.4 0.5
v -0.5 0.5 0.5
v -0.4 0.3 0.5
v -0.4 0.4 0.5
v -0.4 1 0.5
v -0.4 1.2 0.5
v -0.3 0.4 0.5
v -0.3 0.5 0.5
v -0.3 0.6 0.5
v -0.3 0.9 0.5
v -0.3 1 0.5
v -0.3 1.2 0.5
v -0.2 0.3 0.5
v -0.2 0.4 0.5
v -0.2 0.9 0.5
v -0.2 1 0.5
v -0.0999999 0.3 0.5
v -0.0999999 0.4 0.5
v 1.19209e-07 0.3 0.5
v 1.19209e-07 0.4 0.5
v 1.19209e-07 0.5 0.5
v 0.1 0.3 0.5
v 0.1 0.4 0.5
v 0.1 0.5 0.5
v 0.1 0.6 0.5
v -0.4 0.3 0.4
v -0.4 0.4 0.4
v -0.4 0.5 0.4
v -0.4 0.6 0.4
v -0.3 0.2 0.4
v -0.3 0.3 0.4
v -0.3 0.4 0.4
v -0.3 0.5 0.4
v -0.3 0.6 0.4
v -0.3 0.7 0.4
v -0.2 0.7 0.4
v -0.2 0.9 0.4
v -0.0999999 0.7 0.4
v -0.0999999 0.9 0.4
v 0.1 0.2 0.4
v 0.1 0.3 0.4
v 0.1 0.6 0.4
v 0.1 0.7 0.4
v 0.2 0.3 0.4
v 0.2 0.6 0.4
v -0.4 0.2 0.3
v -0.4 0.3 0.3
v -0.4 0.6 0.3
v -0.4 0.7 0.3
v -0.3 0.2 0.3
v -0.3 0.3 0.3
v -0.3 0.6 0.3
v -0.3 0.7 0.3
v -0.3 0.8 0.3
v -0.2 0.7 0.3
v -0.2 0.8 0.3
v -0.0999999 0.7 0.3
v -0.0999999 0.8 0.3
v -0.0999999 0.9 0.3
v 1.19209e-07 0.8 0.3
v 1.19209e-07 0.9 0.3
v 0.1 0.6 0.3
v 0.1 0.7 0.3
v 0.1 0.8 0.3
v 0.2 0.2 0.3
v 0.2 0.3 0.3
v 0.2 0.6 0.3
v 0.2 0.7 0.3
v 0.3 0 0.3
v 0.3 0.2 0.3
v 0.3 0.3 0.3
v 0.4 0 0.3
v 0.4 0.2 0.3
v -0.2 0.8 0.2
v -0.2 1 0.2
v -0.0999999 0.8 0.2
v -0.0999999 0.9 0.2
v -0.0999999 1 0.2
v -0.3 0.8 0.1
v -0.3 1.1 0.1
v -0.2 0.8 0.1
v -0.2 1 0.1
v -0.2 1.1 0.1
v 0.2 0.5 0.1
v 0.2 0.6 0.1
v 0.3 0.5 0.1
v 0.3 0.6 0.1
v 0.3 0.8 0.1
v 0.4 0.6 0.1
v 0.4 0.8 0.1
v 0.4 0.9 0.1
v 0.5 0.8 0.1
v 0.5 0.9 0.1
v -0.2 0.8 -0.1
v -0.2 1 -0.1
v -0.0999999 0.8 -0.1
v -0.0999999 1 -0.1
v -0.0999999 0.8 -0.2
v -0.0999999 0.9 -0.2
v -0.0999999 1.1 -0.2
v -0.0999999 1.3 -0.2
v 1.19209e-07 0.8 -0.2
v 1.19209e-07 0.9 -0.2
v 1.19209e-07 1.1 -0.2
v 1.19209e-07 1.3 -0.2
v 0.1 0.9 -0.2
v 0.1 1.1 -0.2
v 0.2 0.2 -0.2
v 0.2 0.3 -0.2
v 0.3 0 -0.2
v 0.3 0.2 -0.2
v 0.3 0.3 -0.2
v 0.4 0 -0.2
v 0.4 0.2 -0.2
v 1.19209e-07 0.8 -0.3
v 1.19209e-07 0.9 -0.3
v 0.1 0.8 -0.3
v 0.1 0.9 -0.3
v 0.1 1 -0.3
v 0.2 0.9 -0.3
v 0.2 1 -0.3
v 0.2 1.2 -0.3
v 0.3 1 -0.3
v 0.3 1.2 -0.3
v -1 0.3 -0.4
v -1 0.4 -0.4
v -1 0.5 -0.4
v -1 0.6 -0.4
v -0.8 0.3 -0.4
v -0.8 0.4 -0.4
v -0.8 0.5 -0.4
v -0.8 0.6 -0.4
v -0.7 0.4 -0.4
v -0.7 0.5 -0.4
v -0.6 0.3 -0.4
v -0.6 0.4 -0.4
v -0.6 0.5 -0.4
v -0.4 0.3 -0.4
v -0.4 0.4 -0.4
v -0.4 0.2 -0.5
v -0.4 0.3 -0.5
v -0.3 0.2 -0.5
v -0.3 0.3 -0.5
v 1.19209e-07 0.8 -0.5
v 1.19209e-07 0.9 -0.5
v 0.1 0.2 -0.5
v 0.1 0.3 -0.5
v 0.1 0.8 -0.5
v 0.1 0.9 -0.5
v 0.2 0.2 -0.5
v 0.2 0.3 -0.5
v -0.5 0 -0.6
v -0.5 0.2 -0.6
v -0.4 0 -0.6
v -0.4 0.2 -0.6
v -0.0999999 0.2 -0.6
v -0.0999999 0.3 -0.6
v 1.19209e-07 0.2 -0.6
v 1.19209e-07 0.3 -0.6
v 1.19209e-07 0.9 -0.6
v 1.19209e-07 1 -0.6
v 0.1 0.9 -0.6
v 0.1 1 -0.6
v 0.2 0 -0.6
v 0.2 0.2 -0.6
v 0.3 0 -0.6
v 0.3 0.2 -0.6
v -0.0999999 0 -0.7
v -0.0999999 0.2 -0.7
v 1.19209e-07 0 -0.7
v 1.19209e-07 0.2 -0.7
v -0.3 0 0.7
v -0.3 0.2 0.7
v -0.2 0 0.7
v -0.2 0.2 0.7
v -0.0999999 0 0.7
v -0.0999999 0.2 0.7
v 1.19209e-07 0 0.7
v 1.19209e-07 0.2 0.7
v 1.19209e-07 0.7 0.7
v 1.19209e-07 0.9 0.7
v 0.1 0.7 0.7
v 0.1 0.9 0.7
v -0.3 0.2 0.6
v -0.3 0.3 0.6
v -0.2 0.2 0.6
v -0.2 0.3 0.6
v -0.0999999 0.2 0.6
v -0.0999999 0.3 0.6
v 1.19209e-07 0.2 0.6
v 1.19209e-07 0.3 0.6
v 1.19209e-07 0.5 0.6
v 1.19209e-07 0.7 0.6
v 0.1 0.5 0.6
v 0.1 0.6 0.6
v 0.1 0.7 0.6
v 0.2 0 0.6
v 0.2 0.2 0.6
v 0.2 0.5 0.6
v 0.2 0.6 0.6
v 0.2 0.8 0.6
v 0.3 0 0.6
v 0.3 0.2 0.6
v 0.3 0.6 0.6
v 0.3 0.8 0.6
v -0.2 1 0.5
v -0.2 1.2 0.5
v -0.0999999 1 0.5
v -0.0999999 1.2 0.5
v 0.1 0.2 0.5
v 0.1 0.3 0.5
v 0.2 0.2 0.5
v 0.2 0.3 0.5
v -0.9 0.3 0.4
v -0.9 0.4 0.4
v -0.9 0.5 0.4
v -0.9 0.6 0.4
v -0.7 0.3 0.4
v -0.7 0.4 0.4
v -0.7 0.5 0.4
v -0.7 0.6 0.4
v -0.6 0.3 0.4
v -0.6 0.4 0.4
v -0.6 0.5 0.4
v -0.5 0.4 0.4
v -0.5 0.5 0.4
v -0.4 0.3 0.4
v -0.4 0.5 0.4
v -0.4 1 0.4
v -0.4 1.2 0.4
v -0.3 0.9 0.4
v -0.3 1 0.4
v -0.3 1.2 0.4
v -0.2 0.9 0.4
v -0.2 1 0.4
v -0.2 0.8 0.3
v -0.2 0.9 0.3
v -0.0999999 0.8 0.3
v -0.0999999 0.9 0.3
v -0.0999999 0.8 0.2
v -0.0999999 0.9 0.2
v 1.19209e-07 0.8 0.2
v 1.19209e-07 0.9 0.2
v 0.2 0.2 0.2
v 0.2 0.3 0.2
v 0.3 0 0.2
v 0.3 0.2 0.2
v 0.3 0.3 0.2
v 0.4 0 0.2
v 0.4 0.2 0.2
v -0.2 0.8 0.1
v -0.2 1 0.1
v -0.0999999 0.8 0.1
v -0.0999999 1 0.1
v 0.2 0.5 0
v 0.2 0.6 0
v 0.3 0.5 0
v 0.3 0.6 0
v 0.3 0.8 0
v 0.4 0.6 0
v 0.4 0.8 0
v 0.4 0.9 0
v 0.5 0.8 0
v 0.5 0.9 0
v -0.3 0.8 -0.1
v -0.3 1.1 -0.1
v -0.2 0.8 -0.1
v -0.2 1 -0.1
v -0.2 1.1 -0.1
v -0.2 0.8 -0.2
v -0.2 1 -0.2
v -0.0999999 0.8 -0.2
v -0.0999999 0.9 -0.2
v -0.0999999 1 -0.2
v -0.4 0.2 -0.3
v -0.4 0.3 -0.3
v -0.4 0.6 -0.3
v -0.4 0.7 -0.3
v -0.3 0.2 -0.3
v -0.3 0.3 -0.3
v -0.3 0.6 -0.3
v -0.3 0.7 -0.3
v -0.3 0.8 -0.3
v -0.0999999 0.8 -0.3
v -0.0999999 0.9 -0.3
v -0.0999999 1.1 -0.3
v -0.0999999 1.3 -0.3
v 1.19209e-07 0.7 -0.3
v 1.19209e-07 0.8 -0.3
v 1.19209e-07 0.9 -0.3
v 1.19209e-07 1.1 -0.3
v 1.19209e-07 1.3 -0.3
v 0.1 0.3 -0.3
v 0.1 0.4 -0.3
v 0.1 0.7 -0.3
v 0.1 0.9 -0.3
v 0.1 1 -0.3
v 0.1 1.1 -0.3
v 0.2 0.2 -0.3
v 0.2 0.3 -0.3
v 0.2 0.4 -0.3
v 0.2 0.7 -0.3
v 0.3 0 -0.3
v 0.3 0.2 -0.3
v 0.3 0.3 -0.3
v 0.4 0 -0.3
v 0.4 0.2 -0.3
v -0.4 0.3 -0.4
v -0.4 0.4 -0.4
v -0.4 0.5 -0.4
v -0.4 0.6 -0.4
v -0.3 0.2 -0.4
v -0.3 0.3 -0.4
v -0.3 0.4 -0.4
v -0.3 0.5 -0.4
v -0.3 0.6 -0.4
v -0.3 0.7 -0.4
v 1.19209e-07 0.6 -0.4
v 1.19209e-07 0.7 -0.4
v 1.19209e-07 0.8 -0.4
v 1.19209e-07 0.9 -0.4
v 0.1 0.2 -0.4
v 0.1 0.3 -0.4
v 0.1 0.8 -0.4
v 0.1 0.9 -0.4
v 0.1 1 -0.4
v 0.2 0.9 -0.4
v 0.2 1 -0.4
v 0.2 1.2 -0.4
v 0.3 1 -0.4
v 0.3 1.2 -0.4
v -1 0.3 -0.5
v -1 0.4 -0.5
v -1 0.5 -0.5
v -1 0.6 -0.5
v -0.8 0.3 -0.5
v -0.8 0.4 -0.5
v -0.8 0.5 -0.5
v -0.8 0.6 -0.5
v -0.7 0.4 -0.5
v -0.7 0.5 -0.5
v -0.6 0.3 -0.5
v -0.6 0.4 -0.5
v -0.6 0.5 -0.5
v -0.4 0.3 -0.5
v -0.4 0.4 -0.5
v -0.4 0.5 -0.5
v -0.3 0.4 -0.5
v -0.3 0.5 -0.5
v -0.3 0.6 -0.5
v -0.2 0.3 -0.5
v -0.2 0.4 -0.5
v -0.0999999 0.3 -0.5
v -0.0999999 0.4 -0.5
v 1.19209e-07 0.3 -0.5
v 1.19209e-07 0.4 -0.5
v 1.19209e-07 0.6 -0.5
v 1.19209e-07 0.8 -0.5
v 0.1 0.3 -0.5
v 0.1 0.6 -0.5
v 0.1 0.8 -0.5
v -0.4 0.2 -0.6
v -0.4 0.3 -0.6
v -0.3 0.2 -0.6
v -0.3 0.3 -0.6
v -0.3 0.4 -0.6
v -0.2 0.3 -0.6
v -0.2 0.4 -0.6
v -0.0999999 0.3 -0.6
v -0.0999999 0.4 -0.6
v 1.19209e-07 0.3 -0.6
v 1.19209e-07 0.4 -0.6
v 0.1 0.2 -0.6
v 0.1 0.3 -0.6
v 0.2 0.2 -0.6
v 0.2 0.3 -0.6
v -0.5 0 -0.7
v -0.5 0.2 -0.7
v -0.4 0 -0.7
v -0.4 0.2 -0.7
v -0.0999999 0.2 -0.7
v -0.0999999 0.3 -0.7
v 1.19209e-07 0.2 -0.7
v 1.19209e-07 0.3 -0.7
v 1.19209e-07 0.8 -0.7
v 1.19209e-07 1 -0.7
v 0.1 0.8 -0.7
v 0.1 1 -0.7
v 0.2 0 -0.7
v 0.2 0.2 -0.7
v 0.3 0 -0.7
v 0.3 0.2 -0.7
v -0.0999999 0 -0.8
v -0.0999999 0.2 -0.8
v 1.19209e-07 0 -0.8
v 1.19209e-07 0.2 -0.8
v -0.3 0 0.8
v -0.2 0 0.8
v -0.0999999 0 0.8
v 1.19209e-07 0 0.8
v -0.3 0 0.7
v -0.2 0 0.7
v -0.0999999 0 0.7
v 1.19209e-07 0 0.7
v 0.2 0 0.7
v 0.3 0 0.7
v 0.2 0 0.6
v 0.3 0 0.6
v 0.3 0 0.3
v 0.4 0 0.3
v 0.3 0 0.2
v 0.4 0 0.2
v 0.3 0 -0.2
v 0.4 0 -0.2
v 0.3 0 -0.3
v 0.4 0 -0.3
v -0.5 0 -0.6
v -0.4 0 -0.6
v 0.2 0 -0.6
v 0.3 0 -0.6
v -0.5 0 -0.7
v -0.4 0 -0.7
v -0.0999999 0 -0.7
v 1.19209e-07 0 -0.7
v 0.2 0 -0.7
v 0.3 0 -0.7
v -0.0999999 0 -0.8
v 1.19209e-07 0 -0.8
v -0.3 0.2 0.7
v -0.2 0.2 0.7
v -0.0999999 0.2 0.7
v 1.19209e-07 0.2 0.7
v -0.3 0.2 0.6
v -0.2 0.2 0.6
v -0.0999999 0.2 0.6
v 1.19209e-07 0.2 0.6
v 0.1 0.2 0.6
v 0.2 0.2 0.6
v 0.1 0.2 0.5
v 0.2 0.2 0.5
v -0.3 0.2 0.4
v 0.1 0.2 0.4
v -0.4 0.2 0.3
v -0.3 0.2 0.3
v 0.2 0.2 0.3
v 0.3 0.2 0.3
v 0.2 0.2 0.2
v 0.3 0.2 0.2
v 0.2 0.2 -0.2
v 0.3 0.2 -0.2
v -0.4 0.2 -0.3
v -0.3 0.2 -0.3
v 0.2 0.2 -0.3
v 0.3 0.2 -0.3
v -0.3 0.2 -0.4
v 0.1 0.2 -0.4
v -0.4 0.2 -0.5
v -0.3 0.2 -0.5
v 0.1 0.2 -0.5
v 0.2 0.2 -0.5
v -0.4 0.2 -0.6
v -0.3 0.2 -0.6
v -0.0999999 0.2 -0.6
v 1.19209e-07 0.2 -0.6
v 0.1 0.2 -0.6
v 0.2 0.2 -0.6
v -0.0999999 0.2 -0.7
v 1.19209e-07 0.2 -0.7
v -0.3 0.3 0.6
v -0.2 0.3 0.6
v -0.0999999 0.3 0.6
v 1.19209e-07 0.3 0.6
v -0.9 0.3 0.5
v -0.7 0.3 0.5
v -0.6 0.3 0.5
v -0.4 0.3 0.5
v -0.2 0.3 0.5
v -0.0999999 0.3 0.5
v 1.19209e-07 0.3 0.5
v 0.1 0.3 0.5
v -0.9 0.3 0.4
v -0.7 0.3 0.4
v -0.6 0.3 0.4
v -0.4 0.3 0.4
v -0.3 0.3 0.4
v 0.1 0.3 0.4
v 0.2 0.3 0.4
v -0.4 0.3 0.3
v -0.3 0.3 0.3
v 0.1 0.3 0.3
v 0.2 0.3 0.3
v 0.2 0.3 0.2
v 0.2 0.3 -0.2
v -0.4 0.3 -0.3
v -0.3 0.3 -0.3
v 0.1 0.3 -0.3
v 0.2 0.3 -0.3
v -1 0.3 -0.4
v -0.8 0.3 -0.4
v -0.6 0.3 -0.4
v -0.4 0.3 -0.4
v -0.3 0.3 -0.4
v 0.1 0.3 -0.4
v -1 0.3 -0.5
v -0.8 0.3 -0.5
v -0.6 0.3 -0.5
v -0.4 0.3 -0.5
v -0.3 0.3 -0.5
v -0.2 0.3 -0.5
v -0.0999999 0.3 -0.5
v 1.19209e-07 0.3 -0.5
v 0.1 0.3 -0.5
v -0.3 0.3 -0.6
v -0.2 0.3 -0.6
v -0.0999999 0.3 -0.6
v 1.19209e-07 0.3 -0.6
v 1.19209e-07 0.4 0.6
v 0.1 0.4 0.6
v -0.7 0.4 0.5
v -0.6 0.4 0.5
v -0.4 0.4 0.5
v -0.3 0.4 0.5
v 1.19209e-07 0.4 0.5
v 0.1 0.4 0.5
v -0.7 0.4 0.4
v -0.6 0.4 0.4
v -0.4 0.4 0.4
v -0.3 0.4 0.4
v -0.8 0.4 -0.4
v -0.7 0.4 -0.4
v -0.6 0.4 -0.4
v -0.4 0.4 -0.4
v -0.3 0.4 -0.4
v -0.8 0.4 -0.5
v -0.7 0.4 -0.5
v -0.6 0.4 -0.5
v -0.4 0.4 -0.5
v -0.3 0.4 -0.5
v 1.19209e-07 0.5 0.7
v 0.2 0.5 0.7
v 1.19209e-07 0.5 0.6
v 0.1 0.5 0.6
v 0.2 0.5 0.6
v -0.9 0.5 0.5
v -0.7 0.5 0.5
v -0.9 0.5 0.4
v -0.7 0.5 0.4
v 0.2 0.5 0.1
v 0.3 0.5 0.1
v 0.2 0.5 0
v 0.3 0.5 0
v -1 0.5 -0.4
v -0.8 0.5 -0.4
v -1 0.5 -0.5
v -0.8 0.5 -0.5
v 0.2 0.6 0.7
v 0.3 0.6 0.7
v 0.2 0.6 0.6
v 0.3 0.6 0.6
v 0.3 0.6 0.1
v 0.4 0.6 0.1
v 0.3 0.6 0
v 0.4 0.6 0
v 1.19209e-07 0.7 0.9
v 0.1 0.7 0.9
v 1.19209e-07 0.7 0.7
v 0.1 0.7 0.7
v 0.4 0.8 0.1
v 0.5 0.8 0.1
v 0.4 0.8 0
v 0.5 0.8 0
v 1.19209e-07 0.8 -0.5
v 0.1 0.8 -0.5
v 1.19209e-07 0.8 -0.7
v 0.1 0.8 -0.7
v -0.3 0.9 0.5
v -0.2 0.9 0.5
v -0.3 0.9 0.4
v -0.2 0.9 0.4
v 1.19209e-07 0.9 -0.2
v 0.1 0.9 -0.2
v 1.19209e-07 0.9 -0.3
v 0.1 0.9 -0.3
v 0.2 0.9 -0.3
v 0.1 0.9 -0.4
v 0.2 0.9 -0.4
v -0.2 1 0.6
v -0.0999999 1 0.6
v -0.4 1 0.5
v -0.3 1 0.5
v -0.2 1 0.5
v -0.0999999 1 0.5
v -0.4 1 0.4
v -0.3 1 0.4
v 0.2 1 -0.3
v 0.3 1 -0.3
v 0.2 1 -0.4
v 0.3 1 -0.4
v -0.0999999 1.1 -0.2
v 1.19209e-07 1.1 -0.2
v -0.0999999 1.1 -0.3
v 1.19209e-07 1.1 -0.3
v -0.3 0.2 0.8
v -0.2 0.2 0.8
v -0.0999999 0.2 0.8
v 1.19209e-07 0.2 0.8
v -0.3 0.2 0.7
v -0.2 0.2 0.7
v -0.0999999 0.2 0.7
v 1.19209e-07 0.2 0.7
v 0.2 0.2 0.7
v 0.3 0.2 0.7
v 0.2 0.2 0.6
v 0.3 0.2 0.6
v 0.3 0.2 0.3
v 0.4 0.2 0.3
v 0.3 0.2 0.2
v 0.4 0.2 0.2
v 0.3 0.2 -0.2
v 0.4 0.2 -0.2
v 0.3 0.2 -0.3
v 0.4 0.2 -0.3
v -0.5 0.2 -0.6
v -0.4 0.2 -0.6
v 0.2 0.2 -0.6
v 0.3 0.2 -0.6
v -0.5 0.2 -0.7
v -0.4 0.2 -0.7
v -0.0999999 0.2 -0.7
v 1.19209e-07 0.2 -0.7
v 0.2 0.2 -0.7
v 0.3 0.2 -0.7
v -0.0999999 0.2 -0.8
v 1.19209e-07 0.2 -0.8
v -0.3 0.3 0.7
v -0.2 0.3 0.7
v -0.0999999 0.3 0.7
v 1.19209e-07 0.3 0.7
v -0.3 0.3 0.6
v -0.2 0.3 0.6
v -0.0999999 0.3 0.6
v 1.19209e-07 0.3 0.6
v 0.1 0.3 0.6
v 0.2 0.3 0.6
v 0.1 0.3 0.5
v 0.2 0.3 0.5
v 0.2 0.3 0.3
v 0.3 0.3 0.3
v 0.2 0.3 0.2
v 0.3 0.3 0.2
v 0.2 0.3 -0.2
v 0.3 0.3 -0.2
v 0.2 0.3 -0.3
v 0.3 0.3 -0.3
v -0.4 0.3 -0.5
v -0.3 0.3 -0.5
v 0.1 0.3 -0.5
v 0.2 0.3 -0.5
v -0.4 0.3 -0.6
v -0.3 0.3 -0.6
v -0.0999999 0.3 -0.6
v 1.19209e-07 0.3 -0.6
v 0.1 0.3 -0.6
v 0.2 0.3 -0.6
v -0.0999999 0.3 -0.7
v 1.19209e-07 0.3 -0.7
v -0.3 0.4 0.6
v -0.2 0.4 0.6
v -0.0999999 0.4 0.6
v 1.19209e-07 0.4 0.6
v -0.9 0.4 0.5
v -0.7 0.4 0.5
v -0.6 0.4 0.5
v -0.5 0.4 0.5
v -0.3 0.4 0.5
v -0.2 0.4 0.5
v -0.0999999 0.4 0.5
v 1.19209e-07 0.4 0.5
v -0.9 0.4 0.4
v -0.7 0.4 0.4
v -0.6 0.4 0.4
v -0.5 0.4 0.4
v -1 0.4 -0.4
v -0.8 0.4 -0.4
v -0.6 0.4 -0.4
v -0.4 0.4 -0.4
v -1 0.4 -0.5
v -0.8 0.4 -0.5
v -0.6 0.4 -0.5
v -0.4 0.4 -0.5
v -0.3 0.4 -0.5
v -0.2 0.4 -0.5
v -0.0999999 0.4 -0.5
v 1.19209e-07 0.4 -0.5
v -0.3 0.4 -0.6
v -0.2 0.4 -0.6
v -0.0999999 0.4 -0.6
v 1.19209e-07 0.4 -0.6
v 1.19209e-07 0.5 0.6
v 0.1 0.5 0.6
v -0.7 0.5 0.5
v -0.6 0.5 0.5
v -0.5 0.5 0.5
v -0.3 0.5 0.5
v 1.19209e-07 0.5 0.5
v 0.1 0.5 0.5
v -0.7 0.5 0.4
v -0.6 0.5 0.4
v -0.5 0.5 0.4
v -0.4 0.5 0.4
v -0.3 0.5 0.4
v -0.8 0.5 -0.4
v -0.7 0.5 -0.4
v -0.6 0.5 -0.4
v -0.4 0.5 -0.4
v -0.3 0.5 -0.4
v -0.8 0.5 -0.5
v -0.7 0.5 -0.5
v -0.6 0.5 -0.5
v -0.4 0.5 -0.5
v -0.3 0.5 -0.5
v 0.1 0.6 0.7
v 0.2 0.6 0.7
v 0.1 0.6 0.6
v 0.2 0.6 0.6
v -0.9 0.6 0.5
v -0.7 0.6 0.5
v -0.3 0.6 0.5
v 0.1 0.6 0.5
v -0.9 0.6 0.4
v -0.7 0.6 0.4
v -0.4 0.6 0.4
v -0.3 0.6 0.4
v 0.1 0.6 0.4
v 0.2 0.6 0.4
v -0.4 0.6 0.3
v -0.3 0.6 0.3
v 0.1 0.6 0.3
v 0.2 0.6 0.3
v 0.2 0.6 0.1
v 0.3 0.6 0.1
v 0.2 0.6 0
v 0.3 0.6 0
v -0.4 0.6 -0.3
v -0.3 0.6 -0.3
v -1 0.6 -0.4
v -0.8 0.6 -0.4
v -0.4 0.6 -0.4
v -0.3 0.6 -0.4
v 1.19209e-07 0.6 -0.4
v -1 0.6 -0.5
v -0.8 0.6 -0.5
v -0.3 0.6 -0.5
v 1.19209e-07 0.6 -0.5
v 1.19209e-07 0.7 0.7
v 0.1 0.7 0.7
v 1.19209e-07 0.7 0.6
v 0.1 0.7 0.6
v -0.3 0.7 0.4
v -0.2 0.7 0.4
v -0.0999999 0.7 0.4
v 0.1 0.7 0.4
v -0.4 0.7 0.3
v -0.3 0.7 0.3
v -0.2 0.7 0.3
v -0.0999999 0.7 0.3
v 0.1 0.7 0.3
v 0.2 0.7 0.3
v -0.4 0.7 0.2
v -0.3 0.7 0.2
v -0.4 0.7 0.1
v -0.3 0.7 0.1
v -0.4 0.7 -0.1
v -0.3 0.7 -0.1
v -0.4 0.7 -0.2
v -0.3 0.7 -0.2
v -0.4 0.7 -0.3
v -0.3 0.7 -0.3
v 1.19209e-07 0.7 -0.3
v 0.1 0.7 -0.3
v 0.2 0.7 -0.3
v -0.3 0.7 -0.4
v 1.19209e-07 0.7 -0.4
v 1.19209e-07 0.8 0.9
v 0.1 0.8 0.9
v 1.19209e-07 0.8 0.8
v 0.1 0.8 0.8
v 0.2 0.8 0.7
v 0.3 0.8 0.7
v 0.2 0.8 0.6
v 0.3 0.8 0.6
v -0.3 0.8 0.3
v -0.2 0.8 0.3
v -0.0999999 0.8 0.3
v 1.19209e-07 0.8 0.3
v 0.1 0.8 0.3
v -0.2 0.8 0.2
v -0.0999999 0.8 0.2
v 1.19209e-07 0.8 0.2
v -0.3 0.8 0.1
v -0.2 0.8 0.1
v -0.0999999 0.8 0.1
v 0.3 0.8 0.1
v 0.4 0.8 0.1
v 0.3 0.8 0
v 0.4 0.8 0
v -0.3 0.8 -0.1
v -0.2 0.8 -0.1
v -0.0999999 0.8 -0.1
v -0.2 0.8 -0.2
v -0.0999999 0.8 -0.2
v 1.19209e-07 0.8 -0.2
v -0.3 0.8 -0.3
v -0.0999999 0.8 -0.3
v 1.19209e-07 0.8 -0.3
v 0.1 0.8 -0.3
v 1.19209e-07 0.8 -0.4
v 0.1 0.8 -0.4
v 1.19209e-07 0.8 -0.5
v 0.1 0.8 -0.5
v 1.19209e-07 0.9 0.8
v 0.1 0.9 0.8
v 1.19209e-07 0.9 0.7
v 0.1 0.9 0.7
v -0.2 0.9 0.4
v -0.0999999 0.9 0.4
v -0.2 0.9 0.3
v -0.0999999 0.9 0.3
v 1.19209e-07 0.9 0.3
v -0.0999999 0.9 0.2
v 1.19209e-07 0.9 0.2
v 0.4 0.9 0.1
v 0.5 0.9 0.1
v 0.4 0.9 0
v 0.5 0.9 0
v -0.0999999 0.9 -0.2
v 1.19209e-07 0.9 -0.2
v -0.0999999 0.9 -0.3
v 1.19209e-07 0.9 -0.3
v 0.1 0.9 -0.3
v 1.19209e-07 0.9 -0.4
v 0.1 0.9 -0.4
v 1.19209e-07 0.9 -0.5
v 0.1 0.9 -0.5
v 1.19209e-07 0.9 -0.6
v 0.1 0.9 -0.6
v -0.3 1 0.5
v -0.2 1 0.5
v -0.3 1 0.4
v -0.2 1 0.4
v -0.2 1 0.2
v -0.0999999 1 0.2
v -0.2 1 0.1
v -0.0999999 1 0.1
v -0.2 1 -0.1
v -0.0999999 1 -0.1
v -0.2 1 -0.2
v -0.0999999 1 -0.2
v 0.1 1 -0.3
v 0.2 1 -0.3
v 0.1 1 -0.4
v 0.2 1 -0.4
v 1.19209e-07 1 -0.6
v 0.1 1 -0.6
v 1.19209e-07 1 -0.7
v 0.1 1 -0.7
v -0.3 1.1 0.1
v -0.2 1.1 0.1
v -0.3 1.1 -0.1
v -0.2 1.1 -0.1
v 1.19209e-07 1.1 -0.2
v 0.1 1.1 -0.2
v 1.19209e-07 1.1 -0.3
v 0.1 1.1 -0.3
v -0.2 1.2 0.6
v -0.0999999 1.2 0.6
v -0.4 1.2 0.5
v -0.3 1.2 0.5
v -0.2 1.2 0.5
v -0.0999999 1.2 0.5
v -0.4 1.2 0.4
v -0.3 1.2 0.4
v 0.2 1.2 -0.3
v 0.3 1.2 -0.3
v 0.2 1.2 -0.4
v 0.3 1.2 -0.4
v -0.0999999 1.3 -0.2
v 1.19209e-07 1.3 -0.2
v -0.0999999 1.3 -0.3
v 1.19209e-07 1.3 -0.3

# faces
f 3/3/1 2/3/1 1/3/1
f 4/3/1 2/3/1 3/3/1
f 7/3/1 6/3/1 5/3/1
f 8/3/1 6/3/1 7/3/1
f 11/3/1 10/3/1 9/3/1
f 12/3/1 10/3/1 11/3/1
f 15/3/1 14/3/1 13/3/1
f 16/3/1 14/3/1 15/3/1
f 19/3/1 18/3/1 17/3/1
f 20/3/1 18/3/1 19/3/1
f 23/1/1 22/1/1 21/1/1
f 24/1/1 22/1/1 23/1/1
f 29/1/1 26/1/1 25/1/1
f 30/1/1 26/1/1 29/1/1
f 31/1/1 28/1/1 27/1/1
f 32/1/1 28/1/1 31/1/1
f 35/3/1 34/3/1 33/3/1
f 36/3/1 34/3/1 35/3/1
f 39/1/1 38/1/1 37/1/1
f 40/1/1 38/1/1 39/1/1
f 46/6/1 42/6/1 41/6/1
f 47/6/1 42/6/1 46/6/1
f 48/6/1 42/6/1 47/6/1
f 49/6/1 42/6/1 48/6/1
f 51/1/1 44/1/1 43/1/1
f 52/1/1 44/1/1 51/1/1
f 53/1/1 46/1/1 45/1/1
f 53/1/1 47/1/1 46/1/1
f 53/6/1 48/6/1 47/6/1
f 54/1/1 50/1/1 49/1/1
f 54/6/1 48/6/1 53/6/1
f 54/1/1 49/1/1 48/1/1
f 55/1/1 50/1/1 54/1/1
f 57/1/1 53/1/1 45/1/1
f 57/1/1 56/1/1 55/1/1
f 57/1/1 55/1/1 54/1/1
f 57/1/1 54/1/1 53/1/1
f 58/1/1 56/1/1 57/1/1
f 59/1/1 56/1/1 58/1/1
f 60/1/1 56/1/1 59/1/1
f 61/1/1 56/1/1 60/1/1
f 62/1/1 56/1/1 61/1/1
f 63/1/1 56/1/1 62/1/1
f 64/1/1 58/1/1 57/1/1
f 65/1/1 58/1/1 64/1/1
f 66/1/1 62/1/1 61/1/1
f 67/1/1 62/1/1 66/1/1
f 68/1/1 58/1/1 65/1/1
f 69/2/1 59/2/1 58/2/1
f 69/1/1 58/1/1 68/1/1
f 70/1/1 60/1/1 59/1/1
f 70/2/1 59/2/1 69/2/1
f 71/2/1 61/2/1 60/2/1
f 71/1/1 60/1/1 70/1/1
f 72/1/1 66/1/1 61/1/1
f 72/2/1 61/2/1 71/2/1
f 73/1/1 66/1/1 72/1/1
f 76/5/1 75/5/1 74/5/1
f 77/5/1 75/5/1 76/5/1
f 80/3/1 79/3/1 78/3/1
f 81/3/1 79/3/1 80/3/1
f 87/1/1 82/1/1 81/1/1
f 88/1/1 82/1/1 87/1/1
f 89/6/1 84/6/1 83/6/1
f 90/6/1 84/6/1 89/6/1
f 91/6/1 86/6/1 85/6/1
f 92/6/1 86/6/1 91/6/1
f 95/1/1 89/1/1 88/1/1
f 96/1/1 89/1/1 95/1/1
f 97/1/1 89/1/1 96/1/1
f 98/1/1 94/1/1 93/1/1
f 98/1/1 93/1/1 92/1/1
f 99/1/1 94/1/1 98/1/1
f 100/1/1 94/1/1 99/1/1
f 105/1/1 102/1/1 101/1/1
f 106/1/1 102/1/1 105/1/1
f 109/1/1 104/1/1 103/1/1
f 110/1/1 104/1/1 109/1/1
f 111/1/1 107/1/1 106/1/1
f 112/1/1 107/1/1 111/1/1
f 117/1/1 109/1/1 108/1/1
f 118/1/1 109/1/1 117/1/1
f 119/1/1 116/1/1 115/1/1
f 119/1/1 117/1/1 116/1/1
f 119/1/1 113/1/1 112/1/1
f 119/1/1 115/1/1 114/1/1
f 119/1/1 114/1/1 113/1/1
f 120/1/1 117/1/1 119/1/1
f 121/1/1 117/1/1 120/1/1
f 122/1/1 117/1/1 121/1/1
f 125/5/1 124/5/1 123/5/1
f 126/5/1 124/5/1 125/5/1
f 127/7/1 121/7/1 120/7/1
f 128/7/1 121/7/1 127/7/1
f 131/5/1 130/5/1 129/5/1
f 136/5/1 131/5/1 129/5/1
f 137/5/1 131/5/1 136/5/1
f 140/7/1 133/7/1 132/7/1
f 141/7/1 133/7/1 140/7/1
f 142/7/1 135/7/1 134/7/1
f 143/7/1 135/7/1 142/7/1
f 144/5/1 139/5/1 138/5/1
f 145/5/1 139/5/1 144/5/1
f 150/3/1 147/3/1 146/3/1
f 151/3/1 147/3/1 150/3/1
f 154/3/1 149/3/1 148/3/1
f 155/3/1 149/3/1 154/3/1
f 156/1/1 152/1/1 151/1/1
f 157/1/1 152/1/1 156/1/1
f 160/1/1 154/1/1 153/1/1
f 161/1/1 154/1/1 160/1/1
f 162/1/1 158/1/1 157/1/1
f 163/1/1 158/1/1 162/1/1
f 164/1/1 160/1/1 159/1/1
f 165/1/1 160/1/1 164/1/1
f 170/7/1 167/7/1 166/7/1
f 171/7/1 167/7/1 170/7/1
f 172/7/1 169/7/1 168/7/1
f 173/7/1 169/7/1 172/7/1
f 176/4/1 175/4/1 174/4/1
f 177/4/1 175/4/1 176/4/1
f 181/4/1 179/4/1 178/4/1
f 182/4/1 179/4/1 181/4/1
f 186/4/1 181/4/1 180/4/1
f 187/4/1 181/4/1 186/4/1
f 189/4/1 184/4/1 183/4/1
f 190/4/1 186/4/1 185/4/1
f 191/4/1 186/4/1 190/4/1
f 192/4/1 189/4/1 188/4/1
f 193/4/1 184/4/1 189/4/1
f 193/4/1 189/4/1 192/4/1
f 194/4/1 184/4/1 193/4/1
f 196/4/1 186/4/1 191/4/1
f 197/4/1 186/4/1 196/4/1
f 199/4/1 193/4/1 192/4/1
f 200/4/1 193/4/1 199/4/1
f 201/4/1 195/4/1 194/4/1
f 202/4/1 195/4/1 201/4/1
f 203/4/1 195/4/1 202/4/1
f 204/4/1 195/4/1 203/4/1
f 205/4/1 199/4/1 198/4/1
f 206/4/1 199/4/1 205/4/1
f 211/1/1 208/1/1 207/1/1
f 212/1/1 208/1/1 211/1/1
f 213/1/1 210/1/1 209/1/1
f 214/1/1 210/1/1 213/1/1
f 217/4/1 216/4/1 215/4/1
f 218/4/1 216/4/1 217/4/1
f 223/3/1 220/3/1 219/3/1
f 224/3/1 220/3/1 223/3/1
f 229/3/1 222/3/1 221/3/1
f 230/3/1 222/3/1 229/3/1
f 231/1/1 226/1/1 225/1/1
f 232/1/1 226/1/1 231/1/1
f 233/1/1 228/1/1 227/1/1
f 234/1/1 228/1/1 233/1/1
f 237/4/1 236/4/1 235/4/1
f 238/4/1 236/4/1 237/4/1
f 241/4/1 240/4/1 239/4/1
f 242/4/1 240/4/1 241/4/1
f 247/3/1 244/3/1 243/3/1
f 248/3/1 244/3/1 247/3/1
f 249/3/1 246/3/1 245/3/1
f 250/3/1 246/3/1 249/3/1
f 253/5/1 252/5/1 251/5/1
f 254/5/1 252/5/1 253/5/1
f 257/5/1 256/5/1 255/5/1
f 258/5/1 256/5/1 257/5/1
f 259/3/2 260/3/2 261/3/2
f 261/3/2 260/3/2 262/3/2
f 263/3/2 264/3/2 265/3/2
f 265/3/2 264/3/2 266/3/2
f 267/3/2 268/3/2 269/3/2
f 269/3/2 268/3/2 270/3/2
f 271/3/2 272/3/2 273/3/2
f 273/3/2 272/3/2 274/3/2
f 275/1/2 276/1/2 279/1/2
f 279/1/2 276/1/2 280/1/2
f 277/1/2 278/1/2 281/1/2
f 281/1/2 278/1/2 282/1/2
f 283/3/2 284/3/2 285/3/2
f 285/3/2 284/3/2 286/3/2
f 287/1/2 288/1/2 291/1/2
f 291/1/2 288/1/2 292/1/2
f 289/1/2 290/1/2 293/1/2
f 293/1/2 290/1/2 294/1/2
f 295/1/2 296/1/2 297/1/2
f 297/1/2 296/1/2 298/1/2
f 299/5/2 300/5/2 301/5/2
f 301/5/2 300/5/2 302/5/2
f 303/3/2 304/3/2 305/3/2
f 305/3/2 304/3/2 306/3/2
f 306/1/2 307/1/2 308/1/2
f 308/1/2 307/1/2 309/1/2
f 309/1/2 310/1/2 313/1/2
f 313/1/2 310/1/2 314/1/2
f 311/1/2 312/1/2 315/1/2
f 315/1/2 312/1/2 316/1/2
f 319/5/2 320/5/2 321/5/2
f 321/5/2 320/5/2 322/5/2
f 317/7/2 318/7/2 323/7/2
f 323/7/2 318/7/2 324/7/2
f 323/7/2 324/7/2 325/7/2
f 325/7/2 324/7/2 326/7/2
f 327/5/2 328/5/2 329/5/2
f 327/5/2 329/5/2 334/5/2
f 334/5/2 329/5/2 335/5/2
f 330/7/2 331/7/2 336/7/2
f 332/7/2 333/7/2 337/7/2
f 336/7/2 331/7/2 340/7/2
f 340/7/2 331/7/2 341/7/2
f 332/7/2 337/7/2 342/7/2
f 342/7/2 337/7/2 343/7/2
f 338/5/2 339/5/2 344/5/2
f 344/5/2 339/5/2 345/5/2
f 346/3/2 347/3/2 350/3/2
f 350/3/2 347/3/2 351/3/2
f 348/3/2 349/3/2 354/3/2
f 354/3/2 349/3/2 355/3/2
f 351/1/2 352/1/2 356/1/2
f 356/1/2 352/1/2 357/1/2
f 353/1/2 354/1/2 360/1/2
f 360/1/2 354/1/2 361/1/2
f 357/1/2 358/1/2 362/1/2
f 362/1/2 358/1/2 363/1/2
f 359/1/2 360/1/2 364/1/2
f 364/1/2 360/1/2 365/1/2
f 366/7/2 367/7/2 370/7/2
f 370/7/2 367/7/2 371/7/2
f 368/7/2 369/7/2 372/7/2
f 372/7/2 369/7/2 373/7/2
f 374/4/2 375/4/2 376/4/2
f 376/4/2 375/4/2 377/4/2
f 378/6/2 379/6/2 381/6/2
f 381/6/2 379/6/2 382/6/2
f 382/6/2 379/6/2 383/6/2
f 383/6/2 379/6/2 384/6/2
f 380/1/2 381/1/2 387/1/2
f 383/1/2 384/1/2 388/1/2
f 384/1/2 385/1/2 388/1/2
f 386/4/2 387/4/2 389/4/2
f 387/1/2 381/1/2 390/1/2
f 389/4/2 387/4/2 390/4/2
f 390/1/2 381/1/2 393/1/2
f 393/1/2 381/1/2 394/1/2
f 388/1/2 385/1/2 396/1/2
f 396/1/2 385/1/2 397/1/2
f 391/4/2 392/4/2 399/4/2
f 399/4/2 392/4/2 400/4/2
f 394/1/2 395/1/2 401/1/2
f 401/1/2 395/1/2 402/1/2
f 388/1/2 396/1/2 403/1/2
f 396/4/2 397/4/2 404/4/2
f 403/1/2 396/1/2 404/1/2
f 398/4/2 399/4/2 405/4/2
f 405/4/2 399/4/2 406/4/2
f 402/1/2 403/1/2 407/1/2
f 403/4/2 404/4/2 408/4/2
f 407/1/2 403/1/2 408/1/2
f 404/4/2 397/4/2 409/4/2
f 408/4/2 404/4/2 409/4/2
f 409/4/2 397/4/2 410/4/2
f 406/4/2 399/4/2 412/4/2
f 412/4/2 399/4/2 413/4/2
f 408/4/2 409/4/2 415/4/2
f 415/4/2 409/4/2 416/4/2
f 410/4/2 411/4/2 417/4/2
f 417/4/2 411/4/2 418/4/2
f 414/4/2 415/4/2 419/4/2
f 418/4/2 411/4/2 420/4/2
f 420/4/2 411/4/2 421/4/2
f 414/4/2 419/4/2 422/4/2
f 422/4/2 419/4/2 423/4/2
f 424/1/2 425/1/2 428/1/2
f 428/1/2 425/1/2 429/1/2
f 426/1/2 427/1/2 435/1/2
f 435/1/2 427/1/2 436/1/2
f 433/6/2 434/6/2 437/6/2
f 430/1/2 431/1/2 437/1/2
f 432/6/2 433/6/2 437/6/2
f 431/6/2 432/6/2 437/6/2
f 437/6/2 434/6/2 438/6/2
f 437/1/2 438/1/2 441/1/2
f 441/1/2 438/1/2 442/1/2
f 439/4/2 440/4/2 443/4/2
f 443/4/2 440/4/2 444/4/2
f 430/1/2 437/1/2 445/1/2
f 437/1/2 441/1/2 445/1/2
f 445/1/2 441/1/2 446/1/2
f 446/1/2 441/1/2 447/1/2
f 442/1/2 438/1/2 448/1/2
f 447/1/2 448/1/2 449/1/2
f 446/1/2 447/1/2 449/1/2
f 448/1/2 438/1/2 450/1/2
f 449/1/2 448/1/2 450/1/2
f 451/4/2 452/4/2 453/4/2
f 453/4/2 452/4/2 454/4/2
f 455/3/2 456/3/2 459/3/2
f 459/3/2 456/3/2 460/3/2
f 457/3/2 458/3/2 465/3/2
f 465/3/2 458/3/2 466/3/2
f 461/1/2 462/1/2 467/1/2
f 467/1/2 462/1/2 468/1/2
f 463/1/2 464/1/2 469/1/2
f 469/1/2 464/1/2 470/1/2
f 471/5/2 472/5/2 475/5/2
f 475/5/2 472/5/2 476/5/2
f 473/4/2 474/4/2 477/4/2
f 477/4/2 474/4/2 478/4/2
f 479/4/2 480/4/2 481/4/2
f 481/4/2 480/4/2 482/4/2
f 483/3/2 484/3/2 487/3/2
f 487/3/2 484/3/2 488/3/2
f 485/3/2 486/3/2 489/3/2
f 489/3/2 486/3/2 490/3/2
f 491/5/2 492/5/2 493/5/2
f 493/5/2 492/5/2 494/5/2
f 495/5/2 496/5/2 497/5/2
f 497/5/2 496/5/2 498/5/2
f 501/4/3 500/4/3 499/4/3
f 502/4/3 500/4/3 501/4/3
f 505/3/3 504/3/3 503/3/3
f 506/3/3 504/3/3 505/3/3
f 509/3/3 508/3/3 507/3/3
f 510/3/3 508/3/3 509/3/3
f 513/4/3 512/4/3 511/4/3
f 514/4/3 512/4/3 513/4/3
f 517/1/3 516/1/3 515/1/3
f 518/1/3 516/1/3 517/1/3
f 521/1/3 520/1/3 519/1/3
f 522/1/3 520/1/3 521/1/3
f 525/4/3 524/4/3 523/4/3
f 526/4/3 524/4/3 525/4/3
f 529/4/3 525/4/3 523/4/3
f 530/4/3 525/4/3 529/4/3
f 532/3/3 528/3/3 527/3/3
f 533/3/3 528/3/3 532/3/3
f 534/4/3 531/4/3 530/4/3
f 535/4/3 531/4/3 534/4/3
f 538/1/3 537/1/3 536/1/3
f 539/1/3 537/1/3 538/1/3
f 544/5/3 541/5/3 540/5/3
f 545/5/3 541/5/3 544/5/3
f 546/1/3 543/1/3 542/1/3
f 547/1/3 543/1/3 546/1/3
f 551/4/3 548/4/3 547/4/3
f 552/4/3 548/4/3 551/4/3
f 553/1/3 550/1/3 549/1/3
f 554/1/3 550/1/3 553/1/3
f 559/3/3 556/3/3 555/3/3
f 560/3/3 556/3/3 559/3/3
f 561/3/3 558/3/3 557/3/3
f 562/3/3 558/3/3 561/3/3
f 564/1/3 561/1/3 560/1/3
f 565/1/3 561/1/3 564/1/3
f 566/1/3 564/1/3 563/1/3
f 568/1/3 566/1/3 563/1/3
f 568/1/3 567/1/3 566/1/3
f 569/1/3 567/1/3 568/1/3
f 572/1/3 567/1/3 569/1/3
f 573/1/3 567/1/3 572/1/3
f 576/5/3 571/5/3 570/5/3
f 577/5/3 571/5/3 576/5/3
f 579/1/3 574/1/3 573/1/3
f 579/1/3 573/1/3 572/1/3
f 580/5/3 576/5/3 575/5/3
f 581/5/3 576/5/3 580/5/3
f 582/1/3 579/1/3 578/1/3
f 583/1/3 574/1/3 579/1/3
f 583/1/3 579/1/3 582/1/3
f 585/1/3 574/1/3 583/1/3
f 586/1/3 574/1/3 585/1/3
f 587/1/3 585/1/3 584/1/3
f 588/1/3 585/1/3 587/1/3
f 589/1/3 574/1/3 586/1/3
f 590/1/3 574/1/3 589/1/3
f 596/1/3 592/1/3 591/1/3
f 597/1/3 592/1/3 596/1/3
f 598/1/3 594/1/3 593/1/3
f 599/1/3 594/1/3 598/1/3
f 601/1/3 600/1/3 599/1/3
f 603/1/3 601/1/3 599/1/3
f 603/5/3 602/5/3 601/5/3
f 604/5/3 602/5/3 603/5/3
f 605/6/3 596/6/3 595/6/3
f 606/6/3 596/6/3 605/6/3
f 607/1/3 603/1/3 599/1/3
f 608/1/3 603/1/3 607/1/3
f 609/1/3 607/1/3 606/1/3
f 610/1/3 607/1/3 609/1/3
f 615/6/3 612/6/3 611/6/3
f 616/6/3 612/6/3 615/6/3
f 617/1/3 614/1/3 613/1/3
f 618/1/3 614/1/3 617/1/3
f 620/1/3 619/1/3 618/1/3
f 621/1/3 619/1/3 620/1/3
f 625/1/3 623/1/3 622/1/3
f 625/7/3 624/7/3 623/7/3
f 626/7/3 624/7/3 625/7/3
f 628/1/3 625/1/3 622/1/3
f 629/1/3 625/1/3 628/1/3
f 632/1/3 628/1/3 627/1/3
f 633/1/3 628/1/3 632/1/3
f 635/1/3 631/1/3 630/1/3
f 636/1/3 631/1/3 635/1/3
f 637/3/3 635/3/3 634/3/3
f 638/3/3 635/3/3 637/3/3
f 641/7/3 640/7/3 639/7/3
f 642/7/3 640/7/3 641/7/3
f 643/7/3 640/7/3 642/7/3
f 646/7/3 645/7/3 644/7/3
f 647/7/3 645/7/3 646/7/3
f 648/7/3 645/7/3 647/7/3
f 651/5/3 650/5/3 649/5/3
f 652/5/3 650/5/3 651/5/3
f 654/5/3 653/5/3 652/5/3
f 655/5/3 653/5/3 654/5/3
f 657/5/3 656/5/3 655/5/3
f 658/5/3 656/5/3 657/5/3
f 661/7/3 660/7/3 659/7/3
f 662/7/3 660/7/3 661/7/3
f 667/7/3 664/7/3 663/7/3
f 668/7/3 664/7/3 667/7/3
f 669/4/3 666/4/3 665/4/3
f 670/4/3 666/4/3 669/4/3
f 671/4/3 669/4/3 668/4/3
f 672/4/3 669/4/3 671/4/3
f 676/1/3 674/1/3 673/1/3
f 677/1/3 674/1/3 676/1/3
f 678/3/3 676/3/3 675/3/3
f 679/3/3 676/3/3 678/3/3
f 682/4/3 681/4/3 680/4/3
f 683/4/3 681/4/3 682/4/3
f 685/4/3 684/4/3 683/4/3
f 686/4/3 684/4/3 685/4/3
f 688/4/3 687/4/3 686/4/3
f 689/4/3 687/4/3 688/4/3
f 694/3/3 691/3/3 690/3/3
f 695/3/3 691/3/3 694/3/3
f 696/3/3 693/3/3 692/3/3
f 697/3/3 693/3/3 696/3/3
f 698/3/3 696/3/3 695/3/3
f 699/3/3 696/3/3 698/3/3
f 701/1/3 699/1/3 698/1/3
f 702/1/3 699/1/3 701/1/3
f 703/1/3 701/1/3 700/1/3
f 704/1/3 701/1/3 703/1/3
f 707/1/3 706/1/3 705/1/3
f 708/1/3 706/1/3 707/1/3
f 713/4/3 710/4/3 709/4/3
f 714/4/3 710/4/3 713/4/3
f 715/1/3 712/1/3 711/1/3
f 716/1/3 712/1/3 715/1/3
f 719/3/3 718/3/3 717/3/3
f 720/3/3 718/3/3 719/3/3
f 723/1/3 722/1/3 721/1/3
f 724/1/3 722/1/3 723/1/3
f 727/4/3 726/4/3 725/4/3
f 728/4/3 726/4/3 727/4/3
f 731/3/3 730/3/3 729/3/3
f 732/3/3 730/3/3 731/3/3
f 735/3/3 734/3/3 733/3/3
f 736/3/3 734/3/3 735/3/3
f 737/3/4 738/3/4 739/3/4
f 739/3/4 738/3/4 740/3/4
f 741/3/4 742/3/4 743/3/4
f 743/3/4 742/3/4 744/3/4
f 745/4/4 746/4/4 747/4/4
f 747/4/4 746/4/4 748/4/4
f 749/1/4 750/1/4 751/1/4
f 751/1/4 750/1/4 752/1/4
f 753/1/4 754/1/4 755/1/4
f 755/1/4 754/1/4 756/1/4
f 757/4/4 758/4/4 759/4/4
f 759/4/4 758/4/4 760/4/4
f 760/4/4 758/4/4 761/4/4
f 759/4/4 760/4/4 764/4/4
f 764/4/4 760/4/4 765/4/4
f 762/3/4 763/3/4 767/3/4
f 767/3/4 763/3/4 768/3/4
f 765/4/4 766/4/4 769/4/4
f 769/4/4 766/4/4 770/4/4
f 771/5/4 772/5/4 773/5/4
f 773/5/4 772/5/4 774/5/4
f 775/1/4 776/1/4 777/1/4
f 777/1/4 776/1/4 778/1/4
f 779/3/4 780/3/4 783/3/4
f 783/3/4 780/3/4 784/3/4
f 781/3/4 782/3/4 785/3/4
f 785/3/4 782/3/4 786/3/4
f 784/1/4 785/1/4 788/1/4
f 788/1/4 785/1/4 789/1/4
f 787/1/4 788/1/4 790/1/4
f 787/1/4 790/1/4 792/1/4
f 790/1/4 791/1/4 792/1/4
f 792/1/4 791/1/4 793/1/4
f 794/5/4 795/5/4 797/5/4
f 797/5/4 795/5/4 798/5/4
f 796/5/4 797/5/4 799/5/4
f 799/5/4 797/5/4 800/5/4
f 801/5/4 802/5/4 803/5/4
f 803/5/4 802/5/4 804/5/4
f 805/7/4 806/7/4 807/7/4
f 807/7/4 806/7/4 808/7/4
f 809/1/4 810/1/4 812/1/4
f 812/1/4 810/1/4 813/1/4
f 811/3/4 812/3/4 814/3/4
f 814/3/4 812/3/4 815/3/4
f 816/7/4 817/7/4 818/7/4
f 818/7/4 817/7/4 819/7/4
f 820/5/4 821/5/4 822/5/4
f 822/5/4 821/5/4 823/5/4
f 823/5/4 824/5/4 825/5/4
f 825/5/4 824/5/4 826/5/4
f 826/5/4 827/5/4 828/5/4
f 828/5/4 827/5/4 829/5/4
f 830/7/4 831/7/4 832/7/4
f 832/7/4 831/7/4 833/7/4
f 833/7/4 831/7/4 834/7/4
f 835/7/4 836/7/4 837/7/4
f 837/7/4 836/7/4 838/7/4
f 838/7/4 836/7/4 839/7/4
f 840/6/4 841/6/4 844/6/4
f 844/6/4 841/6/4 845/6/4
f 842/1/4 843/1/4 846/1/4
f 846/1/4 843/1/4 847/1/4
f 847/1/4 848/1/4 849/1/4
f 847/1/4 849/1/4 853/1/4
f 849/7/4 850/7/4 854/7/4
f 853/1/4 849/1/4 854/1/4
f 854/7/4 850/7/4 855/7/4
f 851/4/4 852/4/4 856/4/4
f 856/4/4 852/4/4 857/4/4
f 855/4/4 856/4/4 861/4/4
f 861/4/4 856/4/4 862/4/4
f 862/4/4 856/4/4 863/4/4
f 858/6/4 859/6/4 865/6/4
f 859/1/4 860/1/4 866/1/4
f 865/6/4 859/6/4 866/6/4
f 866/1/4 860/1/4 867/1/4
f 864/1/4 865/1/4 869/1/4
f 869/1/4 865/1/4 870/1/4
f 868/3/4 869/3/4 871/3/4
f 871/3/4 869/3/4 872/3/4
f 873/1/4 874/1/4 878/1/4
f 878/1/4 874/1/4 879/1/4
f 875/1/4 876/1/4 880/1/4
f 880/1/4 876/1/4 881/1/4
f 881/1/4 882/1/4 883/1/4
f 883/1/4 882/1/4 884/1/4
f 877/6/4 878/6/4 887/6/4
f 887/6/4 878/6/4 888/6/4
f 885/4/4 886/4/4 889/4/4
f 889/4/4 886/4/4 890/4/4
f 890/4/4 891/4/4 892/4/4
f 892/4/4 891/4/4 893/4/4
f 893/4/4 894/4/4 895/4/4
f 895/4/4 894/4/4 896/4/4
f 897/3/4 898/3/4 901/3/4
f 901/3/4 898/3/4 902/3/4
f 899/3/4 900/3/4 903/3/4
f 903/3/4 900/3/4 904/3/4
f 902/3/4 903/3/4 905/3/4
f 905/3/4 903/3/4 906/3/4
f 905/1/4 906/1/4 908/1/4
f 908/1/4 906/1/4 909/1/4
f 907/1/4 908/1/4 910/1/4
f 910/1/4 908/1/4 911/1/4
f 911/1/4 912/1/4 913/1/4
f 913/1/4 912/1/4 914/1/4
f 913/1/4 914/1/4 917/1/4
f 914/1/4 915/1/4 917/1/4
f 916/1/4 917/1/4 918/1/4
f 917/1/4 915/1/4 919/1/4
f 918/1/4 917/1/4 919/1/4
f 919/1/4 915/1/4 921/1/4
f 921/1/4 915/1/4 922/1/4
f 921/1/4 922/1/4 924/1/4
f 920/1/4 921/1/4 924/1/4
f 922/4/4 923/4/4 925/4/4
f 924/1/4 922/1/4 925/1/4
f 925/4/4 923/4/4 926/4/4
f 927/1/4 928/1/4 929/1/4
f 929/1/4 928/1/4 930/1/4
f 930/1/4 931/1/4 932/1/4
f 932/1/4 931/1/4 933/1/4
f 934/1/4 935/1/4 936/1/4
f 936/1/4 935/1/4 937/1/4
f 938/1/4 939/1/4 940/1/4
f 940/1/4 939/1/4 941/1/4
f 942/3/4 943/3/4 944/3/4
f 944/3/4 943/3/4 945/3/4
f 946/1/4 947/1/4 948/1/4
f 948/1/4 947/1/4 949/1/4
f 950/4/4 951/4/4 952/4/4
f 952/4/4 951/4/4 953/4/4
f 954/3/4 955/3/4 956/3/4
f 956/3/4 955/3/4 957/3/4
f 958/3/4 959/3/4 960/3/4
f 960/3/4 959/3/4 961/3/4
f 966/3/5 963/3/5 962/3/5
f 967/3/5 963/3/5 966/3/5
f 968/3/5 965/3/5 964/3/5
f 969/3/5 965/3/5 968/3/5
f 972/3/5 971/3/5 970/3/5
f 973/3/5 971/3/5 972/3/5
f 976/3/5 975/3/5 974/3/5
f 977/3/5 975/3/5 976/3/5
f 980/3/5 979/3/5 978/3/5
f 981/3/5 979/3/5 980/3/5
f 986/3/5 983/3/5 982/3/5
f 987/3/5 983/3/5 986/3/5
f 990/3/5 985/3/5 984/3/5
f 991/3/5 985/3/5 990/3/5
f 992/3/5 989/3/5 988/3/5
f 993/3/5 989/3/5 992/3/5
f 998/1/5 995/1/5 994/1/5
f 999/1/5 995/1/5 998/1/5
f 1000/1/5 997/1/5 996/1/5
f 1001/1/5 997/1/5 1000/1/5
f 1004/1/5 1003/1/5 1002/1/5
f 1005/1/5 1003/1/5 1004/1/5
f 1009/6/5 1007/6/5 1006/6/5
f 1012/1/5 1011/1/5 1010/1/5
f 1013/1/5 1011/1/5 1012/1/5
f 1016/6/5 1009/6/5 1008/6/5
f 1017/6/5 1007/6/5 1009/6/5
f 1017/6/5 1009/6/5 1016/6/5
f 1018/1/5 1015/1/5 1014/1/5
f 1019/1/5 1015/1/5 1018/1/5
f 1020/6/5 1007/6/5 1017/6/5
f 1021/6/5 1007/6/5 1020/6/5
f 1026/1/5 1023/1/5 1022/1/5
f 1027/1/5 1023/1/5 1026/1/5
f 1030/1/5 1025/1/5 1024/1/5
f 1031/1/5 1025/1/5 1030/1/5
f 1032/1/5 1029/1/5 1028/1/5
f 1033/1/5 1029/1/5 1032/1/5
f 1042/1/5 1035/1/5 1034/1/5
f 1043/1/5 1037/1/5 1036/1/5
f 1044/1/5 1037/1/5 1043/1/5
f 1046/3/5 1039/3/5 1038/3/5
f 1047/3/5 1039/3/5 1046/3/5
f 1048/1/5 1041/1/5 1040/1/5
f 1049/1/5 1041/1/5 1048/1/5
f 1050/1/5 1042/1/5 1034/1/5
f 1050/1/5 1045/1/5 1044/1/5
f 1050/1/5 1043/1/5 1042/1/5
f 1050/1/5 1044/1/5 1043/1/5
f 1051/1/5 1045/1/5 1050/1/5
f 1053/1/5 1050/1/5 1049/1/5
f 1054/1/5 1050/1/5 1053/1/5
f 1055/1/5 1052/1/5 1051/1/5
f 1056/1/5 1052/1/5 1055/1/5
f 1057/6/5 1056/6/5 1055/6/5
f 1058/6/5 1057/6/5 1055/6/5
f 1061/6/5 1058/6/5 1055/6/5
f 1062/6/5 1058/6/5 1061/6/5
f 1066/1/5 1060/1/5 1059/1/5
f 1067/1/5 1060/1/5 1066/1/5
f 1069/3/5 1064/3/5 1063/3/5
f 1070/3/5 1064/3/5 1069/3/5
f 1071/1/5 1066/1/5 1065/1/5
f 1072/1/5 1066/1/5 1071/1/5
f 1073/1/5 1068/1/5 1067/1/5
f 1074/1/5 1068/1/5 1073/1/5
f 1075/1/5 1068/1/5 1074/1/5
f 1076/1/5 1068/1/5 1075/1/5
f 1077/1/5 1068/1/5 1076/1/5
f 1078/1/5 1074/1/5 1073/1/5
f 1079/1/5 1074/1/5 1078/1/5
f 1080/1/5 1076/1/5 1075/1/5
f 1081/1/5 1076/1/5 1080/1/5
f 1088/4/5 1083/4/5 1082/4/5
f 1089/4/5 1083/4/5 1088/4/5
f 1090/1/5 1085/1/5 1084/1/5
f 1091/1/5 1085/1/5 1090/1/5
f 1092/1/5 1087/1/5 1086/1/5
f 1093/1/5 1087/1/5 1092/1/5
f 1099/3/5 1095/3/5 1094/3/5
f 1100/1/5 1096/1/5 1095/1/5
f 1100/3/5 1095/3/5 1099/3/5
f 1101/1/5 1096/1/5 1100/1/5
f 1102/1/5 1098/1/5 1097/1/5
f 1103/1/5 1098/1/5 1102/1/5
f 1106/4/5 1105/4/5 1104/4/5
f 1107/4/5 1105/4/5 1106/4/5
f 1108/4/5 1105/4/5 1107/4/5
f 1111/3/5 1110/3/5 1109/3/5
f 1112/3/5 1110/3/5 1111/3/5
f 1115/5/5 1114/5/5 1113/5/5
f 1116/5/5 1114/5/5 1115/5/5
f 1119/3/5 1118/3/5 1117/3/5
f 1120/3/5 1118/3/5 1119/3/5
f 1123/4/5 1122/4/5 1121/4/5
f 1124/4/5 1122/4/5 1123/4/5
f 1127/5/5 1126/5/5 1125/5/5
f 1128/5/5 1126/5/5 1127/5/5
f 1131/4/5 1130/4/5 1129/4/5
f 1132/4/5 1130/4/5 1131/4/5
f 1135/5/5 1134/5/5 1133/5/5
f 1136/5/5 1134/5/5 1135/5/5
f 1139/4/5 1138/4/5 1137/4/5
f 1140/4/5 1138/4/5 1139/4/5
f 1143/5/5 1142/5/5 1141/5/5
f 1144/5/5 1142/5/5 1143/5/5
f 1147/4/5 1146/4/5 1145/4/5
f 1148/4/5 1146/4/5 1147/4/5
f 1150/4/5 1149/4/5 1148/4/5
f 1151/4/5 1149/4/5 1150/4/5
f 1156/5/5 1153/5/5 1152/5/5
f 1157/5/5 1153/5/5 1156/5/5
f 1158/5/5 1155/5/5 1154/5/5
f 1159/5/5 1155/5/5 1158/5/5
f 1162/4/5 1161/4/5 1160/4/5
f 1163/4/5 1161/4/5 1162/4/5
f 1166/4/5 1165/4/5 1164/4/5
f 1167/4/5 1165/4/5 1166/4/5
f 1168/3/6 1169/3/6 1172/3/6
f 1172/3/6 1169/3/6 1173/3/6
f 1170/3/6 1171/3/6 1174/3/6
f 1174/3/6 1171/3/6 1175/3/6
f 1176/3/6 1177/3/6 1178/3/6
f 1178/3/6 1177/3/6 1179/3/6
f 1180/3/6 1181/3/6 1182/3/6
f 1182/3/6 1181/3/6 1183/3/6
f 1184/3/6 1185/3/6 1186/3/6
f 1186/3/6 1185/3/6 1187/3/6
f 1188/3/6 1189/3/6 1192/3/6
f 1192/3/6 1189/3/6 1193/3/6
f 1190/3/6 1191/3/6 1196/3/6
f 1196/3/6 1191/3/6 1197/3/6
f 1194/3/6 1195/3/6 1198/3/6
f 1198/3/6 1195/3/6 1199/3/6
f 1200/1/6 1201/1/6 1204/1/6
f 1204/1/6 1201/1/6 1205/1/6
f 1202/1/6 1203/1/6 1206/1/6
f 1206/1/6 1203/1/6 1207/1/6
f 1208/1/6 1209/1/6 1210/1/6
f 1210/1/6 1209/1/6 1211/1/6
f 1212/1/6 1213/1/6 1214/1/6
f 1214/1/6 1213/1/6 1215/1/6
f 1216/1/6 1217/1/6 1218/1/6
f 1218/1/6 1217/1/6 1219/1/6
f 1220/1/6 1221/1/6 1224/1/6
f 1224/1/6 1221/1/6 1225/1/6
f 1222/1/6 1223/1/6 1228/1/6
f 1228/1/6 1223/1/6 1229/1/6
f 1226/1/6 1227/1/6 1230/1/6
f 1230/1/6 1227/1/6 1231/1/6
f 1232/1/6 1233/1/6 1240/1/6
f 1240/1/6 1233/1/6 1241/1/6
f 1234/1/6 1235/1/6 1242/1/6
f 1242/1/6 1235/1/6 1243/1/6
f 1236/3/6 1237/3/6 1244/3/6
f 1244/3/6 1237/3/6 1245/3/6
f 1238/1/6 1239/1/6 1246/1/6
f 1246/1/6 1239/1/6 1247/1/6
f 1248/3/6 1249/3/6 1252/3/6
f 1252/3/6 1249/3/6 1253/3/6
f 1250/1/6 1251/1/6 1254/1/6
f 1254/1/6 1251/1/6 1255/1/6
f 1256/1/6 1257/1/6 1260/1/6
f 1260/1/6 1257/1/6 1261/1/6
f 1258/1/6 1259/1/6 1262/1/6
f 1262/1/6 1259/1/6 1263/1/6
f 1264/4/6 1265/4/6 1270/4/6
f 1270/4/6 1265/4/6 1271/4/6
f 1266/1/6 1267/1/6 1272/1/6
f 1272/1/6 1267/1/6 1273/1/6
f 1268/1/6 1269/1/6 1274/1/6
f 1274/1/6 1269/1/6 1275/1/6
f 1275/1/6 1269/1/6 1276/1/6
f 1277/3/6 1278/3/6 1282/3/6
f 1278/1/6 1279/1/6 1283/1/6
f 1282/3/6 1278/3/6 1283/3/6
f 1283/1/6 1279/1/6 1284/1/6
f 1280/1/6 1281/1/6 1285/1/6
f 1285/1/6 1281/1/6 1286/1/6
f 1287/4/6 1288/4/6 1289/4/6
f 1289/4/6 1288/4/6 1290/4/6
f 1291/3/6 1292/3/6 1295/3/6
f 1295/3/6 1292/3/6 1296/3/6
f 1293/1/6 1294/1/6 1298/1/6
f 1298/1/6 1294/1/6 1299/1/6
f 1297/1/6 1298/1/6 1301/1/6
f 1301/1/6 1298/1/6 1302/1/6
f 1299/1/6 1300/1/6 1303/1/6
f 1303/1/6 1300/1/6 1304/1/6
f 1305/5/6 1306/5/6 1307/5/6
f 1307/5/6 1306/5/6 1308/5/6
f 1309/1/6 1310/1/6 1313/1/6
f 1313/1/6 1310/1/6 1314/1/6
f 1311/3/6 1312/3/6 1316/3/6
f 1316/3/6 1312/3/6 1317/3/6
f 1314/1/6 1315/1/6 1318/1/6
f 1318/1/6 1315/1/6 1319/1/6
f 1320/4/6 1321/4/6 1322/4/6
f 1322/4/6 1321/4/6 1323/4/6
f 1324/1/6 1325/1/6 1329/1/6
f 1329/1/6 1325/1/6 1330/1/6
f 1326/1/6 1327/1/6 1331/1/6
f 1331/1/6 1327/1/6 1332/1/6
f 1328/1/6 1329/1/6 1334/1/6
f 1334/1/6 1329/1/6 1335/1/6
f 1334/2/6 1335/2/6 1336/2/6
f 1336/2/6 1335/2/6 1337/2/6
f 1336/1/6 1337/1/6 1338/1/6
f 1338/1/6 1337/1/6 1339/1/6
f 1338/2/6 1339/2/6 1340/2/6
f 1340/2/6 1339/2/6 1341/2/6
f 1340/1/6 1341/1/6 1342/1/6
f 1342/1/6 1341/1/6 1343/1/6
f 1332/1/6 1333/1/6 1345/1/6
f 1345/1/6 1333/1/6 1346/1/6
f 1343/1/6 1344/1/6 1347/1/6
f 1347/1/6 1344/1/6 1348/1/6
f 1349/4/6 1350/4/6 1351/4/6
f 1351/4/6 1350/4/6 1352/4/6
f 1353/4/6 1354/4/6 1355/4/6
f 1355/4/6 1354/4/6 1356/4/6
f 1357/1/6 1358/1/6 1362/1/6
f 1358/1/6 1359/1/6 1362/1/6
f 1362/1/6 1359/1/6 1363/1/6
f 1360/1/6 1361/1/6 1364/1/6
f 1357/1/6 1362/1/6 1365/1/6
f 1365/1/6 1362/1/6 1366/1/6
f 1363/1/6 1364/1/6 1367/1/6
f 1368/5/6 1369/5/6 1370/5/6
f 1370/5/6 1369/5/6 1371/5/6
f 1366/1/6 1367/1/6 1373/1/6
f 1367/1/6 1364/1/6 1374/1/6
f 1373/1/6 1367/1/6 1374/1/6
f 1372/1/6 1373/1/6 1375/1/6
f 1374/1/6 1364/1/6 1376/1/6
f 1364/1/6 1361/1/6 1377/1/6
f 1376/1/6 1364/1/6 1377/1/6
f 1372/1/6 1375/1/6 1378/1/6
f 1375/1/6 1376/1/6 1378/1/6
f 1378/1/6 1376/1/6 1379/1/6
f 1377/1/6 1361/1/6 1380/1/6
f 1380/1/6 1361/1/6 1381/1/6
f 1382/4/6 1383/4/6 1384/4/6
f 1384/4/6 1383/4/6 1385/4/6
f 1386/4/6 1387/4/6 1388/4/6
f 1388/4/6 1387/4/6 1389/4/6
f 1390/5/6 1391/5/6 1392/5/6
f 1392/5/6 1391/5/6 1393/5/6
f 1393/7/6 1394/7/6 1395/7/6
f 1395/7/6 1394/7/6 1396/7/6
f 1397/5/6 1398/5/6 1399/5/6
f 1399/5/6 1398/5/6 1400/5/6
f 1401/7/6 1402/7/6 1403/7/6
f 1403/7/6 1402/7/6 1404/7/6
f 1404/4/6 1405/4/6 1406/4/6
f 1406/4/6 1405/4/6 1407/4/6
f 1408/4/6 1409/4/6 1410/4/6
f 1410/4/6 1409/4/6 1411/4/6
f 1412/5/6 1413/5/6 1414/5/6
f 1414/5/6 1413/5/6 1415/5/6
f 1416/7/6 1417/7/6 1418/7/6
f 1418/7/6 1417/7/6 1419/7/6
f 1420/7/6 1421/7/6 1422/7/6
f 1422/7/6 1421/7/6 1423/7/6
f 1424/4/6 1425/4/6 1426/4/6
f 1426/4/6 1425/4/6 1427/4/6
f 1428/4/6 1429/4/6 1430/4/6
f 1430/4/6 1429/4/6 1431/4/6
f 1432/7/6 1433/7/6 1434/7/6
f 1434/7/6 1433/7/6 1435/7/6
f 1436/4/6 1437/4/6 1438/4/6
f 1438/4/6 1437/4/6 1439/4/6
f 1440/5/6 1441/5/6 1444/5/6
f 1444/5/6 1441/5/6 1445/5/6
f 1442/5/6 1443/5/6 1446/5/6
f 1446/5/6 1443/5/6 1447/5/6
f 1448/4/6 1449/4/6 1450/4/6
f 1450/4/6 1449/4/6 1451/4/6
f 1452/4/6 1453/4/6 1454/4/6
f 1454/4/6 1453/4/6 1455/4/6
