# MagicaVoxel @ Ephtracy

# group
o 

# material
mtllib Sting_Ray.mtl
usemtl palette

# normals
vn -1 0 0
vn 1 0 0
vn 0 0 1
vn 0 0 -1
vn 0 -1 0
vn 0 1 0

# texcoords
vt 0.0332031 0.5
vt 0.0410156 0.5
vt 0.0449219 0.5
vt 0.0644531 0.5
vt 0.0683594 0.5
vt 0.0722656 0.5
vt 0.0761719 0.5
vt 0.0800781 0.5
vt 0.0839844 0.5
vt 0.0878906 0.5
vt 0.0917969 0.5

# verts
v -1.8 0.8 0.3
v -1.8 0.8 0.2
v -1.8 0.8 0.1
v -1.8 0.8 0
v -1.8 0.8 -0.1
v -1.8 0.8 -0.2
v -1.8 0.8 -0.3
v -1.8 0.8 -0.4
v -1.8 0.9 0.3
v -1.8 0.9 0.2
v -1.8 0.9 0.1
v -1.8 0.9 0
v -1.8 0.9 -0.1
v -1.8 0.9 -0.2
v -1.8 0.9 -0.3
v -1.8 0.9 -0.4
v -1.7 0.8 0.9
v -1.7 0.8 0.8
v -1.7 0.8 0.7
v -1.7 0.8 0.6
v -1.7 0.8 0.5
v -1.7 0.8 0.4
v -1.7 0.8 0.3
v -1.7 0.8 -0.4
v -1.7 0.8 -0.5
v -1.7 0.8 -0.6
v -1.7 0.8 -0.7
v -1.7 0.8 -0.8
v -1.7 0.8 -0.9
v -1.7 0.8 -1
v -1.7 0.9 0.9
v -1.7 0.9 0.8
v -1.7 0.9 0.7
v -1.7 0.9 0.6
v -1.7 0.9 0.5
v -1.7 0.9 0.4
v -1.7 0.9 0.3
v -1.7 0.9 -0.4
v -1.7 0.9 -0.5
v -1.7 0.9 -0.6
v -1.7 0.9 -0.7
v -1.7 0.9 -0.8
v -1.7 0.9 -0.9
v -1.7 0.9 -1
v -1.6 0.8 1.1
v -1.6 0.8 0.9
v -1.6 0.8 -1
v -1.6 0.8 -1.1
v -1.6 0.8 -1.2
v -1.6 0.9 1.1
v -1.6 0.9 0.9
v -1.6 0.9 0.6
v -1.6 0.9 0.5
v -1.6 0.9 0.4
v -1.6 0.9 0.2
v -1.6 0.9 0.1
v -1.6 0.9 0
v -1.6 0.9 -0.1
v -1.6 0.9 -0.2
v -1.6 0.9 -0.3
v -1.6 0.9 -0.4
v -1.6 0.9 -1
v -1.6 0.9 -1.1
v -1.6 0.9 -1.2
v -1.6 1 0.6
v -1.6 1 0.5
v -1.6 1 0.4
v -1.6 1 0.2
v -1.6 1 0
v -1.6 1 -0.1
v -1.6 1 -0.2
v -1.6 1 -0.3
v -1.6 1 -0.4
v -1.5 0.8 1.2
v -1.5 0.8 1.1
v -1.5 0.9 1.2
v -1.5 0.9 1.1
v -1.5 0.9 0.8
v -1.5 0.9 0.7
v -1.5 0.9 0.6
v -1.5 0.9 -0.4
v -1.5 0.9 -0.5
v -1.5 0.9 -0.6
v -1.5 0.9 -0.7
v -1.5 0.9 -0.8
v -1.5 1 0.8
v -1.5 1 0.7
v -1.5 1 0.6
v -1.5 1 -0.4
v -1.5 1 -0.5
v -1.5 1 -0.6
v -1.5 1 -0.7
v -1.5 1 -0.8
v -1.4 0.8 -1.2
v -1.4 0.8 -1.3
v -1.4 0.9 0.9
v -1.4 0.9 0.8
v -1.4 0.9 -0.8
v -1.4 0.9 -0.9
v -1.4 0.9 -1
v -1.4 0.9 -1.1
v -1.4 0.9 -1.2
v -1.4 0.9 -1.3
v -1.4 1 0.9
v -1.4 1 0.8
v -1.4 1 -0.8
v -1.4 1 -0.9
v -1.4 1 -1
v -1.4 1 -1.1
v -1.3 0.8 1.3
v -1.3 0.8 1.2
v -1.3 0.8 -1.3
v -1.3 0.8 -1.4
v -1.3 0.9 1.3
v -1.3 0.9 1.2
v -1.3 0.9 1.1
v -1.3 0.9 1
v -1.3 0.9 0.9
v -1.3 0.9 -1.1
v -1.3 0.9 -1.2
v -1.3 0.9 -1.3
v -1.3 0.9 -1.4
v -1.3 1 1.1
v -1.3 1 1
v -1.3 1 0.9
v -1.3 1 0.2
v -1.3 1 0.1
v -1.3 1 0
v -1.3 1 -0.1
v -1.3 1 -0.2
v -1.3 1 -1.1
v -1.3 1 -1.2
v -1.3 1.1 0.2
v -1.3 1.1 0.1
v -1.3 1.1 0
v -1.3 1.1 -0.1
v -1.3 1.1 -0.2
v -1.2 0.8 1.4
v -1.2 0.8 1.3
v -1.2 0.9 1.4
v -1.2 0.9 1.3
v -1.2 0.9 1.2
v -1.2 0.9 1.1
v -1.2 0.9 -1.2
v -1.2 0.9 -1.3
v -1.2 1 1.2
v -1.2 1 1.1
v -1.2 1 0.3
v -1.2 1 0.2
v -1.2 1 -0.2
v -1.2 1 -0.3
v -1.2 1 -1.2
v -1.2 1 -1.3
v -1.2 1.1 0.3
v -1.2 1.1 0.2
v -1.2 1.1 -0.2
v -1.2 1.1 -0.3
v -1.1 0.8 -1.4
v -1.1 0.8 -1.5
v -1.1 0.9 1.3
v -1.1 0.9 1.2
v -1.1 0.9 -1.3
v -1.1 0.9 -1.4
v -1.1 0.9 -1.5
v -1.1 1 1.3
v -1.1 1 1.2
v -1.1 1 0.4
v -1.1 1 0.3
v -1.1 1 -0.3
v -1.1 1 -0.4
v -1.1 1 -1.3
v -1.1 1 -1.4
v -1.1 1.1 0.4
v -1.1 1.1 0.3
v -1.1 1.1 -0.3
v -1.1 1.1 -0.4
v -1 0.8 1.5
v -1 0.8 1.4
v -1 0.9 1.5
v -1 0.9 1.4
v -1 1 0.5
v -1 1 0.4
v -1 1 -0.4
v -1 1 -0.5
v -1 1.1 0.5
v -1 1.1 0.4
v -1 1.1 -0.4
v -1 1.1 -0.5
v -0.8 0.8 1.5
v -0.8 0.8 1.4
v -0.8 0.8 -1.4
v -0.8 0.8 -1.5
v -0.8 0.9 1.5
v -0.8 0.9 1.4
v -0.8 0.9 -1.4
v -0.8 0.9 -1.5
v -0.5 0.9 1.3
v -0.5 0.9 1.2
v -0.5 1 1.3
v -0.5 1 1.2
v -0.5 1 0.5
v -0.5 1 0.4
v -0.5 1 -0.4
v -0.5 1 -0.5
v -0.5 1.1 0.5
v -0.5 1.1 0.4
v -0.5 1.1 -0.4
v -0.5 1.1 -0.5
v -0.4 0.8 1.4
v -0.4 0.8 1.3
v -0.4 0.8 -1.3
v -0.4 0.8 -1.4
v -0.4 0.9 1.4
v -0.4 0.9 1.3
v -0.4 0.9 1.2
v -0.4 0.9 1.1
v -0.4 0.9 -1.3
v -0.4 0.9 -1.4
v -0.4 1 1.2
v -0.4 1 1.1
v -0.4 1 -1.3
v -0.4 1 -1.4
v -0.3 0.8 1.3
v -0.3 0.8 1.2
v -0.3 0.9 1.3
v -0.3 0.9 1.2
v -0.3 0.9 1.1
v -0.3 0.9 1
v -0.3 0.9 -1.1
v -0.3 0.9 -1.2
v -0.3 0.9 -1.3
v -0.3 1 1.1
v -0.3 1 1
v -0.3 1 0.4
v -0.3 1 0.3
v -0.3 1 -0.3
v -0.3 1 -0.4
v -0.3 1 -1.1
v -0.3 1 -1.3
v -0.3 1.1 0.4
v -0.3 1.1 0.3
v -0.3 1.1 -0.3
v -0.3 1.1 -0.4
v -0.2 0.8 1.2
v -0.2 0.8 1.1
v -0.2 0.8 1
v -0.2 0.8 -1.1
v -0.2 0.8 -1.2
v -0.2 0.8 -1.3
v -0.2 0.9 1.2
v -0.2 0.9 1.1
v -0.2 0.9 1
v -0.2 0.9 0.9
v -0.2 0.9 0.8
v -0.2 0.9 -0.9
v -0.2 0.9 -1
v -0.2 0.9 -1.1
v -0.2 0.9 -1.2
v -0.2 0.9 -1.3
v -0.2 1 1
v -0.2 1 0.9
v -0.2 1 0.8
v -0.2 1 -0.9
v -0.2 1 -1
v -0.2 1 -1.1
v -0.0999999 0.8 1
v -0.0999999 0.8 0.9
v -0.0999999 0.8 0.8
v -0.0999999 0.8 -0.9
v -0.0999999 0.8 -1.1
v -0.0999999 0.9 1
v -0.0999999 0.9 0.9
v -0.0999999 0.9 0.8
v -0.0999999 0.9 0.7
v -0.0999999 0.9 0.6
v -0.0999999 0.9 -0.6
v -0.0999999 0.9 -0.7
v -0.0999999 0.9 -0.9
v -0.0999999 0.9 -1.1
v -0.0999999 1 0.8
v -0.0999999 1 0.7
v -0.0999999 1 0.6
v -0.0999999 1 0.3
v -0.0999999 1 0.2
v -0.0999999 1 -0.2
v -0.0999999 1 -0.3
v -0.0999999 1 -0.6
v -0.0999999 1 -0.7
v -0.0999999 1 -0.9
v -0.0999999 1.1 0.3
v -0.0999999 1.1 0.2
v -0.0999999 1.1 -0.2
v -0.0999999 1.1 -0.3
v 0 0.8 0.8
v 0 0.8 0.7
v 0 0.8 0.6
v 0 0.8 -0.7
v 0 0.8 -0.9
v 0 0.9 0.8
v 0 0.9 0.7
v 0 0.9 0.6
v 0 0.9 0.5
v 0 0.9 0.4
v 0 0.9 0.3
v 0 0.9 0
v 0 0.9 -0.1
v 0 0.9 -0.2
v 0 0.9 -0.3
v 0 0.9 -0.4
v 0 0.9 -0.5
v 0 0.9 -0.6
v 0 0.9 -0.7
v 0 0.9 -0.9
v 0 1 0.6
v 0 1 0.5
v 0 1 0.4
v 0 1 0.3
v 0 1 0.2
v 0 1 0.1
v 0 1 0
v 0 1 -0.1
v 0 1 -0.2
v 0 1 -0.3
v 0 1 -0.4
v 0 1 -0.5
v 0 1 -0.6
v 0 1.1 0.2
v 0 1.1 0.1
v 0 1.1 0
v 0 1.1 -0.1
v 0 1.1 -0.2
v 0.1 0.8 0.6
v 0.1 0.8 0.5
v 0.1 0.8 0.4
v 0.1 0.8 0.1
v 0.1 0.8 -0.2
v 0.1 0.8 -0.4
v 0.1 0.8 -0.5
v 0.1 0.8 -0.6
v 0.1 0.8 -0.7
v 0.1 0.9 0.6
v 0.1 0.9 0.5
v 0.1 0.9 0.4
v 0.1 0.9 0.1
v 0.1 0.9 -0.2
v 0.1 0.9 -0.4
v 0.1 0.9 -0.5
v 0.1 0.9 -0.6
v 0.1 0.9 -0.7
v 0.2 0.8 0.1
v 0.2 0.8 0
v 0.2 0.8 -0.1
v 0.2 0.8 -0.2
v 0.2 0.9 0.1
v 0.2 0.9 0
v 0.2 0.9 -0.1
v 0.2 0.9 -0.2
v 1.8 0.8 0
v 1.8 0.8 -0.1
v 1.8 0.9 0
v 1.8 0.9 -0.1
v -1 0.8 1.5
v -1 0.9 1.5
v -0.9 0.8 1.5
v -0.9 0.9 1.5
v -0.8 0.8 1.5
v -0.8 0.9 1.5
v -1.2 0.8 1.4
v -1.2 0.9 1.4
v -1.1 0.8 1.4
v -1.1 0.9 1.4
v -1 0.8 1.4
v -1 0.9 1.4
v -0.8 0.8 1.4
v -0.8 0.9 1.4
v -0.7 0.8 1.4
v -0.7 0.9 1.4
v -0.6 0.8 1.4
v -0.6 0.9 1.4
v -0.5 0.8 1.4
v -0.5 0.9 1.4
v -0.4 0.8 1.4
v -0.4 0.9 1.4
v -1.3 0.8 1.3
v -1.3 0.9 1.3
v -1.2 0.8 1.3
v -1.2 0.9 1.3
v -1.1 0.9 1.3
v -1.1 1 1.3
v -1 0.9 1.3
v -1 1 1.3
v -0.9 0.9 1.3
v -0.9 1 1.3
v -0.8 0.9 1.3
v -0.7 0.9 1.3
v -0.6 0.9 1.3
v -0.6 1 1.3
v -0.5 0.9 1.3
v -0.5 1 1.3
v -0.4 0.8 1.3
v -0.4 0.9 1.3
v -0.3 0.8 1.3
v -0.3 0.9 1.3
v -1.5 0.8 1.2
v -1.5 0.9 1.2
v -1.4 0.8 1.2
v -1.4 0.9 1.2
v -1.3 0.8 1.2
v -1.3 0.9 1.2
v -1.2 0.9 1.2
v -1.2 1 1.2
v -1.1 0.9 1.2
v -1.1 1 1.2
v -0.5 0.9 1.2
v -0.5 1 1.2
v -0.4 0.9 1.2
v -0.4 1 1.2
v -0.3 0.8 1.2
v -0.3 0.9 1.2
v -0.2 0.8 1.2
v -0.2 0.9 1.2
v -1.6 0.8 1.1
v -1.6 0.9 1.1
v -1.5 0.8 1.1
v -1.5 0.9 1.1
v -1.3 0.9 1.1
v -1.3 1 1.1
v -1.2 0.9 1.1
v -1.2 1 1.1
v -0.4 0.9 1.1
v -0.4 1 1.1
v -0.3 0.9 1.1
v -0.3 1 1.1
v -0.3 0.9 1
v -0.3 1 1
v -0.2 0.8 1
v -0.2 0.9 1
v -0.2 1 1
v -0.0999999 0.8 1
v -0.0999999 0.9 1
v -1.7 0.8 0.9
v -1.7 0.9 0.9
v -1.6 0.8 0.9
v -1.6 0.9 0.9
v -1.4 0.9 0.9
v -1.4 1 0.9
v -1.3 0.9 0.9
v -1.3 1 0.9
v -1.5 0.9 0.8
v -1.5 1 0.8
v -1.4 0.9 0.8
v -1.4 1 0.8
v -0.2 0.9 0.8
v -0.2 1 0.8
v -0.0999999 0.8 0.8
v -0.0999999 0.9 0.8
v -0.0999999 1 0.8
v 0 0.8 0.8
v 0 0.9 0.8
v -1.6 0.9 0.6
v -1.6 1 0.6
v -1.5 0.9 0.6
v -1.5 1 0.6
v -0.0999999 0.9 0.6
v -0.0999999 1 0.6
v 0 0.8 0.6
v 0 0.9 0.6
v 0 1 0.6
v 0.1 0.8 0.6
v 0.1 0.9 0.6
v -1 1 0.5
v -1 1.1 0.5
v -0.9 1 0.5
v -0.9 1.1 0.5
v -0.8 1 0.5
v -0.8 1.1 0.5
v -0.7 1 0.5
v -0.7 1.1 0.5
v -0.6 1 0.5
v -0.6 1.1 0.5
v -0.5 1 0.5
v -0.5 1.1 0.5
v -1.1 1 0.4
v -1.1 1.1 0.4
v -1 1 0.4
v -1 1.1 0.4
v -0.5 1 0.4
v -0.5 1.1 0.4
v -0.4 1 0.4
v -0.4 1.1 0.4
v -0.3 1 0.4
v -0.3 1.1 0.4
v -1.8 0.8 0.3
v -1.8 0.9 0.3
v -1.7 0.8 0.3
v -1.7 0.9 0.3
v -1.2 1 0.3
v -1.2 1.1 0.3
v -1.1 1 0.3
v -1.1 1.1 0.3
v -0.3 1 0.3
v -0.3 1.1 0.3
v -0.2 1 0.3
v -0.2 1.1 0.3
v -0.0999999 1 0.3
v -0.0999999 1.1 0.3
v -1.3 1 0.2
v -1.3 1.1 0.2
v -1.2 1 0.2
v -1.2 1.1 0.2
v -0.0999999 1 0.2
v -0.0999999 1.1 0.2
v 0 1 0.2
v 0 1.1 0.2
v 0.1 0.8 0.1
v 0.1 0.9 0.1
v 0.2 0.8 0.1
v 0.2 0.9 0.1
v 0.2 0.8 0
v 0.2 0.9 0
v 1.8 0.8 0
v 1.8 0.9 0
v 0.2 0.8 -0.1
v 0.2 0.9 -0.1
v 1.8 0.8 -0.1
v 1.8 0.9 -0.1
v -1.3 1 -0.2
v -1.3 1.1 -0.2
v -1.2 1 -0.2
v -1.2 1.1 -0.2
v -0.0999999 1 -0.2
v -0.0999999 1.1 -0.2
v 0 1 -0.2
v 0 1.1 -0.2
v 0.1 0.8 -0.2
v 0.1 0.9 -0.2
v 0.2 0.8 -0.2
v 0.2 0.9 -0.2
v -1.2 1 -0.3
v -1.2 1.1 -0.3
v -1.1 1 -0.3
v -1.1 1.1 -0.3
v -0.3 1 -0.3
v -0.3 1.1 -0.3
v -0.2 1 -0.3
v -0.2 1.1 -0.3
v -0.0999999 1 -0.3
v -0.0999999 1.1 -0.3
v -1.8 0.8 -0.4
v -1.8 0.9 -0.4
v -1.7 0.8 -0.4
v -1.7 0.9 -0.4
v -1.6 0.9 -0.4
v -1.6 1 -0.4
v -1.5 0.9 -0.4
v -1.5 1 -0.4
v -1.1 1 -0.4
v -1.1 1.1 -0.4
v -1 1 -0.4
v -1 1.1 -0.4
v -0.5 1 -0.4
v -0.5 1.1 -0.4
v -0.4 1 -0.4
v -0.4 1.1 -0.4
v -0.3 1 -0.4
v -0.3 1.1 -0.4
v -1 1 -0.5
v -1 1.1 -0.5
v -0.9 1 -0.5
v -0.9 1.1 -0.5
v -0.8 1 -0.5
v -0.7 1 -0.5
v -0.7 1.1 -0.5
v -0.6 1 -0.5
v -0.6 1.1 -0.5
v -0.5 1 -0.5
v -0.5 1.1 -0.5
v -0.0999999 0.9 -0.6
v -0.0999999 1 -0.6
v 0 0.9 -0.6
v 0 1 -0.6
v 0 0.8 -0.7
v 0 0.9 -0.7
v 0.1 0.8 -0.7
v 0.1 0.9 -0.7
v -1.5 0.9 -0.8
v -1.5 1 -0.8
v -1.4 0.9 -0.8
v -1.4 1 -0.8
v -0.2 0.9 -0.9
v -0.2 1 -0.9
v -0.0999999 0.8 -0.9
v -0.0999999 0.9 -0.9
v -0.0999999 1 -0.9
v 0 0.8 -0.9
v 0 0.9 -0.9
v -1.7 0.8 -1
v -1.7 0.9 -1
v -1.6 0.8 -1
v -1.6 0.9 -1
v -1.4 0.9 -1.1
v -1.4 1 -1.1
v -1.3 0.9 -1.1
v -1.3 1 -1.1
v -0.3 0.9 -1.1
v -0.3 1 -1.1
v -0.2 0.8 -1.1
v -0.2 0.9 -1.1
v -0.2 1 -1.1
v -0.0999999 0.8 -1.1
v -0.0999999 0.9 -1.1
v -1.6 0.8 -1.2
v -1.6 0.9 -1.2
v -1.5 0.8 -1.2
v -1.5 0.9 -1.2
v -1.4 0.8 -1.2
v -1.4 0.9 -1.2
v -1.3 0.9 -1.2
v -1.3 1 -1.2
v -1.2 0.9 -1.2
v -1.2 1 -1.2
v -1.4 0.8 -1.3
v -1.4 0.9 -1.3
v -1.3 0.8 -1.3
v -1.3 0.9 -1.3
v -1.2 0.9 -1.3
v -1.2 1 -1.3
v -1.1 0.9 -1.3
v -1.1 1 -1.3
v -0.4 0.8 -1.3
v -0.4 0.9 -1.3
v -0.4 1 -1.3
v -0.3 0.8 -1.3
v -0.3 0.9 -1.3
v -0.3 1 -1.3
v -0.2 0.8 -1.3
v -0.2 0.9 -1.3
v -1.3 0.8 -1.4
v -1.3 0.9 -1.4
v -1.2 0.8 -1.4
v -1.2 0.9 -1.4
v -1.1 0.8 -1.4
v -1.1 0.9 -1.4
v -1.1 1 -1.4
v -1 0.9 -1.4
v -1 1 -1.4
v -0.9 0.9 -1.4
v -0.9 1 -1.4
v -0.8 0.8 -1.4
v -0.8 0.9 -1.4
v -0.7 0.8 -1.4
v -0.7 0.9 -1.4
v -0.7 1 -1.4
v -0.6 0.9 -1.4
v -0.6 1 -1.4
v -0.5 0.8 -1.4
v -0.5 0.9 -1.4
v -0.5 1 -1.4
v -0.4 0.8 -1.4
v -0.4 0.9 -1.4
v -0.4 1 -1.4
v -1.1 0.8 -1.5
v -1.1 0.9 -1.5
v -1 0.8 -1.5
v -1 0.9 -1.5
v -0.9 0.8 -1.5
v -0.9 0.9 -1.5
v -0.8 0.8 -1.5
v -0.8 0.9 -1.5
v -1 0.8 1.5
v -0.9 0.8 1.5
v -0.8 0.8 1.5
v -1.2 0.8 1.4
v -1.1 0.8 1.4
v -1 0.8 1.4
v -0.9 0.8 1.4
v -0.8 0.8 1.4
v -0.7 0.8 1.4
v -0.6 0.8 1.4
v -0.5 0.8 1.4
v -0.4 0.8 1.4
v -1.3 0.8 1.3
v -1.2 0.8 1.3
v -1.1 0.8 1.3
v -1 0.8 1.3
v -0.9 0.8 1.3
v -0.8 0.8 1.3
v -0.7 0.8 1.3
v -0.6 0.8 1.3
v -0.5 0.8 1.3
v -0.4 0.8 1.3
v -0.3 0.8 1.3
v -1.5 0.8 1.2
v -1.4 0.8 1.2
v -1.3 0.8 1.2
v -1.2 0.8 1.2
v -1 0.8 1.2
v -0.9 0.8 1.2
v -0.8 0.8 1.2
v -0.7 0.8 1.2
v -0.6 0.8 1.2
v -0.5 0.8 1.2
v -0.4 0.8 1.2
v -0.3 0.8 1.2
v -0.2 0.8 1.2
v -1.6 0.8 1.1
v -1.5 0.8 1.1
v -1.4 0.8 1.1
v -1.3 0.8 1.1
v -1.2 0.8 1.1
v -1.1 0.8 1.1
v -1 0.8 1.1
v -0.9 0.8 1.1
v -0.8 0.8 1.1
v -0.7 0.8 1.1
v -0.6 0.8 1.1
v -0.5 0.8 1.1
v -0.4 0.8 1.1
v -0.3 0.8 1.1
v -0.2 0.8 1.1
v -1.5 0.8 1
v -1.4 0.8 1
v -1.3 0.8 1
v -1.2 0.8 1
v -1.1 0.8 1
v -1 0.8 1
v -0.9 0.8 1
v -0.8 0.8 1
v -0.7 0.8 1
v -0.6 0.8 1
v -0.5 0.8 1
v -0.4 0.8 1
v -0.3 0.8 1
v -0.2 0.8 1
v -0.0999999 0.8 1
v -1.7 0.8 0.9
v -1.6 0.8 0.9
v -1.5 0.8 0.9
v -1.4 0.8 0.9
v -1.3 0.8 0.9
v -1.2 0.8 0.9
v -1.1 0.8 0.9
v -1 0.8 0.9
v -0.9 0.8 0.9
v -0.8 0.8 0.9
v -0.7 0.8 0.9
v -0.6 0.8 0.9
v -0.5 0.8 0.9
v -0.4 0.8 0.9
v -0.3 0.8 0.9
v -0.2 0.8 0.9
v -0.0999999 0.8 0.9
v -1.7 0.8 0.8
v -1.6 0.8 0.8
v -1.5 0.8 0.8
v -1.4 0.8 0.8
v -1.3 0.8 0.8
v -1.2 0.8 0.8
v -1.1 0.8 0.8
v -1 0.8 0.8
v -0.9 0.8 0.8
v -0.8 0.8 0.8
v -0.7 0.8 0.8
v -0.6 0.8 0.8
v -0.5 0.8 0.8
v -0.4 0.8 0.8
v -0.3 0.8 0.8
v -0.2 0.8 0.8
v -0.0999999 0.8 0.8
v 0 0.8 0.8
v -1.7 0.8 0.7
v -1.6 0.8 0.7
v -1.5 0.8 0.7
v -1.4 0.8 0.7
v -1.3 0.8 0.7
v -1.2 0.8 0.7
v -1.1 0.8 0.7
v -0.7 0.8 0.7
v -0.6 0.8 0.7
v -0.5 0.8 0.7
v -0.4 0.8 0.7
v -0.3 0.8 0.7
v -0.2 0.8 0.7
v -0.0999999 0.8 0.7
v 0 0.8 0.7
v -1.7 0.8 0.6
v -1.6 0.8 0.6
v -1.5 0.8 0.6
v -1.4 0.8 0.6
v -1.3 0.8 0.6
v -1.2 0.8 0.6
v -0.4 0.8 0.6
v -0.3 0.8 0.6
v -0.2 0.8 0.6
v -0.0999999 0.8 0.6
v 0 0.8 0.6
v 0.1 0.8 0.6
v -1.7 0.8 0.5
v -1.6 0.8 0.5
v -1.5 0.8 0.5
v -1.4 0.8 0.5
v -0.7 0.8 0.5
v -0.6 0.8 0.5
v -0.2 0.8 0.5
v -0.0999999 0.8 0.5
v 0 0.8 0.5
v 0.1 0.8 0.5
v -1.7 0.8 0.4
v -1.6 0.8 0.4
v -1.5 0.8 0.4
v -1.4 0.8 0.4
v -1.3 0.8 0.4
v -0.0999999 0.8 0.4
v 0 0.8 0.4
v 0.1 0.8 0.4
v -1.8 0.8 0.3
v -1.7 0.8 0.3
v -1.6 0.8 0.3
v -1.5 0.8 0.3
v -1.4 0.8 0.3
v -1.3 0.8 0.3
v -1 0.8 0.3
v -0.9 0.8 0.3
v -1.8 0.8 0.2
v -1.7 0.8 0.2
v -1.6 0.8 0.2
v -1.5 0.8 0.2
v -1.4 0.8 0.2
v -1.3 0.8 0.2
v -1 0.8 0.2
v -0.9 0.8 0.2
v -1.8 0.8 0.1
v -1.7 0.8 0.1
v -1.6 0.8 0.1
v -1.5 0.8 0.1
v -1.4 0.8 0.1
v -1.3 0.8 0.1
v 0.1 0.8 0.1
v 0.2 0.8 0.1
v -1.8 0.8 0
v -1.7 0.8 0
v -1.6 0.8 0
v -1.5 0.8 0
v -1.4 0.8 0
v -1.3 0.8 0
v 0.2 0.8 0
v 1.8 0.8 0
v -1.8 0.8 -0.1
v -1.7 0.8 -0.1
v -1.6 0.8 -0.1
v -1.5 0.8 -0.1
v -1.4 0.8 -0.1
v -1.3 0.8 -0.1
v 0.2 0.8 -0.1
v 1.8 0.8 -0.1
v -1.8 0.8 -0.2
v -1.7 0.8 -0.2
v -1.6 0.8 -0.2
v -1.5 0.8 -0.2
v -1.4 0.8 -0.2
v -1.3 0.8 -0.2
v -1 0.8 -0.2
v -0.9 0.8 -0.2
v 0.1 0.8 -0.2
v 0.2 0.8 -0.2
v -1.8 0.8 -0.3
v -1.7 0.8 -0.3
v -1.6 0.8 -0.3
v -1.5 0.8 -0.3
v -1.4 0.8 -0.3
v -1.3 0.8 -0.3
v -1 0.8 -0.3
v -0.9 0.8 -0.3
v -1.8 0.8 -0.4
v -1.7 0.8 -0.4
v -1.6 0.8 -0.4
v -1.5 0.8 -0.4
v -1.4 0.8 -0.4
v -1.3 0.8 -0.4
v -0.0999999 0.8 -0.4
v 0 0.8 -0.4
v 0.1 0.8 -0.4
v -1.7 0.8 -0.5
v -1.6 0.8 -0.5
v -1.5 0.8 -0.5
v -1.4 0.8 -0.5
v -0.7 0.8 -0.5
v -0.6 0.8 -0.5
v -0.2 0.8 -0.5
v -0.0999999 0.8 -0.5
v 0 0.8 -0.5
v 0.1 0.8 -0.5
v -1.7 0.8 -0.6
v -1.6 0.8 -0.6
v -1.5 0.8 -0.6
v -1.4 0.8 -0.6
v -1.3 0.8 -0.6
v -1.2 0.8 -0.6
v -0.4 0.8 -0.6
v -0.3 0.8 -0.6
v -0.2 0.8 -0.6
v -0.0999999 0.8 -0.6
v 0 0.8 -0.6
v 0.1 0.8 -0.6
v -1.7 0.8 -0.7
v -1.6 0.8 -0.7
v -1.5 0.8 -0.7
v -1.4 0.8 -0.7
v -1.3 0.8 -0.7
v -1.2 0.8 -0.7
v -1.1 0.8 -0.7
v -0.7 0.8 -0.7
v -0.6 0.8 -0.7
v -0.4 0.8 -0.7
v -0.3 0.8 -0.7
v -0.2 0.8 -0.7
v -0.0999999 0.8 -0.7
v 0 0.8 -0.7
v 0.1 0.8 -0.7
v -1.7 0.8 -0.8
v -1.6 0.8 -0.8
v -1.5 0.8 -0.8
v -1.3 0.8 -0.8
v -1.2 0.8 -0.8
v -1.1 0.8 -0.8
v -1 0.8 -0.8
v -0.9 0.8 -0.8
v -0.8 0.8 -0.8
v -0.7 0.8 -0.8
v -0.6 0.8 -0.8
v -0.5 0.8 -0.8
v -0.4 0.8 -0.8
v -0.3 0.8 -0.8
v -0.2 0.8 -0.8
v -1.7 0.8 -0.9
v -1.6 0.8 -0.9
v -1.4 0.8 -0.9
v -1.3 0.8 -0.9
v -1.2 0.8 -0.9
v -1.1 0.8 -0.9
v -1 0.8 -0.9
v -0.9 0.8 -0.9
v -0.8 0.8 -0.9
v -0.7 0.8 -0.9
v -0.5 0.8 -0.9
v -0.4 0.8 -0.9
v -0.3 0.8 -0.9
v -0.2 0.8 -0.9
v -0.0999999 0.8 -0.9
v 0 0.8 -0.9
v -1.7 0.8 -1
v -1.6 0.8 -1
v -1.4 0.8 -1
v -1.3 0.8 -1
v -1.2 0.8 -1
v -1.1 0.8 -1
v -1 0.8 -1
v -0.9 0.8 -1
v -0.6 0.8 -1
v -0.5 0.8 -1
v -0.4 0.8 -1
v -0.3 0.8 -1
v -0.2 0.8 -1
v -1.6 0.8 -1.1
v -1.5 0.8 -1.1
v -1.4 0.8 -1.1
v -1.3 0.8 -1.1
v -1.2 0.8 -1.1
v -1.1 0.8 -1.1
v -1 0.8 -1.1
v -0.9 0.8 -1.1
v -0.8 0.8 -1.1
v -0.7 0.8 -1.1
v -0.6 0.8 -1.1
v -0.5 0.8 -1.1
v -0.4 0.8 -1.1
v -0.3 0.8 -1.1
v -0.2 0.8 -1.1
v -0.0999999 0.8 -1.1
v -1.6 0.8 -1.2
v -1.5 0.8 -1.2
v -1.4 0.8 -1.2
v -1.3 0.8 -1.2
v -1.2 0.8 -1.2
v -1.1 0.8 -1.2
v -1 0.8 -1.2
v -0.9 0.8 -1.2
v -0.8 0.8 -1.2
v -0.7 0.8 -1.2
v -0.6 0.8 -1.2
v -0.5 0.8 -1.2
v -0.4 0.8 -1.2
v -0.3 0.8 -1.2
v -0.2 0.8 -1.2
v -1.4 0.8 -1.3
v -1.3 0.8 -1.3
v -1.2 0.8 -1.3
v -1.1 0.8 -1.3
v -1 0.8 -1.3
v -0.9 0.8 -1.3
v -0.8 0.8 -1.3
v -0.7 0.8 -1.3
v -0.6 0.8 -1.3
v -0.5 0.8 -1.3
v -0.4 0.8 -1.3
v -0.3 0.8 -1.3
v -0.2 0.8 -1.3
v -1.3 0.8 -1.4
v -1.2 0.8 -1.4
v -1.1 0.8 -1.4
v -1 0.8 -1.4
v -0.9 0.8 -1.4
v -0.8 0.8 -1.4
v -0.7 0.8 -1.4
v -0.5 0.8 -1.4
v -0.4 0.8 -1.4
v -1.1 0.8 -1.5
v -1 0.8 -1.5
v -0.9 0.8 -1.5
v -0.8 0.8 -1.5
v -1 0.9 1.5
v -0.9 0.9 1.5
v -0.8 0.9 1.5
v -1.2 0.9 1.4
v -1.1 0.9 1.4
v -1 0.9 1.4
v -0.9 0.9 1.4
v -0.8 0.9 1.4
v -0.7 0.9 1.4
v -0.6 0.9 1.4
v -0.5 0.9 1.4
v -0.4 0.9 1.4
v -1.3 0.9 1.3
v -1.2 0.9 1.3
v -1.1 0.9 1.3
v -1 0.9 1.3
v -0.9 0.9 1.3
v -0.8 0.9 1.3
v -0.7 0.9 1.3
v -0.6 0.9 1.3
v -0.5 0.9 1.3
v -0.4 0.9 1.3
v -0.3 0.9 1.3
v -1.5 0.9 1.2
v -1.4 0.9 1.2
v -1.3 0.9 1.2
v -1.2 0.9 1.2
v -1.1 0.9 1.2
v -0.5 0.9 1.2
v -0.4 0.9 1.2
v -0.3 0.9 1.2
v -0.2 0.9 1.2
v -1.6 0.9 1.1
v -1.5 0.9 1.1
v -1.4 0.9 1.1
v -1.3 0.9 1.1
v -1.2 0.9 1.1
v -0.4 0.9 1.1
v -0.3 0.9 1.1
v -0.2 0.9 1.1
v -1.5 0.9 1
v -1.4 0.9 1
v -1.3 0.9 1
v -0.3 0.9 1
v -0.2 0.9 1
v -0.0999999 0.9 1
v -1.7 0.9 0.9
v -1.6 0.9 0.9
v -1.5 0.9 0.9
v -1.4 0.9 0.9
v -1.3 0.9 0.9
v -0.2 0.9 0.9
v -0.0999999 0.9 0.9
v -1.7 0.9 0.8
v -1.6 0.9 0.8
v -1.5 0.9 0.8
v -1.4 0.9 0.8
v -0.2 0.9 0.8
v -0.0999999 0.9 0.8
v 0 0.9 0.8
v -1.7 0.9 0.7
v -1.6 0.9 0.7
v -1.5 0.9 0.7
v -0.0999999 0.9 0.7
v 0 0.9 0.7
v -1.7 0.9 0.6
v -1.6 0.9 0.6
v -1.5 0.9 0.6
v -0.0999999 0.9 0.6
v 0 0.9 0.6
v 0.1 0.9 0.6
v -1.7 0.9 0.5
v -1.6 0.9 0.5
v 0 0.9 0.5
v 0.1 0.9 0.5
v -1.7 0.9 0.4
v -1.6 0.9 0.4
v 0 0.9 0.4
v 0.1 0.9 0.4
v -1.8 0.9 0.3
v -1.7 0.9 0.3
v 0 0.9 0.3
v -1.8 0.9 0.2
v -1.7 0.9 0.2
v -1.6 0.9 0.2
v -1.8 0.9 0.1
v -1.7 0.9 0.1
v -1.6 0.9 0.1
v 0.1 0.9 0.1
v 0.2 0.9 0.1
v -1.8 0.9 0
v -1.7 0.9 0
v -1.6 0.9 0
v 0 0.9 0
v 0.2 0.9 0
v 1.8 0.9 0
v -1.8 0.9 -0.1
v -1.7 0.9 -0.1
v -1.6 0.9 -0.1
v 0 0.9 -0.1
v 0.2 0.9 -0.1
v 1.8 0.9 -0.1
v -1.8 0.9 -0.2
v -1.7 0.9 -0.2
v -1.6 0.9 -0.2
v 0 0.9 -0.2
v 0.1 0.9 -0.2
v 0.2 0.9 -0.2
v -1.8 0.9 -0.3
v -1.7 0.9 -0.3
v -1.6 0.9 -0.3
v 0 0.9 -0.3
v -1.8 0.9 -0.4
v -1.7 0.9 -0.4
v -1.6 0.9 -0.4
v -1.5 0.9 -0.4
v 0 0.9 -0.4
v 0.1 0.9 -0.4
v -1.7 0.9 -0.5
v -1.6 0.9 -0.5
v -1.5 0.9 -0.5
v 0 0.9 -0.5
v 0.1 0.9 -0.5
v -1.7 0.9 -0.6
v -1.6 0.9 -0.6
v -1.5 0.9 -0.6
v -0.0999999 0.9 -0.6
v 0 0.9 -0.6
v 0.1 0.9 -0.6
v -1.7 0.9 -0.7
v -1.6 0.9 -0.7
v -1.5 0.9 -0.7
v -0.0999999 0.9 -0.7
v 0 0.9 -0.7
v 0.1 0.9 -0.7
v -1.7 0.9 -0.8
v -1.6 0.9 -0.8
v -1.5 0.9 -0.8
v -1.4 0.9 -0.8
v -1.7 0.9 -0.9
v -1.6 0.9 -0.9
v -1.4 0.9 -0.9
v -0.2 0.9 -0.9
v -0.0999999 0.9 -0.9
v 0 0.9 -0.9
v -1.7 0.9 -1
v -1.6 0.9 -1
v -1.4 0.9 -1
v -0.2 0.9 -1
v -1.6 0.9 -1.1
v -1.5 0.9 -1.1
v -1.4 0.9 -1.1
v -1.3 0.9 -1.1
v -0.3 0.9 -1.1
v -0.2 0.9 -1.1
v -0.0999999 0.9 -1.1
v -1.6 0.9 -1.2
v -1.5 0.9 -1.2
v -1.4 0.9 -1.2
v -1.3 0.9 -1.2
v -1.2 0.9 -1.2
v -0.3 0.9 -1.2
v -0.2 0.9 -1.2
v -1.4 0.9 -1.3
v -1.3 0.9 -1.3
v -1.2 0.9 -1.3
v -1.1 0.9 -1.3
v -0.3 0.9 -1.3
v -0.2 0.9 -1.3
v -1.3 0.9 -1.4
v -1.2 0.9 -1.4
v -1.1 0.9 -1.4
v -1 0.9 -1.4
v -0.9 0.9 -1.4
v -0.8 0.9 -1.4
v -1.1 0.9 -1.5
v -1 0.9 -1.5
v -0.9 0.9 -1.5
v -0.8 0.9 -1.5
v -1.1 1 1.3
v -1 1 1.3
v -0.9 1 1.3
v -0.6 1 1.3
v -0.5 1 1.3
v -1.2 1 1.2
v -1.1 1 1.2
v -1 1 1.2
v -0.9 1 1.2
v -0.8 1 1.2
v -0.7 1 1.2
v -0.6 1 1.2
v -0.5 1 1.2
v -0.4 1 1.2
v -1.3 1 1.1
v -1.2 1 1.1
v -1.1 1 1.1
v -1 1 1.1
v -0.9 1 1.1
v -0.8 1 1.1
v -0.7 1 1.1
v -0.6 1 1.1
v -0.5 1 1.1
v -0.4 1 1.1
v -0.3 1 1.1
v -1.3 1 1
v -1.2 1 1
v -1.1 1 1
v -1 1 1
v -0.9 1 1
v -0.8 1 1
v -0.7 1 1
v -0.6 1 1
v -0.5 1 1
v -0.4 1 1
v -0.3 1 1
v -0.2 1 1
v -1.4 1 0.9
v -1.3 1 0.9
v -1.2 1 0.9
v -1.1 1 0.9
v -1 1 0.9
v -0.9 1 0.9
v -0.8 1 0.9
v -0.7 1 0.9
v -0.6 1 0.9
v -0.5 1 0.9
v -0.4 1 0.9
v -0.3 1 0.9
v -0.2 1 0.9
v -1.5 1 0.8
v -1.4 1 0.8
v -1.3 1 0.8
v -1.2 1 0.8
v -1.1 1 0.8
v -1 1 0.8
v -0.9 1 0.8
v -0.8 1 0.8
v -0.7 1 0.8
v -0.6 1 0.8
v -0.5 1 0.8
v -0.4 1 0.8
v -0.3 1 0.8
v -0.2 1 0.8
v -0.0999999 1 0.8
v -1.5 1 0.7
v -1.4 1 0.7
v -1.3 1 0.7
v -1.2 1 0.7
v -1.1 1 0.7
v -1 1 0.7
v -0.9 1 0.7
v -0.8 1 0.7
v -0.7 1 0.7
v -0.6 1 0.7
v -0.5 1 0.7
v -0.4 1 0.7
v -0.3 1 0.7
v -0.2 1 0.7
v -0.0999999 1 0.7
v -1.6 1 0.6
v -1.5 1 0.6
v -1.4 1 0.6
v -1.3 1 0.6
v -1.2 1 0.6
v -1.1 1 0.6
v -1 1 0.6
v -0.9 1 0.6
v -0.8 1 0.6
v -0.7 1 0.6
v -0.6 1 0.6
v -0.5 1 0.6
v -0.4 1 0.6
v -0.3 1 0.6
v -0.2 1 0.6
v -0.0999999 1 0.6
v 0 1 0.6
v -1.6 1 0.5
v -1.5 1 0.5
v -1.4 1 0.5
v -1.3 1 0.5
v -1.2 1 0.5
v -1.1 1 0.5
v -1 1 0.5
v -0.9 1 0.5
v -0.8 1 0.5
v -0.7 1 0.5
v -0.6 1 0.5
v -0.5 1 0.5
v -0.4 1 0.5
v -0.3 1 0.5
v -0.2 1 0.5
v -0.0999999 1 0.5
v 0 1 0.5
v -1.6 1 0.4
v -1.5 1 0.4
v -1.4 1 0.4
v -1.3 1 0.4
v -1.2 1 0.4
v -1.1 1 0.4
v -1 1 0.4
v -0.5 1 0.4
v -0.4 1 0.4
v -0.3 1 0.4
v -0.2 1 0.4
v -0.0999999 1 0.4
v 0 1 0.4
v -1.5 1 0.3
v -1.4 1 0.3
v -1.3 1 0.3
v -1.2 1 0.3
v -1.1 1 0.3
v -0.3 1 0.3
v -0.2 1 0.3
v -0.0999999 1 0.3
v 0 1 0.3
v -1.6 1 0.2
v -1.5 1 0.2
v -1.4 1 0.2
v -1.3 1 0.2
v -1.2 1 0.2
v -0.0999999 1 0.2
v 0 1 0.2
v -1.5 1 0.1
v -1.4 1 0.1
v -1.3 1 0.1
v -1.6 1 0
v -1.5 1 0
v -1.4 1 0
v -1.3 1 0
v -1.6 1 -0.1
v -1.5 1 -0.1
v -1.4 1 -0.1
v -1.3 1 -0.1
v -1.6 1 -0.2
v -1.5 1 -0.2
v -1.4 1 -0.2
v -1.3 1 -0.2
v -1.2 1 -0.2
v -0.0999999 1 -0.2
v 0 1 -0.2
v -1.6 1 -0.3
v -1.5 1 -0.3
v -1.4 1 -0.3
v -1.3 1 -0.3
v -1.2 1 -0.3
v -1.1 1 -0.3
v -0.3 1 -0.3
v -0.2 1 -0.3
v -0.0999999 1 -0.3
v 0 1 -0.3
v -1.6 1 -0.4
v -1.5 1 -0.4
v -1.4 1 -0.4
v -1.3 1 -0.4
v -1.2 1 -0.4
v -1.1 1 -0.4
v -1 1 -0.4
v -0.5 1 -0.4
v -0.4 1 -0.4
v -0.3 1 -0.4
v -0.2 1 -0.4
v -0.0999999 1 -0.4
v 0 1 -0.4
v -1.5 1 -0.5
v -1.4 1 -0.5
v -1.3 1 -0.5
v -1.2 1 -0.5
v -1.1 1 -0.5
v -1 1 -0.5
v -0.9 1 -0.5
v -0.8 1 -0.5
v -0.7 1 -0.5
v -0.6 1 -0.5
v -0.5 1 -0.5
v -0.4 1 -0.5
v -0.3 1 -0.5
v -0.2 1 -0.5
v -0.0999999 1 -0.5
v 0 1 -0.5
v -1.5 1 -0.6
v -1.4 1 -0.6
v -1.3 1 -0.6
v -1.2 1 -0.6
v -1.1 1 -0.6
v -1 1 -0.6
v -0.9 1 -0.6
v -0.8 1 -0.6
v -0.7 1 -0.6
v -0.6 1 -0.6
v -0.5 1 -0.6
v -0.4 1 -0.6
v -0.3 1 -0.6
v -0.2 1 -0.6
v -0.0999999 1 -0.6
v 0 1 -0.6
v -1.5 1 -0.7
v -1.4 1 -0.7
v -1.3 1 -0.7
v -1.2 1 -0.7
v -1.1 1 -0.7
v -1 1 -0.7
v -0.9 1 -0.7
v -0.8 1 -0.7
v -0.7 1 -0.7
v -0.6 1 -0.7
v -0.5 1 -0.7
v -0.4 1 -0.7
v -0.2 1 -0.7
v -0.0999999 1 -0.7
v -1.5 1 -0.8
v -1.4 1 -0.8
v -1.3 1 -0.8
v -1.2 1 -0.8
v -1.1 1 -0.8
v -1 1 -0.8
v -0.9 1 -0.8
v -0.8 1 -0.8
v -0.7 1 -0.8
v -0.6 1 -0.8
v -0.5 1 -0.8
v -0.4 1 -0.8
v -0.3 1 -0.8
v -0.2 1 -0.8
v -1.4 1 -0.9
v -1.3 1 -0.9
v -1.2 1 -0.9
v -0.9 1 -0.9
v -0.8 1 -0.9
v -0.7 1 -0.9
v -0.6 1 -0.9
v -0.5 1 -0.9
v -0.4 1 -0.9
v -0.3 1 -0.9
v -0.2 1 -0.9
v -0.0999999 1 -0.9
v -1.4 1 -1
v -1.3 1 -1
v -1.2 1 -1
v -1.1 1 -1
v -1 1 -1
v -0.9 1 -1
v -0.8 1 -1
v -0.7 1 -1
v -0.6 1 -1
v -0.5 1 -1
v -0.4 1 -1
v -0.3 1 -1
v -0.2 1 -1
v -1.4 1 -1.1
v -1.3 1 -1.1
v -1.2 1 -1.1
v -1.1 1 -1.1
v -1 1 -1.1
v -0.9 1 -1.1
v -0.8 1 -1.1
v -0.7 1 -1.1
v -0.6 1 -1.1
v -0.5 1 -1.1
v -0.4 1 -1.1
v -0.3 1 -1.1
v -0.2 1 -1.1
v -1.3 1 -1.2
v -1.2 1 -1.2
v -1.1 1 -1.2
v -1 1 -1.2
v -0.9 1 -1.2
v -0.8 1 -1.2
v -0.7 1 -1.2
v -0.6 1 -1.2
v -0.5 1 -1.2
v -0.4 1 -1.2
v -1.2 1 -1.3
v -1.1 1 -1.3
v -1 1 -1.3
v -0.9 1 -1.3
v -0.8 1 -1.3
v -0.7 1 -1.3
v -0.6 1 -1.3
v -0.5 1 -1.3
v -0.4 1 -1.3
v -0.3 1 -1.3
v -1.1 1 -1.4
v -1 1 -1.4
v -0.9 1 -1.4
v -0.7 1 -1.4
v -0.6 1 -1.4
v -0.5 1 -1.4
v -0.4 1 -1.4
v -1 1.1 0.5
v -0.9 1.1 0.5
v -0.8 1.1 0.5
v -0.7 1.1 0.5
v -0.6 1.1 0.5
v -0.5 1.1 0.5
v -1.1 1.1 0.4
v -1 1.1 0.4
v -0.9 1.1 0.4
v -0.8 1.1 0.4
v -0.5 1.1 0.4
v -0.4 1.1 0.4
v -0.3 1.1 0.4
v -1.2 1.1 0.3
v -1.1 1.1 0.3
v -1 1.1 0.3
v -0.9 1.1 0.3
v -0.8 1.1 0.3
v -0.7 1.1 0.3
v -0.6 1.1 0.3
v -0.5 1.1 0.3
v -0.4 1.1 0.3
v -0.3 1.1 0.3
v -0.2 1.1 0.3
v -0.0999999 1.1 0.3
v -1.3 1.1 0.2
v -1.2 1.1 0.2
v -1.1 1.1 0.2
v -1 1.1 0.2
v -0.9 1.1 0.2
v -0.8 1.1 0.2
v -0.7 1.1 0.2
v -0.6 1.1 0.2
v -0.5 1.1 0.2
v -0.4 1.1 0.2
v -0.3 1.1 0.2
v -0.2 1.1 0.2
v -0.0999999 1.1 0.2
v 0 1.1 0.2
v -1.3 1.1 0.1
v -1.2 1.1 0.1
v -1.1 1.1 0.1
v -1 1.1 0.1
v -0.9 1.1 0.1
v -0.7 1.1 0.1
v -0.5 1.1 0.1
v -0.4 1.1 0.1
v -0.3 1.1 0.1
v 0 1.1 0.1
v -1.3 1.1 0
v -1.2 1.1 0
v -1.1 1.1 0
v -1 1.1 0
v -0.9 1.1 0
v -0.7 1.1 0
v -0.5 1.1 0
v -0.4 1.1 0
v -0.3 1.1 0
v -0.2 1.1 0
v -0.0999999 1.1 0
v 0 1.1 0
v -1.3 1.1 -0.1
v -1.2 1.1 -0.1
v -1.1 1.1 -0.1
v -1 1.1 -0.1
v -0.9 1.1 -0.1
v -0.8 1.1 -0.1
v -0.7 1.1 -0.1
v -0.6 1.1 -0.1
v -0.5 1.1 -0.1
v -0.4 1.1 -0.1
v -0.3 1.1 -0.1
v -0.2 1.1 -0.1
v -0.0999999 1.1 -0.1
v 0 1.1 -0.1
v -1.3 1.1 -0.2
v -1.2 1.1 -0.2
v -1.1 1.1 -0.2
v -1 1.1 -0.2
v -0.9 1.1 -0.2
v -0.8 1.1 -0.2
v -0.7 1.1 -0.2
v -0.6 1.1 -0.2
v -0.5 1.1 -0.2
v -0.4 1.1 -0.2
v -0.3 1.1 -0.2
v -0.2 1.1 -0.2
v -0.0999999 1.1 -0.2
v 0 1.1 -0.2
v -1.2 1.1 -0.3
v -1.1 1.1 -0.3
v -1 1.1 -0.3
v -0.9 1.1 -0.3
v -0.8 1.1 -0.3
v -0.7 1.1 -0.3
v -0.6 1.1 -0.3
v -0.5 1.1 -0.3
v -0.4 1.1 -0.3
v -0.3 1.1 -0.3
v -0.2 1.1 -0.3
v -0.0999999 1.1 -0.3
v -1.1 1.1 -0.4
v -1 1.1 -0.4
v -0.9 1.1 -0.4
v -0.7 1.1 -0.4
v -0.6 1.1 -0.4
v -0.5 1.1 -0.4
v -0.4 1.1 -0.4
v -0.3 1.1 -0.4
v -1 1.1 -0.5
v -0.9 1.1 -0.5
v -0.7 1.1 -0.5
v -0.6 1.1 -0.5
v -0.5 1.1 -0.5

# faces
f 9/8/1 2/8/1 1/8/1
f 10/9/1 3/9/1 2/9/1
f 10/8/1 2/8/1 9/8/1
f 11/4/1 4/4/1 3/4/1
f 11/9/1 3/9/1 10/9/1
f 12/5/1 5/5/1 4/5/1
f 12/4/1 4/4/1 11/4/1
f 13/9/1 6/9/1 5/9/1
f 13/5/1 5/5/1 12/5/1
f 14/6/1 7/6/1 6/6/1
f 14/9/1 6/9/1 13/9/1
f 15/9/1 8/9/1 7/9/1
f 15/6/1 7/6/1 14/6/1
f 16/9/1 8/9/1 15/9/1
f 31/5/1 18/5/1 17/5/1
f 32/6/1 19/6/1 18/6/1
f 32/5/1 18/5/1 31/5/1
f 33/4/1 20/4/1 19/4/1
f 33/6/1 19/6/1 32/6/1
f 34/11/1 21/11/1 20/11/1
f 34/4/1 20/4/1 33/4/1
f 35/6/1 22/6/1 21/6/1
f 35/11/1 21/11/1 34/11/1
f 36/9/1 23/9/1 22/9/1
f 36/6/1 22/6/1 35/6/1
f 37/9/1 23/9/1 36/9/1
f 38/7/1 25/7/1 24/7/1
f 39/9/1 26/9/1 25/9/1
f 39/7/1 25/7/1 38/7/1
f 40/7/1 27/7/1 26/7/1
f 40/9/1 26/9/1 39/9/1
f 41/6/1 28/6/1 27/6/1
f 41/7/1 27/7/1 40/7/1
f 42/10/1 29/10/1 28/10/1
f 42/6/1 28/6/1 41/6/1
f 43/5/1 30/5/1 29/5/1
f 43/10/1 29/10/1 42/10/1
f 44/5/1 30/5/1 43/5/1
f 50/7/1 46/7/1 45/7/1
f 51/7/1 46/7/1 50/7/1
f 62/7/1 48/7/1 47/7/1
f 63/8/1 49/8/1 48/8/1
f 63/7/1 48/7/1 62/7/1
f 64/8/1 49/8/1 63/8/1
f 65/8/1 53/8/1 52/8/1
f 66/6/1 54/6/1 53/6/1
f 66/8/1 53/8/1 65/8/1
f 67/10/1 55/10/1 54/10/1
f 67/6/1 54/6/1 66/6/1
f 68/4/1 56/4/1 55/4/1
f 68/10/1 55/10/1 67/10/1
f 68/4/1 57/4/1 56/4/1
f 69/11/1 58/11/1 57/11/1
f 69/4/1 57/4/1 68/4/1
f 70/8/1 59/8/1 58/8/1
f 70/11/1 58/11/1 69/11/1
f 71/4/1 60/4/1 59/4/1
f 71/8/1 59/8/1 70/8/1
f 72/5/1 61/5/1 60/5/1
f 72/4/1 60/4/1 71/4/1
f 73/5/1 61/5/1 72/5/1
f 76/8/1 75/8/1 74/8/1
f 77/8/1 75/8/1 76/8/1
f 86/7/1 79/7/1 78/7/1
f 87/11/1 80/11/1 79/11/1
f 87/7/1 79/7/1 86/7/1
f 88/11/1 80/11/1 87/11/1
f 89/7/1 82/7/1 81/7/1
f 90/8/1 83/8/1 82/8/1
f 90/7/1 82/7/1 89/7/1
f 91/7/1 84/7/1 83/7/1
f 91/8/1 83/8/1 90/8/1
f 92/4/1 85/4/1 84/4/1
f 92/7/1 84/7/1 91/7/1
f 93/4/1 85/4/1 92/4/1
f 102/8/1 95/8/1 94/8/1
f 103/8/1 95/8/1 102/8/1
f 104/7/1 97/7/1 96/7/1
f 105/7/1 97/7/1 104/7/1
f 106/7/1 99/7/1 98/7/1
f 107/4/1 100/4/1 99/4/1
f 107/7/1 99/7/1 106/7/1
f 108/5/1 101/5/1 100/5/1
f 108/4/1 100/4/1 107/4/1
f 109/5/1 101/5/1 108/5/1
f 114/4/1 111/4/1 110/4/1
f 115/4/1 111/4/1 114/4/1
f 121/7/1 113/7/1 112/7/1
f 122/7/1 113/7/1 121/7/1
f 123/7/1 117/7/1 116/7/1
f 124/11/1 118/11/1 117/11/1
f 124/7/1 117/7/1 123/7/1
f 125/11/1 118/11/1 124/11/1
f 131/11/1 120/11/1 119/11/1
f 132/11/1 120/11/1 131/11/1
f 133/6/1 127/6/1 126/6/1
f 134/4/1 128/4/1 127/4/1
f 134/6/1 127/6/1 133/6/1
f 135/10/1 129/10/1 128/10/1
f 135/4/1 128/4/1 134/4/1
f 136/5/1 130/5/1 129/5/1
f 136/10/1 129/10/1 135/10/1
f 137/5/1 130/5/1 136/5/1
f 140/11/1 139/11/1 138/11/1
f 141/11/1 139/11/1 140/11/1
f 146/7/1 143/7/1 142/7/1
f 147/7/1 143/7/1 146/7/1
f 152/5/1 145/5/1 144/5/1
f 153/5/1 145/5/1 152/5/1
f 154/2/1 149/2/1 148/2/1
f 155/2/1 149/2/1 154/2/1
f 156/2/1 151/2/1 150/2/1
f 157/2/1 151/2/1 156/2/1
f 163/11/1 159/11/1 158/11/1
f 164/11/1 159/11/1 163/11/1
f 165/10/1 161/10/1 160/10/1
f 166/10/1 161/10/1 165/10/1
f 171/7/1 163/7/1 162/7/1
f 172/7/1 163/7/1 171/7/1
f 173/9/1 168/9/1 167/9/1
f 174/9/1 168/9/1 173/9/1
f 175/10/1 170/10/1 169/10/1
f 176/10/1 170/10/1 175/10/1
f 179/6/1 178/6/1 177/6/1
f 180/6/1 178/6/1 179/6/1
f 185/6/1 182/6/1 181/6/1
f 186/6/1 182/6/1 185/6/1
f 187/5/1 184/5/1 183/5/1
f 188/5/1 184/5/1 187/5/1
f 189/7/2 190/7/2 193/7/2
f 193/7/2 190/7/2 194/7/2
f 191/10/2 192/10/2 195/10/2
f 195/10/2 192/10/2 196/10/2
f 197/9/2 198/9/2 199/9/2
f 199/9/2 198/9/2 200/9/2
f 201/9/2 202/9/2 205/9/2
f 205/9/2 202/9/2 206/9/2
f 203/5/2 204/5/2 207/5/2
f 207/5/2 204/5/2 208/5/2
f 209/6/2 210/6/2 213/6/2
f 213/6/2 210/6/2 214/6/2
f 211/10/2 212/10/2 217/10/2
f 217/10/2 212/10/2 218/10/2
f 215/4/2 216/4/2 219/4/2
f 219/4/2 216/4/2 220/4/2
f 217/7/2 218/7/2 221/7/2
f 221/7/2 218/7/2 222/7/2
f 223/11/2 224/11/2 225/11/2
f 225/11/2 224/11/2 226/11/2
f 227/9/2 228/9/2 232/9/2
f 232/9/2 228/9/2 233/9/2
f 230/10/2 231/10/2 238/10/2
f 229/10/2 230/10/2 238/10/2
f 238/10/2 231/10/2 239/10/2
f 234/4/2 235/4/2 240/4/2
f 240/4/2 235/4/2 241/4/2
f 236/10/2 237/10/2 242/10/2
f 242/10/2 237/10/2 243/10/2
f 244/7/2 245/7/2 250/7/2
f 245/9/2 246/9/2 251/9/2
f 250/7/2 245/7/2 251/7/2
f 251/9/2 246/9/2 252/9/2
f 247/8/2 248/8/2 257/8/2
f 248/10/2 249/10/2 258/10/2
f 257/8/2 248/8/2 258/8/2
f 258/10/2 249/10/2 259/10/2
f 252/10/2 253/10/2 260/10/2
f 253/8/2 254/8/2 261/8/2
f 260/10/2 253/10/2 261/10/2
f 261/8/2 254/8/2 262/8/2
f 255/7/2 256/7/2 263/7/2
f 256/9/2 257/9/2 264/9/2
f 263/7/2 256/7/2 264/7/2
f 264/9/2 257/9/2 265/9/2
f 266/7/2 267/7/2 271/7/2
f 267/4/2 268/4/2 272/4/2
f 271/7/2 267/7/2 272/7/2
f 272/4/2 268/4/2 273/4/2
f 269/9/2 270/9/2 278/9/2
f 278/9/2 270/9/2 279/9/2
f 273/9/2 274/9/2 280/9/2
f 274/11/2 275/11/2 281/11/2
f 280/9/2 274/9/2 281/9/2
f 281/11/2 275/11/2 282/11/2
f 276/8/2 277/8/2 287/8/2
f 277/7/2 278/7/2 288/7/2
f 287/8/2 277/8/2 288/8/2
f 288/7/2 278/7/2 289/7/2
f 283/9/2 284/9/2 290/9/2
f 290/9/2 284/9/2 291/9/2
f 285/10/2 286/10/2 292/10/2
f 292/10/2 286/10/2 293/10/2
f 294/9/2 295/9/2 299/9/2
f 295/7/2 296/7/2 300/7/2
f 299/9/2 295/9/2 300/9/2
f 300/7/2 296/7/2 301/7/2
f 297/11/2 298/11/2 312/11/2
f 312/11/2 298/11/2 313/11/2
f 301/5/2 302/5/2 314/5/2
f 302/4/2 303/4/2 315/4/2
f 314/5/2 302/5/2 315/5/2
f 303/8/2 304/8/2 316/8/2
f 315/4/2 303/4/2 316/4/2
f 304/5/2 305/5/2 317/5/2
f 316/8/2 304/8/2 317/8/2
f 317/5/2 305/5/2 318/5/2
f 318/5/2 305/5/2 319/5/2
f 305/4/2 306/4/2 320/4/2
f 319/5/2 305/5/2 320/5/2
f 306/8/2 307/8/2 321/8/2
f 320/4/2 306/4/2 321/4/2
f 307/6/2 308/6/2 322/6/2
f 321/8/2 307/8/2 322/8/2
f 308/11/2 309/11/2 323/11/2
f 322/6/2 308/6/2 323/6/2
f 309/10/2 310/10/2 324/10/2
f 323/11/2 309/11/2 324/11/2
f 310/4/2 311/4/2 325/4/2
f 324/10/2 310/10/2 325/10/2
f 325/4/2 311/4/2 326/4/2
f 318/8/2 319/8/2 327/8/2
f 319/11/2 320/11/2 328/11/2
f 327/8/2 319/8/2 328/8/2
f 320/10/2 321/10/2 329/10/2
f 328/11/2 320/11/2 329/11/2
f 321/5/2 322/5/2 330/5/2
f 329/10/2 321/10/2 330/10/2
f 330/5/2 322/5/2 331/5/2
f 332/10/2 333/10/2 341/10/2
f 333/8/2 334/8/2 342/8/2
f 341/10/2 333/10/2 342/10/2
f 334/1/2 335/1/2 343/1/2
f 342/8/2 334/8/2 343/8/2
f 343/1/2 335/1/2 344/1/2
f 336/1/2 337/1/2 345/1/2
f 337/8/2 338/8/2 346/8/2
f 345/1/2 337/1/2 346/1/2
f 338/5/2 339/5/2 347/5/2
f 346/8/2 338/8/2 347/8/2
f 339/9/2 340/9/2 348/9/2
f 347/5/2 339/5/2 348/5/2
f 348/9/2 340/9/2 349/9/2
f 350/1/2 351/1/2 354/1/2
f 354/1/2 351/1/2 355/1/2
f 352/1/2 353/1/2 356/1/2
f 356/1/2 353/1/2 357/1/2
f 358/1/2 359/1/2 360/1/2
f 360/1/2 359/1/2 361/1/2
f 364/6/3 363/6/3 362/6/3
f 365/6/3 363/6/3 364/6/3
f 366/7/3 365/7/3 364/7/3
f 367/7/3 365/7/3 366/7/3
f 370/11/3 369/11/3 368/11/3
f 371/11/3 369/11/3 370/11/3
f 372/5/3 371/5/3 370/5/3
f 373/5/3 371/5/3 372/5/3
f 376/5/3 375/5/3 374/5/3
f 377/5/3 375/5/3 376/5/3
f 378/4/3 377/4/3 376/4/3
f 379/4/3 377/4/3 378/4/3
f 380/9/3 379/9/3 378/9/3
f 381/9/3 379/9/3 380/9/3
f 382/6/3 381/6/3 380/6/3
f 383/6/3 381/6/3 382/6/3
f 386/4/3 385/4/3 384/4/3
f 387/4/3 385/4/3 386/4/3
f 390/10/3 389/10/3 388/10/3
f 391/10/3 389/10/3 390/10/3
f 392/9/3 391/9/3 390/9/3
f 393/9/3 391/9/3 392/9/3
f 394/11/3 393/11/3 392/11/3
f 395/11/3 393/11/3 394/11/3
f 396/11/3 393/11/3 395/11/3
f 397/11/3 393/11/3 396/11/3
f 398/9/3 397/9/3 396/9/3
f 399/9/3 397/9/3 398/9/3
f 402/11/3 401/11/3 400/11/3
f 403/11/3 401/11/3 402/11/3
f 406/8/3 405/8/3 404/8/3
f 407/8/3 405/8/3 406/8/3
f 408/4/3 407/4/3 406/4/3
f 409/4/3 407/4/3 408/4/3
f 412/7/3 411/7/3 410/7/3
f 413/7/3 411/7/3 412/7/3
f 416/4/3 415/4/3 414/4/3
f 417/4/3 415/4/3 416/4/3
f 420/7/3 419/7/3 418/7/3
f 421/7/3 419/7/3 420/7/3
f 424/7/3 423/7/3 422/7/3
f 425/7/3 423/7/3 424/7/3
f 428/7/3 427/7/3 426/7/3
f 429/7/3 427/7/3 428/7/3
f 432/9/3 431/9/3 430/9/3
f 433/9/3 431/9/3 432/9/3
f 437/10/3 435/10/3 434/10/3
f 438/10/3 435/10/3 437/10/3
f 439/7/3 437/7/3 436/7/3
f 440/7/3 437/7/3 439/7/3
f 443/5/3 442/5/3 441/5/3
f 444/5/3 442/5/3 443/5/3
f 447/7/3 446/7/3 445/7/3
f 448/7/3 446/7/3 447/7/3
f 451/7/3 450/7/3 449/7/3
f 452/7/3 450/7/3 451/7/3
f 456/9/3 454/9/3 453/9/3
f 457/9/3 454/9/3 456/9/3
f 458/9/3 456/9/3 455/9/3
f 459/9/3 456/9/3 458/9/3
f 462/8/3 461/8/3 460/8/3
f 463/8/3 461/8/3 462/8/3
f 467/5/3 465/5/3 464/5/3
f 468/5/3 465/5/3 467/5/3
f 469/10/3 467/10/3 466/10/3
f 470/10/3 467/10/3 469/10/3
f 473/6/3 472/6/3 471/6/3
f 474/6/3 472/6/3 473/6/3
f 475/9/3 474/9/3 473/9/3
f 476/9/3 474/9/3 475/9/3
f 477/4/3 476/4/3 475/4/3
f 478/4/3 476/4/3 477/4/3
f 479/6/3 478/6/3 477/6/3
f 480/6/3 478/6/3 479/6/3
f 481/9/3 480/9/3 479/9/3
f 482/9/3 480/9/3 481/9/3
f 485/9/3 484/9/3 483/9/3
f 486/9/3 484/9/3 485/9/3
f 489/9/3 488/9/3 487/9/3
f 490/9/3 488/9/3 489/9/3
f 491/4/3 490/4/3 489/4/3
f 492/4/3 490/4/3 491/4/3
f 495/8/3 494/8/3 493/8/3
f 496/8/3 494/8/3 495/8/3
f 499/2/3 498/2/3 497/2/3
f 500/2/3 498/2/3 499/2/3
f 503/10/3 502/10/3 501/10/3
f 504/10/3 502/10/3 503/10/3
f 505/9/3 504/9/3 503/9/3
f 506/9/3 504/9/3 505/9/3
f 509/6/3 508/6/3 507/6/3
f 510/6/3 508/6/3 509/6/3
f 513/8/3 512/8/3 511/8/3
f 514/8/3 512/8/3 513/8/3
f 517/1/3 516/1/3 515/1/3
f 518/1/3 516/1/3 517/1/3
f 521/1/3 520/1/3 519/1/3
f 522/1/3 520/1/3 521/1/3
f 523/1/4 524/1/4 525/1/4
f 525/1/4 524/1/4 526/1/4
f 527/5/4 528/5/4 529/5/4
f 529/5/4 528/5/4 530/5/4
f 531/5/4 532/5/4 533/5/4
f 533/5/4 532/5/4 534/5/4
f 535/1/4 536/1/4 537/1/4
f 537/1/4 536/1/4 538/1/4
f 539/2/4 540/2/4 541/2/4
f 541/2/4 540/2/4 542/2/4
f 543/8/4 544/8/4 545/8/4
f 545/8/4 544/8/4 546/8/4
f 545/10/4 546/10/4 547/10/4
f 547/10/4 546/10/4 548/10/4
f 549/9/4 550/9/4 551/9/4
f 551/9/4 550/9/4 552/9/4
f 553/5/4 554/5/4 555/5/4
f 555/5/4 554/5/4 556/5/4
f 557/10/4 558/10/4 559/10/4
f 559/10/4 558/10/4 560/10/4
f 561/11/4 562/11/4 563/11/4
f 563/11/4 562/11/4 564/11/4
f 563/10/4 564/10/4 565/10/4
f 565/10/4 564/10/4 566/10/4
f 567/5/4 568/5/4 569/5/4
f 569/5/4 568/5/4 570/5/4
f 569/6/4 570/6/4 571/6/4
f 571/6/4 570/6/4 572/6/4
f 572/6/4 570/6/4 573/6/4
f 572/7/4 573/7/4 574/7/4
f 574/7/4 573/7/4 575/7/4
f 574/5/4 575/5/4 576/5/4
f 576/5/4 575/5/4 577/5/4
f 578/4/4 579/4/4 580/4/4
f 580/4/4 579/4/4 581/4/4
f 582/9/4 583/9/4 584/9/4
f 584/9/4 583/9/4 585/9/4
f 586/4/4 587/4/4 588/4/4
f 588/4/4 587/4/4 589/4/4
f 590/7/4 591/7/4 593/7/4
f 593/7/4 591/7/4 594/7/4
f 592/11/4 593/11/4 595/11/4
f 595/11/4 593/11/4 596/11/4
f 597/5/4 598/5/4 599/5/4
f 599/5/4 598/5/4 600/5/4
f 601/5/4 602/5/4 603/5/4
f 603/5/4 602/5/4 604/5/4
f 605/9/4 606/9/4 608/9/4
f 608/9/4 606/9/4 609/9/4
f 607/9/4 608/9/4 610/9/4
f 610/9/4 608/9/4 611/9/4
f 612/8/4 613/8/4 614/8/4
f 614/8/4 613/8/4 615/8/4
f 614/9/4 615/9/4 616/9/4
f 616/9/4 615/9/4 617/9/4
f 618/11/4 619/11/4 620/11/4
f 620/11/4 619/11/4 621/11/4
f 622/8/4 623/8/4 624/8/4
f 624/8/4 623/8/4 625/8/4
f 626/5/4 627/5/4 628/5/4
f 628/5/4 627/5/4 629/5/4
f 630/9/4 631/9/4 633/9/4
f 631/10/4 632/10/4 634/10/4
f 633/9/4 631/9/4 634/9/4
f 634/10/4 632/10/4 635/10/4
f 633/10/4 634/10/4 636/10/4
f 636/10/4 634/10/4 637/10/4
f 638/7/4 639/7/4 640/7/4
f 640/7/4 639/7/4 641/7/4
f 640/8/4 641/8/4 642/8/4
f 642/8/4 641/8/4 643/8/4
f 643/7/4 644/7/4 645/7/4
f 645/7/4 644/7/4 646/7/4
f 645/4/4 646/4/4 647/4/4
f 647/4/4 646/4/4 648/4/4
f 647/11/4 648/11/4 650/11/4
f 649/11/4 650/11/4 651/11/4
f 650/11/4 648/11/4 652/11/4
f 651/11/4 650/11/4 652/11/4
f 652/11/4 648/11/4 653/11/4
f 651/8/4 652/8/4 654/8/4
f 652/10/4 653/10/4 654/10/4
f 654/10/4 653/10/4 655/10/4
f 651/8/4 654/8/4 656/8/4
f 654/11/4 655/11/4 657/11/4
f 656/8/4 654/8/4 657/8/4
f 657/11/4 655/11/4 658/11/4
f 656/10/4 657/10/4 659/10/4
f 657/7/4 658/7/4 660/7/4
f 659/10/4 657/10/4 660/10/4
f 660/7/4 658/7/4 661/7/4
f 662/11/4 663/11/4 664/11/4
f 664/11/4 663/11/4 665/11/4
f 664/8/4 665/8/4 666/8/4
f 666/8/4 665/8/4 667/8/4
f 666/10/4 667/10/4 668/10/4
f 668/10/4 667/10/4 669/10/4
f 675/6/5 671/6/5 670/6/5
f 676/7/5 672/7/5 671/7/5
f 676/6/5 671/6/5 675/6/5
f 677/7/5 672/7/5 676/7/5
f 683/11/5 674/11/5 673/11/5
f 684/5/5 675/5/5 674/5/5
f 684/11/5 674/11/5 683/11/5
f 685/11/5 676/11/5 675/11/5
f 685/5/5 675/5/5 684/5/5
f 686/10/5 677/10/5 676/10/5
f 686/11/5 676/11/5 685/11/5
f 687/5/5 678/5/5 677/5/5
f 687/10/5 677/10/5 686/10/5
f 688/4/5 679/4/5 678/4/5
f 688/5/5 678/5/5 687/5/5
f 689/9/5 680/9/5 679/9/5
f 689/4/5 679/4/5 688/4/5
f 690/6/5 681/6/5 680/6/5
f 690/9/5 680/9/5 689/9/5
f 691/6/5 681/6/5 690/6/5
f 695/4/5 683/4/5 682/4/5
f 696/7/5 684/7/5 683/7/5
f 696/7/5 685/7/5 684/7/5
f 696/4/5 683/4/5 695/4/5
f 697/5/5 686/5/5 685/5/5
f 697/7/5 685/7/5 696/7/5
f 698/4/5 687/4/5 686/4/5
f 698/5/5 686/5/5 697/5/5
f 699/11/5 689/11/5 688/11/5
f 699/4/5 687/4/5 698/4/5
f 699/11/5 688/11/5 687/11/5
f 700/11/5 689/11/5 699/11/5
f 701/6/5 690/6/5 689/6/5
f 701/11/5 689/11/5 700/11/5
f 702/10/5 691/10/5 690/10/5
f 702/6/5 690/6/5 701/6/5
f 703/11/5 692/11/5 691/11/5
f 703/10/5 691/10/5 702/10/5
f 704/11/5 692/11/5 703/11/5
f 707/8/5 694/8/5 693/8/5
f 708/4/5 695/4/5 694/4/5
f 708/8/5 694/8/5 707/8/5
f 709/8/5 696/8/5 695/8/5
f 709/4/5 695/4/5 708/4/5
f 710/6/5 697/6/5 696/6/5
f 710/8/5 696/8/5 709/8/5
f 711/6/5 697/6/5 710/6/5
f 712/5/5 698/5/5 697/5/5
f 712/6/5 697/6/5 711/6/5
f 713/7/5 699/7/5 698/7/5
f 713/5/5 698/5/5 712/5/5
f 714/6/5 700/6/5 699/6/5
f 714/7/5 699/7/5 713/7/5
f 715/7/5 701/7/5 700/7/5
f 715/6/5 700/6/5 714/6/5
f 716/11/5 702/11/5 701/11/5
f 716/7/5 701/7/5 715/7/5
f 717/5/5 703/5/5 702/5/5
f 717/11/5 702/11/5 716/11/5
f 718/11/5 704/11/5 703/11/5
f 718/5/5 703/5/5 717/5/5
f 719/7/5 705/7/5 704/7/5
f 719/11/5 704/11/5 718/11/5
f 720/7/5 705/7/5 719/7/5
f 721/7/5 707/7/5 706/7/5
f 721/5/5 708/5/5 707/5/5
f 722/9/5 709/9/5 708/9/5
f 722/5/5 708/5/5 721/5/5
f 723/6/5 710/6/5 709/6/5
f 723/9/5 709/9/5 722/9/5
f 724/10/5 711/10/5 710/10/5
f 724/6/5 710/6/5 723/6/5
f 725/11/5 712/11/5 711/11/5
f 725/10/5 711/10/5 724/10/5
f 726/10/5 713/10/5 712/10/5
f 726/11/5 712/11/5 725/11/5
f 727/8/5 714/8/5 713/8/5
f 727/10/5 713/10/5 726/10/5
f 728/5/5 715/5/5 714/5/5
f 728/8/5 714/8/5 727/8/5
f 729/7/5 716/7/5 715/7/5
f 729/5/5 715/5/5 728/5/5
f 730/6/5 718/6/5 717/6/5
f 730/7/5 716/7/5 729/7/5
f 730/6/5 717/6/5 716/6/5
f 731/6/5 718/6/5 730/6/5
f 732/9/5 720/9/5 719/9/5
f 732/6/5 718/6/5 731/6/5
f 732/9/5 719/9/5 718/9/5
f 733/9/5 720/9/5 732/9/5
f 734/9/5 720/9/5 733/9/5
f 737/7/5 721/7/5 706/7/5
f 737/7/5 722/7/5 721/7/5
f 738/7/5 722/7/5 737/7/5
f 739/9/5 723/9/5 722/9/5
f 739/7/5 722/7/5 738/7/5
f 740/4/5 724/4/5 723/4/5
f 740/9/5 723/9/5 739/9/5
f 741/6/5 725/6/5 724/6/5
f 741/4/5 724/4/5 740/4/5
f 742/5/5 727/5/5 726/5/5
f 742/6/5 725/6/5 741/6/5
f 742/5/5 726/5/5 725/5/5
f 743/5/5 727/5/5 742/5/5
f 744/4/5 728/4/5 727/4/5
f 744/5/5 727/5/5 743/5/5
f 745/8/5 729/8/5 728/8/5
f 745/4/5 728/4/5 744/4/5
f 746/7/5 730/7/5 729/7/5
f 746/8/5 729/8/5 745/8/5
f 747/10/5 731/10/5 730/10/5
f 747/7/5 730/7/5 746/7/5
f 748/9/5 732/9/5 731/9/5
f 748/10/5 731/10/5 747/10/5
f 749/10/5 733/10/5 732/10/5
f 749/9/5 732/9/5 748/9/5
f 750/9/5 734/9/5 733/9/5
f 750/10/5 733/10/5 749/10/5
f 751/7/5 735/7/5 734/7/5
f 751/9/5 734/9/5 750/9/5
f 752/7/5 735/7/5 751/7/5
f 753/5/5 737/5/5 736/5/5
f 754/4/5 738/4/5 737/4/5
f 754/5/5 737/5/5 753/5/5
f 755/10/5 739/10/5 738/10/5
f 755/4/5 738/4/5 754/4/5
f 756/8/5 740/8/5 739/8/5
f 756/10/5 739/10/5 755/10/5
f 757/4/5 741/4/5 740/4/5
f 757/8/5 740/8/5 756/8/5
f 758/11/5 742/11/5 741/11/5
f 758/4/5 741/4/5 757/4/5
f 759/7/5 743/7/5 742/7/5
f 759/11/5 742/11/5 758/11/5
f 760/5/5 744/5/5 743/5/5
f 760/7/5 743/7/5 759/7/5
f 761/6/5 745/6/5 744/6/5
f 761/5/5 744/5/5 760/5/5
f 762/7/5 746/7/5 745/7/5
f 762/6/5 745/6/5 761/6/5
f 763/5/5 747/5/5 746/5/5
f 763/7/5 746/7/5 762/7/5
f 764/7/5 748/7/5 747/7/5
f 764/5/5 747/5/5 763/5/5
f 765/11/5 749/11/5 748/11/5
f 765/7/5 748/7/5 764/7/5
f 766/6/5 750/6/5 749/6/5
f 766/11/5 749/11/5 765/11/5
f 766/6/5 751/6/5 750/6/5
f 767/6/5 751/6/5 766/6/5
f 768/4/5 752/4/5 751/4/5
f 768/6/5 751/6/5 767/6/5
f 769/4/5 752/4/5 768/4/5
f 771/6/5 754/6/5 753/6/5
f 772/9/5 755/9/5 754/9/5
f 772/6/5 754/6/5 771/6/5
f 773/8/5 756/8/5 755/8/5
f 773/9/5 755/9/5 772/9/5
f 774/7/5 757/7/5 756/7/5
f 774/8/5 756/8/5 773/8/5
f 775/5/5 758/5/5 757/5/5
f 775/7/5 757/7/5 774/7/5
f 776/9/5 759/9/5 758/9/5
f 776/5/5 758/5/5 775/5/5
f 777/1/5 761/1/5 760/1/5
f 777/9/5 759/9/5 776/9/5
f 777/1/5 760/1/5 759/1/5
f 777/1/5 763/1/5 762/1/5
f 777/1/5 762/1/5 761/1/5
f 778/11/5 764/11/5 763/11/5
f 778/1/5 763/1/5 777/1/5
f 779/10/5 765/10/5 764/10/5
f 779/11/5 764/11/5 778/11/5
f 780/6/5 766/6/5 765/6/5
f 780/10/5 765/10/5 779/10/5
f 781/10/5 767/10/5 766/10/5
f 781/6/5 766/6/5 780/6/5
f 782/7/5 768/7/5 767/7/5
f 782/10/5 767/10/5 781/10/5
f 783/10/5 769/10/5 768/10/5
f 783/7/5 768/7/5 782/7/5
f 784/9/5 770/9/5 769/9/5
f 784/10/5 769/10/5 783/10/5
f 785/9/5 770/9/5 784/9/5
f 786/4/5 772/4/5 771/4/5
f 787/6/5 773/6/5 772/6/5
f 787/4/5 772/4/5 786/4/5
f 788/9/5 774/9/5 773/9/5
f 788/6/5 773/6/5 787/6/5
f 789/7/5 775/7/5 774/7/5
f 789/9/5 774/9/5 788/9/5
f 789/7/5 776/7/5 775/7/5
f 790/7/5 776/7/5 789/7/5
f 791/1/5 777/1/5 776/1/5
f 791/7/5 776/7/5 790/7/5
f 791/1/5 778/1/5 777/1/5
f 791/1/5 781/1/5 780/1/5
f 791/1/5 779/1/5 778/1/5
f 791/1/5 780/1/5 779/1/5
f 792/5/5 782/5/5 781/5/5
f 792/1/5 781/1/5 791/1/5
f 793/10/5 783/10/5 782/10/5
f 793/5/5 782/5/5 792/5/5
f 793/10/5 784/10/5 783/10/5
f 794/10/5 784/10/5 793/10/5
f 795/7/5 785/7/5 784/7/5
f 795/10/5 784/10/5 794/10/5
f 796/7/5 785/7/5 795/7/5
f 798/11/5 788/11/5 787/11/5
f 798/11/5 787/11/5 786/11/5
f 799/11/5 788/11/5 798/11/5
f 800/6/5 789/6/5 788/6/5
f 800/11/5 788/11/5 799/11/5
f 801/8/5 790/8/5 789/8/5
f 801/6/5 789/6/5 800/6/5
f 802/1/5 794/1/5 793/1/5
f 802/1/5 791/1/5 790/1/5
f 802/1/5 792/1/5 791/1/5
f 802/1/5 793/1/5 792/1/5
f 803/1/5 794/1/5 802/1/5
f 804/4/5 795/4/5 794/4/5
f 804/1/5 794/1/5 803/1/5
f 805/8/5 796/8/5 795/8/5
f 805/4/5 795/4/5 804/4/5
f 806/10/5 797/10/5 796/10/5
f 806/8/5 796/8/5 805/8/5
f 807/10/5 797/10/5 806/10/5
f 808/6/5 799/6/5 798/6/5
f 809/5/5 800/5/5 799/5/5
f 809/6/5 799/6/5 808/6/5
f 809/5/5 801/5/5 800/5/5
f 810/5/5 801/5/5 809/5/5
f 811/8/5 790/8/5 801/8/5
f 811/5/5 801/5/5 810/5/5
f 812/1/5 802/1/5 790/1/5
f 812/8/5 790/8/5 811/8/5
f 813/1/5 805/1/5 804/1/5
f 813/1/5 804/1/5 803/1/5
f 813/6/5 806/6/5 805/6/5
f 814/8/5 807/8/5 806/8/5
f 814/6/5 806/6/5 813/6/5
f 815/8/5 807/8/5 814/8/5
f 817/9/5 809/9/5 808/9/5
f 818/10/5 810/10/5 809/10/5
f 818/9/5 809/9/5 817/9/5
f 819/7/5 811/7/5 810/7/5
f 819/10/5 810/10/5 818/10/5
f 820/6/5 812/6/5 811/6/5
f 820/7/5 811/7/5 819/7/5
f 821/1/5 802/1/5 812/1/5
f 821/6/5 812/6/5 820/6/5
f 822/1/5 802/1/5 821/1/5
f 823/1/5 802/1/5 822/1/5
f 824/8/5 817/8/5 816/8/5
f 825/9/5 818/9/5 817/9/5
f 825/8/5 817/8/5 824/8/5
f 826/6/5 819/6/5 818/6/5
f 826/9/5 818/9/5 825/9/5
f 827/5/5 820/5/5 819/5/5
f 827/6/5 819/6/5 826/6/5
f 828/10/5 821/10/5 820/10/5
f 828/5/5 820/5/5 827/5/5
f 829/1/5 822/1/5 821/1/5
f 829/10/5 821/10/5 828/10/5
f 830/3/5 823/3/5 822/3/5
f 830/1/5 822/1/5 829/1/5
f 831/1/5 802/1/5 823/1/5
f 831/3/5 823/3/5 830/3/5
f 832/9/5 825/9/5 824/9/5
f 833/8/5 826/8/5 825/8/5
f 833/9/5 825/9/5 832/9/5
f 834/11/5 827/11/5 826/11/5
f 834/8/5 826/8/5 833/8/5
f 835/6/5 828/6/5 827/6/5
f 835/11/5 827/11/5 834/11/5
f 836/1/5 830/1/5 829/1/5
f 836/6/5 828/6/5 835/6/5
f 836/1/5 829/1/5 828/1/5
f 836/1/5 831/1/5 830/1/5
f 837/1/5 831/1/5 836/1/5
f 838/1/5 814/1/5 813/1/5
f 838/1/5 815/1/5 814/1/5
f 840/4/5 833/4/5 832/4/5
f 841/9/5 835/9/5 834/9/5
f 841/4/5 833/4/5 840/4/5
f 841/9/5 834/9/5 833/9/5
f 842/9/5 835/9/5 841/9/5
f 843/11/5 836/11/5 835/11/5
f 843/9/5 835/9/5 842/9/5
f 843/11/5 837/11/5 836/11/5
f 844/11/5 837/11/5 843/11/5
f 845/1/5 831/1/5 837/1/5
f 845/11/5 837/11/5 844/11/5
f 846/1/5 839/1/5 838/1/5
f 848/5/5 841/5/5 840/5/5
f 849/6/5 842/6/5 841/6/5
f 849/5/5 841/5/5 848/5/5
f 850/10/5 844/10/5 843/10/5
f 850/6/5 842/6/5 849/6/5
f 850/10/5 843/10/5 842/10/5
f 851/10/5 844/10/5 850/10/5
f 852/7/5 845/7/5 844/7/5
f 852/10/5 844/10/5 851/10/5
f 853/1/5 831/1/5 845/1/5
f 853/7/5 845/7/5 852/7/5
f 854/1/5 847/1/5 846/1/5
f 854/1/5 846/1/5 838/1/5
f 855/1/5 847/1/5 854/1/5
f 856/9/5 849/9/5 848/9/5
f 857/11/5 850/11/5 849/11/5
f 857/9/5 849/9/5 856/9/5
f 858/8/5 851/8/5 850/8/5
f 858/11/5 850/11/5 857/11/5
f 859/7/5 852/7/5 851/7/5
f 859/8/5 851/8/5 858/8/5
f 860/1/5 853/1/5 852/1/5
f 860/7/5 852/7/5 859/7/5
f 861/1/5 831/1/5 853/1/5
f 861/1/5 853/1/5 860/1/5
f 862/1/5 831/1/5 861/1/5
f 863/1/5 802/1/5 831/1/5
f 863/1/5 831/1/5 862/1/5
f 864/1/5 838/1/5 813/1/5
f 864/1/5 854/1/5 838/1/5
f 865/1/5 854/1/5 864/1/5
f 866/6/5 857/6/5 856/6/5
f 867/7/5 858/7/5 857/7/5
f 867/6/5 857/6/5 866/6/5
f 868/9/5 860/9/5 859/9/5
f 868/7/5 858/7/5 867/7/5
f 868/9/5 859/9/5 858/9/5
f 869/9/5 860/9/5 868/9/5
f 870/7/5 861/7/5 860/7/5
f 870/9/5 860/9/5 869/9/5
f 871/1/5 862/1/5 861/1/5
f 871/7/5 861/7/5 870/7/5
f 872/3/5 863/3/5 862/3/5
f 872/1/5 862/1/5 871/1/5
f 873/1/5 802/1/5 863/1/5
f 873/3/5 863/3/5 872/3/5
f 874/9/5 867/9/5 866/9/5
f 875/11/5 869/11/5 868/11/5
f 875/9/5 867/9/5 874/9/5
f 875/11/5 868/11/5 867/11/5
f 876/11/5 869/11/5 875/11/5
f 877/8/5 870/8/5 869/8/5
f 877/11/5 869/11/5 876/11/5
f 878/10/5 871/10/5 870/10/5
f 878/8/5 870/8/5 877/8/5
f 879/1/5 872/1/5 871/1/5
f 879/10/5 871/10/5 878/10/5
f 879/1/5 873/1/5 872/1/5
f 880/1/5 813/1/5 803/1/5
f 880/1/5 864/1/5 813/1/5
f 881/1/5 864/1/5 880/1/5
f 882/1/5 864/1/5 881/1/5
f 883/7/5 876/7/5 875/7/5
f 884/8/5 877/8/5 876/8/5
f 884/7/5 876/7/5 883/7/5
f 885/10/5 878/10/5 877/10/5
f 885/8/5 877/8/5 884/8/5
f 886/11/5 879/11/5 878/11/5
f 886/10/5 878/10/5 885/10/5
f 887/1/5 873/1/5 879/1/5
f 887/3/5 803/3/5 802/3/5
f 887/1/5 802/1/5 873/1/5
f 888/1/5 880/1/5 803/1/5
f 888/3/5 803/3/5 887/3/5
f 889/1/5 880/1/5 888/1/5
f 890/11/5 881/11/5 880/11/5
f 890/1/5 880/1/5 889/1/5
f 891/8/5 882/8/5 881/8/5
f 891/11/5 881/11/5 890/11/5
f 892/8/5 882/8/5 891/8/5
f 893/9/5 884/9/5 883/9/5
f 894/7/5 885/7/5 884/7/5
f 894/9/5 884/9/5 893/9/5
f 895/5/5 886/5/5 885/5/5
f 895/7/5 885/7/5 894/7/5
f 896/11/5 879/11/5 886/11/5
f 896/5/5 886/5/5 895/5/5
f 897/1/5 889/1/5 888/1/5
f 897/11/5 879/11/5 896/11/5
f 897/1/5 887/1/5 879/1/5
f 897/1/5 888/1/5 887/1/5
f 898/1/5 889/1/5 897/1/5
f 899/1/5 889/1/5 898/1/5
f 900/1/5 889/1/5 899/1/5
f 901/9/5 890/9/5 889/9/5
f 901/1/5 889/1/5 900/1/5
f 902/6/5 891/6/5 890/6/5
f 902/9/5 890/9/5 901/9/5
f 903/5/5 892/5/5 891/5/5
f 903/6/5 891/6/5 902/6/5
f 904/5/5 892/5/5 903/5/5
f 905/7/5 894/7/5 893/7/5
f 906/6/5 895/6/5 894/6/5
f 906/7/5 894/7/5 905/7/5
f 907/10/5 896/10/5 895/10/5
f 907/6/5 895/6/5 906/6/5
f 908/5/5 897/5/5 896/5/5
f 908/10/5 896/10/5 907/10/5
f 908/5/5 898/5/5 897/5/5
f 909/5/5 898/5/5 908/5/5
f 910/1/5 899/1/5 898/1/5
f 910/5/5 898/5/5 909/5/5
f 911/1/5 899/1/5 910/1/5
f 912/1/5 899/1/5 911/1/5
f 913/1/5 899/1/5 912/1/5
f 914/11/5 900/11/5 899/11/5
f 914/1/5 899/1/5 913/1/5
f 915/9/5 901/9/5 900/9/5
f 915/11/5 900/11/5 914/11/5
f 916/11/5 902/11/5 901/11/5
f 916/9/5 901/9/5 915/9/5
f 917/7/5 903/7/5 902/7/5
f 917/11/5 902/11/5 916/11/5
f 918/9/5 904/9/5 903/9/5
f 918/7/5 903/7/5 917/7/5
f 919/9/5 904/9/5 918/9/5
f 920/6/5 906/6/5 905/6/5
f 921/9/5 907/9/5 906/9/5
f 921/6/5 906/6/5 920/6/5
f 922/8/5 909/8/5 908/8/5
f 922/9/5 907/9/5 921/9/5
f 922/8/5 908/8/5 907/8/5
f 923/4/5 910/4/5 909/4/5
f 923/8/5 909/8/5 922/8/5
f 924/11/5 911/11/5 910/11/5
f 924/4/5 910/4/5 923/4/5
f 925/1/5 912/1/5 911/1/5
f 925/11/5 911/11/5 924/11/5
f 926/1/5 912/1/5 925/1/5
f 927/1/5 912/1/5 926/1/5
f 928/1/5 912/1/5 927/1/5
f 929/7/5 913/7/5 912/7/5
f 929/1/5 912/1/5 928/1/5
f 930/9/5 914/9/5 913/9/5
f 930/7/5 913/7/5 929/7/5
f 931/9/5 914/9/5 930/9/5
f 932/5/5 915/5/5 914/5/5
f 932/9/5 914/9/5 931/9/5
f 933/7/5 916/7/5 915/7/5
f 933/5/5 915/5/5 932/5/5
f 934/8/5 917/8/5 916/8/5
f 934/7/5 916/7/5 933/7/5
f 935/10/5 921/10/5 920/10/5
f 935/10/5 922/10/5 921/10/5
f 935/10/5 923/10/5 922/10/5
f 936/10/5 923/10/5 935/10/5
f 937/10/5 923/10/5 936/10/5
f 938/5/5 924/5/5 923/5/5
f 938/10/5 923/10/5 937/10/5
f 939/10/5 925/10/5 924/10/5
f 939/5/5 924/5/5 938/5/5
f 940/4/5 926/4/5 925/4/5
f 940/10/5 925/10/5 939/10/5
f 941/8/5 927/8/5 926/8/5
f 941/4/5 926/4/5 940/4/5
f 942/6/5 928/6/5 927/6/5
f 942/8/5 927/8/5 941/8/5
f 943/8/5 929/8/5 928/8/5
f 943/6/5 928/6/5 942/6/5
f 944/6/5 930/6/5 929/6/5
f 944/8/5 929/8/5 943/8/5
f 945/9/5 931/9/5 930/9/5
f 945/8/5 932/8/5 931/8/5
f 946/6/5 933/6/5 932/6/5
f 946/8/5 932/8/5 945/8/5
f 946/6/5 934/6/5 933/6/5
f 947/6/5 934/6/5 946/6/5
f 948/8/5 917/8/5 934/8/5
f 948/6/5 934/6/5 947/6/5
f 949/11/5 918/11/5 917/11/5
f 949/8/5 917/8/5 948/8/5
f 950/11/5 918/11/5 949/11/5
f 951/5/5 936/5/5 935/5/5
f 952/8/5 937/8/5 936/8/5
f 952/5/5 936/5/5 951/5/5
f 953/4/5 938/4/5 937/4/5
f 953/8/5 937/8/5 952/8/5
f 954/7/5 939/7/5 938/7/5
f 954/4/5 938/4/5 953/4/5
f 955/8/5 941/8/5 940/8/5
f 955/7/5 939/7/5 954/7/5
f 955/8/5 942/8/5 941/8/5
f 955/8/5 940/8/5 939/8/5
f 956/8/5 942/8/5 955/8/5
f 957/8/5 942/8/5 956/8/5
f 958/10/5 943/10/5 942/10/5
f 958/8/5 942/8/5 957/8/5
f 959/6/5 930/6/5 944/6/5
f 959/9/5 945/9/5 930/9/5
f 959/9/5 946/9/5 945/9/5
f 960/9/5 946/9/5 959/9/5
f 961/6/5 947/6/5 946/6/5
f 961/9/5 946/9/5 960/9/5
f 962/9/5 949/9/5 948/9/5
f 962/6/5 947/6/5 961/6/5
f 962/9/5 948/9/5 947/9/5
f 963/9/5 949/9/5 962/9/5
f 964/7/5 953/7/5 952/7/5
f 965/7/5 953/7/5 964/7/5
f 966/8/5 954/8/5 953/8/5
f 966/7/5 953/7/5 965/7/5
f 967/7/5 955/7/5 954/7/5
f 967/8/5 954/8/5 966/8/5
f 968/9/5 956/9/5 955/9/5
f 968/7/5 955/7/5 967/7/5
f 969/8/5 957/8/5 956/8/5
f 969/9/5 956/9/5 968/9/5
f 970/5/5 958/5/5 957/5/5
f 970/8/5 957/8/5 969/8/5
f 971/10/5 943/10/5 958/10/5
f 971/5/5 958/5/5 970/5/5
f 972/4/5 944/4/5 943/4/5
f 972/10/5 943/10/5 971/10/5
f 973/6/5 959/6/5 944/6/5
f 973/4/5 944/4/5 972/4/5
f 974/10/5 960/10/5 959/10/5
f 974/6/5 959/6/5 973/6/5
f 975/11/5 961/11/5 960/11/5
f 975/10/5 960/10/5 974/10/5
f 976/10/5 962/10/5 961/10/5
f 976/11/5 961/11/5 975/11/5
f 977/6/5 963/6/5 962/6/5
f 977/10/5 962/10/5 976/10/5
f 978/9/5 949/9/5 963/9/5
f 978/6/5 963/6/5 977/6/5
f 979/9/5 949/9/5 978/9/5
f 980/8/5 965/8/5 964/8/5
f 981/9/5 966/9/5 965/9/5
f 981/8/5 965/8/5 980/8/5
f 982/11/5 967/11/5 966/11/5
f 982/9/5 966/9/5 981/9/5
f 983/4/5 968/4/5 967/4/5
f 983/11/5 967/11/5 982/11/5
f 984/5/5 969/5/5 968/5/5
f 984/4/5 968/4/5 983/4/5
f 985/10/5 970/10/5 969/10/5
f 985/5/5 969/5/5 984/5/5
f 986/9/5 971/9/5 970/9/5
f 986/10/5 970/10/5 985/10/5
f 987/5/5 972/5/5 971/5/5
f 987/9/5 971/9/5 986/9/5
f 988/7/5 973/7/5 972/7/5
f 988/5/5 972/5/5 987/5/5
f 989/5/5 974/5/5 973/5/5
f 989/7/5 973/7/5 988/7/5
f 989/5/5 975/5/5 974/5/5
f 990/5/5 975/5/5 989/5/5
f 991/11/5 977/11/5 976/11/5
f 991/5/5 975/5/5 990/5/5
f 991/11/5 976/11/5 975/11/5
f 992/11/5 977/11/5 991/11/5
f 993/8/5 978/8/5 977/8/5
f 993/11/5 977/11/5 992/11/5
f 994/8/5 978/8/5 993/8/5
f 995/8/5 983/8/5 982/8/5
f 996/4/5 984/4/5 983/4/5
f 996/8/5 983/8/5 995/8/5
f 997/6/5 985/6/5 984/6/5
f 997/4/5 984/4/5 996/4/5
f 998/5/5 986/5/5 985/5/5
f 998/6/5 985/6/5 997/6/5
f 999/10/5 987/10/5 986/10/5
f 999/5/5 986/5/5 998/5/5
f 1000/7/5 988/7/5 987/7/5
f 1000/10/5 987/10/5 999/10/5
f 1001/4/5 989/4/5 988/4/5
f 1001/7/5 988/7/5 1000/7/5
f 1002/7/5 990/7/5 989/7/5
f 1002/4/5 989/4/5 1001/4/5
f 1003/5/5 992/5/5 991/5/5
f 1003/7/5 990/7/5 1002/7/5
f 1003/5/5 991/5/5 990/5/5
f 1004/5/5 992/5/5 1003/5/5
f 1005/9/5 993/9/5 992/9/5
f 1005/5/5 992/5/5 1004/5/5
f 1006/10/5 994/10/5 993/10/5
f 1006/9/5 993/9/5 1005/9/5
f 1007/10/5 994/10/5 1006/10/5
f 1008/7/5 997/7/5 996/7/5
f 1009/8/5 999/8/5 998/8/5
f 1009/7/5 997/7/5 1008/7/5
f 1009/8/5 998/8/5 997/8/5
f 1010/8/5 999/8/5 1009/8/5
f 1011/11/5 1000/11/5 999/11/5
f 1011/8/5 999/8/5 1010/8/5
f 1012/10/5 1001/10/5 1000/10/5
f 1012/11/5 1000/11/5 1011/11/5
f 1013/11/5 1002/11/5 1001/11/5
f 1013/10/5 1001/10/5 1012/10/5
f 1014/8/5 1003/8/5 1002/8/5
f 1014/11/5 1002/11/5 1013/11/5
f 1014/8/5 1004/8/5 1003/8/5
f 1015/10/5 1005/10/5 1004/10/5
f 1015/8/5 1004/8/5 1014/8/5
f 1016/10/5 1005/10/5 1015/10/5
f 1017/11/5 1011/11/5 1010/11/5
f 1018/8/5 1012/8/5 1011/8/5
f 1018/11/5 1011/11/5 1017/11/5
f 1019/10/5 1013/10/5 1012/10/5
f 1019/8/5 1012/8/5 1018/8/5
f 1020/10/5 1013/10/5 1019/10/5
f 1021/6/6 1022/6/6 1026/6/6
f 1022/7/6 1023/7/6 1027/7/6
f 1026/6/6 1022/6/6 1027/6/6
f 1027/7/6 1023/7/6 1028/7/6
f 1024/11/6 1025/11/6 1034/11/6
f 1025/5/6 1026/5/6 1035/5/6
f 1034/11/6 1025/11/6 1035/11/6
f 1026/11/6 1027/11/6 1036/11/6
f 1035/5/6 1026/5/6 1036/5/6
f 1027/10/6 1028/10/6 1037/10/6
f 1036/11/6 1027/11/6 1037/11/6
f 1028/5/6 1029/5/6 1038/5/6
f 1037/10/6 1028/10/6 1038/10/6
f 1029/4/6 1030/4/6 1039/4/6
f 1038/5/6 1029/5/6 1039/5/6
f 1030/9/6 1031/9/6 1040/9/6
f 1039/4/6 1030/4/6 1040/4/6
f 1031/6/6 1032/6/6 1041/6/6
f 1040/9/6 1031/9/6 1041/9/6
f 1041/6/6 1032/6/6 1042/6/6
f 1033/4/6 1034/4/6 1046/4/6
f 1034/7/6 1035/7/6 1047/7/6
f 1046/4/6 1034/4/6 1047/4/6
f 1047/7/6 1035/7/6 1048/7/6
f 1041/10/6 1042/10/6 1049/10/6
f 1042/11/6 1043/11/6 1050/11/6
f 1049/10/6 1042/10/6 1050/10/6
f 1050/11/6 1043/11/6 1051/11/6
f 1044/8/6 1045/8/6 1054/8/6
f 1045/4/6 1046/4/6 1055/4/6
f 1054/8/6 1045/8/6 1055/8/6
f 1046/8/6 1047/8/6 1056/8/6
f 1055/4/6 1046/4/6 1056/4/6
f 1056/8/6 1047/8/6 1057/8/6
f 1050/11/6 1051/11/6 1058/11/6
f 1051/7/6 1052/7/6 1059/7/6
f 1058/11/6 1051/11/6 1059/11/6
f 1059/7/6 1052/7/6 1060/7/6
f 1053/7/6 1054/7/6 1061/7/6
f 1054/5/6 1055/5/6 1061/5/6
f 1055/9/6 1056/9/6 1062/9/6
f 1061/5/6 1055/5/6 1062/5/6
f 1062/9/6 1056/9/6 1063/9/6
f 1059/9/6 1060/9/6 1064/9/6
f 1064/9/6 1060/9/6 1065/9/6
f 1053/7/6 1061/7/6 1068/7/6
f 1061/7/6 1062/7/6 1068/7/6
f 1068/7/6 1062/7/6 1069/7/6
f 1062/9/6 1063/9/6 1070/9/6
f 1069/7/6 1062/7/6 1070/7/6
f 1070/9/6 1063/9/6 1071/9/6
f 1065/7/6 1066/7/6 1072/7/6
f 1072/7/6 1066/7/6 1073/7/6
f 1067/5/6 1068/5/6 1074/5/6
f 1068/4/6 1069/4/6 1075/4/6
f 1074/5/6 1068/5/6 1075/5/6
f 1069/10/6 1070/10/6 1076/10/6
f 1075/4/6 1069/4/6 1076/4/6
f 1076/10/6 1070/10/6 1077/10/6
f 1072/4/6 1073/4/6 1078/4/6
f 1078/4/6 1073/4/6 1079/4/6
f 1074/6/6 1075/6/6 1081/6/6
f 1075/9/6 1076/9/6 1082/9/6
f 1081/6/6 1075/6/6 1082/6/6
f 1082/9/6 1076/9/6 1083/9/6
f 1079/9/6 1080/9/6 1084/9/6
f 1084/9/6 1080/9/6 1085/9/6
f 1081/4/6 1082/4/6 1086/4/6
f 1082/6/6 1083/6/6 1087/6/6
f 1086/4/6 1082/4/6 1087/4/6
f 1087/6/6 1083/6/6 1088/6/6
f 1084/7/6 1085/7/6 1089/7/6
f 1089/7/6 1085/7/6 1090/7/6
f 1086/11/6 1087/11/6 1092/11/6
f 1092/11/6 1087/11/6 1093/11/6
f 1090/10/6 1091/10/6 1094/10/6
f 1094/10/6 1091/10/6 1095/10/6
f 1092/6/6 1093/6/6 1096/6/6
f 1096/6/6 1093/6/6 1097/6/6
f 1094/8/6 1095/8/6 1098/8/6
f 1098/8/6 1095/8/6 1099/8/6
f 1096/9/6 1097/9/6 1101/9/6
f 1098/1/6 1099/1/6 1102/1/6
f 1100/8/6 1101/8/6 1103/8/6
f 1101/9/6 1097/9/6 1104/9/6
f 1103/8/6 1101/8/6 1104/8/6
f 1104/9/6 1097/9/6 1105/9/6
f 1103/9/6 1104/9/6 1106/9/6
f 1104/8/6 1105/8/6 1107/8/6
f 1106/9/6 1104/9/6 1107/9/6
f 1107/8/6 1105/8/6 1108/8/6
f 1102/1/6 1099/1/6 1109/1/6
f 1106/4/6 1107/4/6 1111/4/6
f 1107/9/6 1108/9/6 1112/9/6
f 1111/4/6 1107/4/6 1112/4/6
f 1112/9/6 1108/9/6 1113/9/6
f 1102/1/6 1109/1/6 1114/1/6
f 1109/1/6 1110/1/6 1114/1/6
f 1114/1/6 1110/1/6 1115/1/6
f 1111/5/6 1112/5/6 1117/5/6
f 1112/6/6 1113/6/6 1118/6/6
f 1117/5/6 1112/5/6 1118/5/6
f 1118/6/6 1113/6/6 1119/6/6
f 1115/1/6 1116/1/6 1120/1/6
f 1114/1/6 1115/1/6 1120/1/6
f 1120/1/6 1116/1/6 1121/1/6
f 1121/1/6 1116/1/6 1122/1/6
f 1117/9/6 1118/9/6 1123/9/6
f 1118/11/6 1119/11/6 1124/11/6
f 1123/9/6 1118/9/6 1124/9/6
f 1124/11/6 1119/11/6 1125/11/6
f 1120/1/6 1121/1/6 1126/1/6
f 1126/1/6 1121/1/6 1127/1/6
f 1127/1/6 1121/1/6 1128/1/6
f 1123/6/6 1124/6/6 1129/6/6
f 1124/7/6 1125/7/6 1130/7/6
f 1129/6/6 1124/6/6 1130/6/6
f 1130/7/6 1125/7/6 1131/7/6
f 1126/1/6 1127/1/6 1132/1/6
f 1129/9/6 1130/9/6 1133/9/6
f 1130/11/6 1131/11/6 1134/11/6
f 1133/9/6 1130/9/6 1134/9/6
f 1134/11/6 1131/11/6 1135/11/6
f 1132/1/6 1127/1/6 1137/1/6
f 1137/1/6 1127/1/6 1138/1/6
f 1134/7/6 1135/7/6 1139/7/6
f 1135/8/6 1136/8/6 1140/8/6
f 1139/7/6 1135/7/6 1140/7/6
f 1140/8/6 1136/8/6 1141/8/6
f 1137/8/6 1138/8/6 1142/8/6
f 1142/8/6 1138/8/6 1143/8/6
f 1139/9/6 1140/9/6 1144/9/6
f 1140/7/6 1141/7/6 1145/7/6
f 1144/9/6 1140/9/6 1145/9/6
f 1145/7/6 1141/7/6 1146/7/6
f 1142/5/6 1143/5/6 1148/5/6
f 1148/5/6 1143/5/6 1149/5/6
f 1144/7/6 1145/7/6 1150/7/6
f 1145/6/6 1146/6/6 1151/6/6
f 1150/7/6 1145/7/6 1151/7/6
f 1151/6/6 1146/6/6 1152/6/6
f 1147/7/6 1148/7/6 1153/7/6
f 1148/9/6 1149/9/6 1154/9/6
f 1153/7/6 1148/7/6 1154/7/6
f 1154/9/6 1149/9/6 1155/9/6
f 1150/6/6 1151/6/6 1156/6/6
f 1151/9/6 1152/9/6 1157/9/6
f 1156/6/6 1151/6/6 1157/6/6
f 1157/9/6 1152/9/6 1158/9/6
f 1156/10/6 1157/10/6 1160/10/6
f 1158/10/6 1159/10/6 1160/10/6
f 1157/10/6 1158/10/6 1160/10/6
f 1160/10/6 1159/10/6 1161/10/6
f 1161/10/6 1159/10/6 1162/10/6
f 1153/11/6 1154/11/6 1164/11/6
f 1164/11/6 1154/11/6 1165/11/6
f 1160/5/6 1161/5/6 1166/5/6
f 1161/8/6 1162/8/6 1167/8/6
f 1166/5/6 1161/5/6 1167/5/6
f 1167/8/6 1162/8/6 1168/8/6
f 1163/9/6 1164/9/6 1169/9/6
f 1167/7/6 1168/7/6 1170/7/6
f 1170/7/6 1168/7/6 1171/7/6
f 1171/7/6 1168/7/6 1172/7/6
f 1169/9/6 1164/9/6 1175/9/6
f 1175/9/6 1164/9/6 1176/9/6
f 1170/8/6 1171/8/6 1177/8/6
f 1171/9/6 1172/9/6 1178/9/6
f 1177/8/6 1171/8/6 1178/8/6
f 1172/11/6 1173/11/6 1179/11/6
f 1178/9/6 1172/9/6 1179/9/6
f 1179/11/6 1173/11/6 1180/11/6
f 1174/8/6 1175/8/6 1182/8/6
f 1182/8/6 1175/8/6 1183/8/6
f 1179/8/6 1180/8/6 1184/8/6
f 1180/4/6 1181/4/6 1185/4/6
f 1184/8/6 1180/8/6 1185/8/6
f 1185/4/6 1181/4/6 1186/4/6
f 1182/10/6 1183/10/6 1188/10/6
f 1188/10/6 1183/10/6 1189/10/6
f 1185/7/6 1186/7/6 1190/7/6
f 1186/8/6 1187/8/6 1191/8/6
f 1190/7/6 1186/7/6 1191/7/6
f 1191/8/6 1187/8/6 1192/8/6
f 1192/11/6 1193/11/6 1196/11/6
f 1193/8/6 1194/8/6 1197/8/6
f 1196/11/6 1193/11/6 1197/11/6
f 1194/10/6 1195/10/6 1198/10/6
f 1197/8/6 1194/8/6 1198/8/6
f 1198/10/6 1195/10/6 1199/10/6
f 1200/10/6 1201/10/6 1206/10/6
f 1201/9/6 1202/9/6 1207/9/6
f 1206/10/6 1201/10/6 1207/10/6
f 1202/11/6 1203/11/6 1208/11/6
f 1207/9/6 1202/9/6 1208/9/6
f 1208/11/6 1203/11/6 1209/11/6
f 1209/11/6 1203/11/6 1210/11/6
f 1203/9/6 1204/9/6 1211/9/6
f 1210/11/6 1203/11/6 1211/11/6
f 1211/9/6 1204/9/6 1212/9/6
f 1205/7/6 1206/7/6 1215/7/6
f 1206/6/6 1207/6/6 1216/6/6
f 1215/7/6 1206/7/6 1216/7/6
f 1207/4/6 1208/4/6 1217/4/6
f 1216/6/6 1207/6/6 1217/6/6
f 1208/5/6 1209/5/6 1218/5/6
f 1217/4/6 1208/4/6 1218/4/6
f 1209/11/6 1210/11/6 1219/11/6
f 1218/5/6 1209/5/6 1219/5/6
f 1210/8/6 1211/8/6 1220/8/6
f 1219/11/6 1210/11/6 1220/11/6
f 1211/9/6 1212/9/6 1221/9/6
f 1220/8/6 1211/8/6 1221/8/6
f 1212/4/6 1213/4/6 1222/4/6
f 1221/9/6 1212/9/6 1222/9/6
f 1222/4/6 1213/4/6 1223/4/6
f 1214/7/6 1215/7/6 1225/7/6
f 1215/10/6 1216/10/6 1226/10/6
f 1225/7/6 1215/7/6 1226/7/6
f 1216/5/6 1217/5/6 1227/5/6
f 1226/10/6 1216/10/6 1227/10/6
f 1217/11/6 1218/11/6 1228/11/6
f 1227/5/6 1217/5/6 1228/5/6
f 1218/5/6 1219/5/6 1229/5/6
f 1228/11/6 1218/11/6 1229/11/6
f 1219/8/6 1220/8/6 1230/8/6
f 1229/5/6 1219/5/6 1230/5/6
f 1220/9/6 1221/9/6 1231/9/6
f 1230/8/6 1220/8/6 1231/8/6
f 1221/11/6 1222/11/6 1232/11/6
f 1231/9/6 1221/9/6 1232/9/6
f 1222/6/6 1223/6/6 1233/6/6
f 1232/11/6 1222/11/6 1233/11/6
f 1223/9/6 1224/9/6 1234/9/6
f 1233/6/6 1223/6/6 1234/6/6
f 1234/9/6 1224/9/6 1235/9/6
f 1225/11/6 1226/11/6 1238/11/6
f 1226/8/6 1227/8/6 1239/8/6
f 1238/11/6 1226/11/6 1239/11/6
f 1227/10/6 1228/10/6 1240/10/6
f 1239/8/6 1227/8/6 1240/8/6
f 1228/8/6 1229/8/6 1241/8/6
f 1240/10/6 1228/10/6 1241/10/6
f 1229/10/6 1230/10/6 1242/10/6
f 1241/8/6 1229/8/6 1242/8/6
f 1230/10/6 1231/10/6 1242/10/6
f 1242/10/6 1231/10/6 1243/10/6
f 1231/4/6 1232/4/6 1244/4/6
f 1243/10/6 1231/10/6 1244/10/6
f 1232/8/6 1233/8/6 1245/8/6
f 1244/4/6 1232/4/6 1245/4/6
f 1233/8/6 1234/8/6 1245/8/6
f 1245/8/6 1234/8/6 1246/8/6
f 1234/11/6 1235/11/6 1247/11/6
f 1246/8/6 1234/8/6 1247/8/6
f 1235/10/6 1236/10/6 1248/10/6
f 1247/11/6 1235/11/6 1248/11/6
f 1248/10/6 1236/10/6 1249/10/6
f 1237/7/6 1238/7/6 1251/7/6
f 1238/6/6 1239/6/6 1252/6/6
f 1251/7/6 1238/7/6 1252/7/6
f 1239/5/6 1240/5/6 1253/5/6
f 1252/6/6 1239/6/6 1253/6/6
f 1240/7/6 1241/7/6 1254/7/6
f 1253/5/6 1240/5/6 1254/5/6
f 1241/4/6 1242/4/6 1255/4/6
f 1254/7/6 1241/7/6 1255/7/6
f 1242/7/6 1243/7/6 1256/7/6
f 1255/4/6 1242/4/6 1256/4/6
f 1243/11/6 1244/11/6 1257/11/6
f 1256/7/6 1243/7/6 1257/7/6
f 1245/10/6 1246/10/6 1258/10/6
f 1257/11/6 1244/11/6 1258/11/6
f 1244/10/6 1245/10/6 1258/10/6
f 1258/10/6 1246/10/6 1259/10/6
f 1246/6/6 1247/6/6 1260/6/6
f 1259/10/6 1246/10/6 1260/10/6
f 1247/6/6 1248/6/6 1260/6/6
f 1260/6/6 1248/6/6 1261/6/6
f 1248/8/6 1249/8/6 1262/8/6
f 1261/6/6 1248/6/6 1262/6/6
f 1262/8/6 1249/8/6 1263/8/6
f 1250/7/6 1251/7/6 1265/7/6
f 1252/4/6 1253/4/6 1266/4/6
f 1265/7/6 1251/7/6 1266/7/6
f 1251/4/6 1252/4/6 1266/4/6
f 1266/4/6 1253/4/6 1267/4/6
f 1253/7/6 1254/7/6 1268/7/6
f 1267/4/6 1253/4/6 1268/4/6
f 1254/9/6 1255/9/6 1269/9/6
f 1268/7/6 1254/7/6 1269/7/6
f 1255/11/6 1256/11/6 1270/11/6
f 1269/9/6 1255/9/6 1270/9/6
f 1256/7/6 1257/7/6 1271/7/6
f 1270/11/6 1256/11/6 1271/11/6
f 1257/8/6 1258/8/6 1272/8/6
f 1271/7/6 1257/7/6 1272/7/6
f 1258/5/6 1259/5/6 1273/5/6
f 1272/8/6 1258/8/6 1273/8/6
f 1259/6/6 1260/6/6 1274/6/6
f 1273/5/6 1259/5/6 1274/5/6
f 1260/7/6 1261/7/6 1275/7/6
f 1274/6/6 1260/6/6 1275/6/6
f 1261/10/6 1262/10/6 1276/10/6
f 1275/7/6 1261/7/6 1276/7/6
f 1262/5/6 1263/5/6 1277/5/6
f 1276/10/6 1262/10/6 1277/10/6
f 1263/9/6 1264/9/6 1278/9/6
f 1277/5/6 1263/5/6 1278/5/6
f 1278/9/6 1264/9/6 1279/9/6
f 1265/11/6 1266/11/6 1281/11/6
f 1266/10/6 1267/10/6 1282/10/6
f 1281/11/6 1266/11/6 1282/11/6
f 1268/6/6 1269/6/6 1283/6/6
f 1282/10/6 1267/10/6 1283/10/6
f 1267/6/6 1268/6/6 1283/6/6
f 1283/6/6 1269/6/6 1284/6/6
f 1269/11/6 1270/11/6 1285/11/6
f 1284/6/6 1269/6/6 1285/6/6
f 1270/10/6 1271/10/6 1286/10/6
f 1285/11/6 1270/11/6 1286/11/6
f 1271/5/6 1272/5/6 1287/5/6
f 1286/10/6 1271/10/6 1287/10/6
f 1272/10/6 1273/10/6 1288/10/6
f 1287/5/6 1272/5/6 1288/5/6
f 1273/8/6 1274/8/6 1289/8/6
f 1288/10/6 1273/10/6 1289/10/6
f 1274/4/6 1275/4/6 1290/4/6
f 1289/8/6 1274/8/6 1290/8/6
f 1275/9/6 1276/9/6 1291/9/6
f 1290/4/6 1275/4/6 1291/4/6
f 1276/10/6 1277/10/6 1292/10/6
f 1291/9/6 1276/9/6 1292/9/6
f 1277/4/6 1278/4/6 1293/4/6
f 1292/10/6 1277/10/6 1293/10/6
f 1278/11/6 1279/11/6 1294/11/6
f 1293/4/6 1278/4/6 1294/4/6
f 1294/11/6 1279/11/6 1295/11/6
f 1280/8/6 1281/8/6 1297/8/6
f 1281/7/6 1282/7/6 1298/7/6
f 1297/8/6 1281/8/6 1298/8/6
f 1282/4/6 1283/4/6 1299/4/6
f 1298/7/6 1282/7/6 1299/7/6
f 1283/5/6 1284/5/6 1300/5/6
f 1299/4/6 1283/4/6 1300/4/6
f 1284/4/6 1285/4/6 1301/4/6
f 1300/5/6 1284/5/6 1301/5/6
f 1285/10/6 1286/10/6 1302/10/6
f 1301/4/6 1285/4/6 1302/4/6
f 1286/8/6 1287/8/6 1303/8/6
f 1302/10/6 1286/10/6 1303/10/6
f 1287/6/6 1288/6/6 1304/6/6
f 1303/8/6 1287/8/6 1304/8/6
f 1288/9/6 1289/9/6 1305/9/6
f 1304/6/6 1288/6/6 1305/6/6
f 1289/6/6 1290/6/6 1306/6/6
f 1305/9/6 1289/9/6 1306/9/6
f 1290/5/6 1291/5/6 1307/5/6
f 1306/6/6 1290/6/6 1307/6/6
f 1291/6/6 1292/6/6 1308/6/6
f 1307/5/6 1291/5/6 1308/5/6
f 1292/10/6 1293/10/6 1309/10/6
f 1308/6/6 1292/6/6 1309/6/6
f 1293/6/6 1294/6/6 1310/6/6
f 1309/10/6 1293/10/6 1310/10/6
f 1294/10/6 1295/10/6 1311/10/6
f 1310/6/6 1294/6/6 1311/6/6
f 1295/5/6 1296/5/6 1312/5/6
f 1311/10/6 1295/10/6 1312/10/6
f 1312/5/6 1296/5/6 1313/5/6
f 1297/6/6 1298/6/6 1314/6/6
f 1298/7/6 1299/7/6 1315/7/6
f 1314/6/6 1298/6/6 1315/6/6
f 1299/11/6 1300/11/6 1316/11/6
f 1315/7/6 1299/7/6 1316/7/6
f 1300/10/6 1301/10/6 1317/10/6
f 1316/11/6 1300/11/6 1317/11/6
f 1301/9/6 1302/9/6 1318/9/6
f 1317/10/6 1301/10/6 1318/10/6
f 1302/6/6 1303/6/6 1319/6/6
f 1318/9/6 1302/9/6 1319/9/6
f 1319/6/6 1303/6/6 1320/6/6
f 1308/7/6 1309/7/6 1321/7/6
f 1309/9/6 1310/9/6 1322/9/6
f 1321/7/6 1309/7/6 1322/7/6
f 1310/4/6 1311/4/6 1323/4/6
f 1322/9/6 1310/9/6 1323/9/6
f 1311/6/6 1312/6/6 1324/6/6
f 1323/4/6 1311/4/6 1324/4/6
f 1312/4/6 1313/4/6 1325/4/6
f 1324/6/6 1312/6/6 1325/6/6
f 1325/4/6 1313/4/6 1326/4/6
f 1315/5/6 1316/5/6 1327/5/6
f 1314/10/6 1315/10/6 1327/10/6
f 1316/8/6 1317/8/6 1328/8/6
f 1327/5/6 1316/5/6 1328/5/6
f 1317/4/6 1318/4/6 1329/4/6
f 1328/8/6 1317/8/6 1329/8/6
f 1318/10/6 1319/10/6 1330/10/6
f 1329/4/6 1318/4/6 1330/4/6
f 1330/10/6 1319/10/6 1331/10/6
f 1323/5/6 1324/5/6 1332/5/6
f 1324/5/6 1325/5/6 1332/5/6
f 1332/5/6 1325/5/6 1333/5/6
f 1325/8/6 1326/8/6 1334/8/6
f 1333/5/6 1325/5/6 1334/5/6
f 1334/8/6 1326/8/6 1335/8/6
f 1314/10/6 1327/10/6 1336/10/6
f 1327/4/6 1328/4/6 1337/4/6
f 1336/10/6 1327/10/6 1337/10/6
f 1329/10/6 1330/10/6 1338/10/6
f 1337/4/6 1328/4/6 1338/4/6
f 1328/10/6 1329/10/6 1338/10/6
f 1338/10/6 1330/10/6 1339/10/6
f 1339/10/6 1330/10/6 1340/10/6
f 1334/5/6 1335/5/6 1341/5/6
f 1341/5/6 1335/5/6 1342/5/6
f 1336/4/6 1337/4/6 1343/4/6
f 1337/7/6 1338/7/6 1343/7/6
f 1338/6/6 1339/6/6 1344/6/6
f 1343/7/6 1338/7/6 1344/7/6
f 1344/6/6 1339/6/6 1345/6/6
f 1336/4/6 1343/4/6 1346/4/6
f 1343/8/6 1344/8/6 1347/8/6
f 1346/4/6 1343/4/6 1347/4/6
f 1344/10/6 1345/10/6 1348/10/6
f 1347/8/6 1344/8/6 1348/8/6
f 1348/10/6 1345/10/6 1349/10/6
f 1346/11/6 1347/11/6 1350/11/6
f 1347/4/6 1348/4/6 1351/4/6
f 1350/11/6 1347/11/6 1351/11/6
f 1348/6/6 1349/6/6 1352/6/6
f 1351/4/6 1348/4/6 1352/4/6
f 1352/6/6 1349/6/6 1353/6/6
f 1350/8/6 1351/8/6 1354/8/6
f 1351/6/6 1352/6/6 1355/6/6
f 1354/8/6 1351/8/6 1355/8/6
f 1352/11/6 1353/11/6 1356/11/6
f 1355/6/6 1352/6/6 1356/6/6
f 1356/11/6 1353/11/6 1357/11/6
f 1354/4/6 1355/4/6 1361/4/6
f 1356/8/6 1357/8/6 1362/8/6
f 1361/4/6 1355/4/6 1362/4/6
f 1355/8/6 1356/8/6 1362/8/6
f 1357/8/6 1358/8/6 1362/8/6
f 1362/8/6 1358/8/6 1363/8/6
f 1363/8/6 1358/8/6 1364/8/6
f 1364/8/6 1358/8/6 1365/8/6
f 1359/6/6 1360/6/6 1369/6/6
f 1369/6/6 1360/6/6 1370/6/6
f 1361/5/6 1362/5/6 1371/5/6
f 1362/5/6 1363/5/6 1371/5/6
f 1371/5/6 1363/5/6 1372/5/6
f 1363/11/6 1364/11/6 1373/11/6
f 1372/5/6 1363/5/6 1373/5/6
f 1364/10/6 1365/10/6 1374/10/6
f 1373/11/6 1364/11/6 1374/11/6
f 1365/7/6 1366/7/6 1375/7/6
f 1374/10/6 1365/10/6 1375/10/6
f 1375/7/6 1366/7/6 1376/7/6
f 1367/9/6 1368/9/6 1380/9/6
f 1368/4/6 1369/4/6 1381/4/6
f 1380/9/6 1368/9/6 1381/9/6
f 1369/11/6 1370/11/6 1382/11/6
f 1381/4/6 1369/4/6 1382/4/6
f 1382/11/6 1370/11/6 1383/11/6
f 1372/7/6 1373/7/6 1384/7/6
f 1373/10/6 1374/10/6 1385/10/6
f 1384/7/6 1373/7/6 1385/7/6
f 1374/4/6 1375/4/6 1386/4/6
f 1385/10/6 1374/10/6 1386/10/6
f 1375/10/6 1376/10/6 1387/10/6
f 1386/4/6 1375/4/6 1387/4/6
f 1376/7/6 1377/7/6 1388/7/6
f 1387/10/6 1376/10/6 1388/10/6
f 1388/7/6 1377/7/6 1389/7/6
f 1378/7/6 1379/7/6 1394/7/6
f 1379/10/6 1380/10/6 1395/10/6
f 1394/7/6 1379/7/6 1395/7/6
f 1380/9/6 1381/9/6 1396/9/6
f 1395/10/6 1380/10/6 1396/10/6
f 1381/9/6 1382/9/6 1396/9/6
f 1396/9/6 1382/9/6 1397/9/6
f 1382/10/6 1383/10/6 1398/10/6
f 1397/9/6 1382/9/6 1398/9/6
f 1398/10/6 1383/10/6 1399/10/6
f 1384/8/6 1385/8/6 1400/8/6
f 1385/6/6 1386/6/6 1401/6/6
f 1400/8/6 1385/8/6 1401/8/6
f 1386/6/6 1387/6/6 1401/6/6
f 1401/6/6 1387/6/6 1402/6/6
f 1387/10/6 1388/10/6 1403/10/6
f 1402/6/6 1387/6/6 1403/6/6
f 1388/5/6 1389/5/6 1404/5/6
f 1403/10/6 1388/10/6 1404/10/6
f 1389/7/6 1390/7/6 1405/7/6
f 1404/5/6 1389/5/6 1405/5/6
f 1390/10/6 1391/10/6 1406/10/6
f 1405/7/6 1390/7/6 1406/7/6
f 1392/7/6 1393/7/6 1407/7/6
f 1406/10/6 1391/10/6 1407/10/6
f 1391/7/6 1392/7/6 1407/7/6
f 1407/7/6 1393/7/6 1408/7/6
f 1393/9/6 1394/9/6 1409/9/6
f 1408/7/6 1393/7/6 1409/7/6
f 1394/11/6 1395/11/6 1410/11/6
f 1409/9/6 1394/9/6 1410/9/6
f 1395/5/6 1396/5/6 1411/5/6
f 1410/11/6 1395/11/6 1411/11/6
f 1396/7/6 1397/7/6 1412/7/6
f 1411/5/6 1396/5/6 1412/5/6
f 1397/8/6 1398/8/6 1413/8/6
f 1412/7/6 1397/7/6 1413/7/6
f 1398/4/6 1399/4/6 1414/4/6
f 1413/8/6 1398/8/6 1414/8/6
f 1414/4/6 1399/4/6 1415/4/6
f 1400/7/6 1401/7/6 1416/7/6
f 1401/10/6 1402/10/6 1417/10/6
f 1416/7/6 1401/7/6 1417/7/6
f 1402/5/6 1403/5/6 1418/5/6
f 1417/10/6 1402/10/6 1418/10/6
f 1403/6/6 1404/6/6 1419/6/6
f 1418/5/6 1403/5/6 1419/5/6
f 1404/9/6 1405/9/6 1420/9/6
f 1419/6/6 1404/6/6 1420/6/6
f 1405/4/6 1406/4/6 1421/4/6
f 1420/9/6 1405/9/6 1421/9/6
f 1407/5/6 1408/5/6 1422/5/6
f 1421/4/6 1406/4/6 1422/4/6
f 1406/5/6 1407/5/6 1422/5/6
f 1422/5/6 1408/5/6 1423/5/6
f 1408/4/6 1409/4/6 1424/4/6
f 1423/5/6 1408/5/6 1424/5/6
f 1409/6/6 1410/6/6 1425/6/6
f 1424/4/6 1409/4/6 1425/4/6
f 1410/11/6 1411/11/6 1426/11/6
f 1425/6/6 1410/6/6 1426/6/6
f 1412/10/6 1413/10/6 1427/10/6
f 1426/11/6 1411/11/6 1427/11/6
f 1411/10/6 1412/10/6 1427/10/6
f 1413/8/6 1414/8/6 1428/8/6
f 1427/10/6 1413/10/6 1428/10/6
f 1428/8/6 1414/8/6 1429/8/6
f 1416/4/6 1417/4/6 1430/4/6
f 1417/9/6 1418/9/6 1431/9/6
f 1430/4/6 1417/4/6 1431/4/6
f 1418/10/6 1419/10/6 1432/10/6
f 1431/9/6 1418/9/6 1432/9/6
f 1419/6/6 1420/6/6 1433/6/6
f 1432/10/6 1419/10/6 1433/10/6
f 1420/6/6 1421/6/6 1433/6/6
f 1433/6/6 1421/6/6 1434/6/6
f 1421/10/6 1422/10/6 1435/10/6
f 1434/6/6 1421/6/6 1435/6/6
f 1422/11/6 1423/11/6 1436/11/6
f 1435/10/6 1422/10/6 1436/10/6
f 1423/7/6 1424/7/6 1437/7/6
f 1436/11/6 1423/11/6 1437/11/6
f 1424/9/6 1425/9/6 1438/9/6
f 1437/7/6 1424/7/6 1438/7/6
f 1425/9/6 1426/9/6 1438/9/6
f 1438/9/6 1426/9/6 1439/9/6
f 1426/8/6 1427/8/6 1440/8/6
f 1439/9/6 1426/9/6 1440/9/6
f 1427/4/6 1428/4/6 1441/4/6
f 1440/8/6 1427/8/6 1441/8/6
f 1441/4/6 1428/4/6 1442/4/6
f 1428/7/6 1429/7/6 1443/7/6
f 1442/4/6 1428/4/6 1443/4/6
f 1431/7/6 1432/7/6 1444/7/6
f 1432/9/6 1433/9/6 1445/9/6
f 1444/7/6 1432/7/6 1445/7/6
f 1433/7/6 1434/7/6 1446/7/6
f 1445/9/6 1433/9/6 1446/9/6
f 1436/4/6 1437/4/6 1447/4/6
f 1435/7/6 1436/7/6 1447/7/6
f 1437/7/6 1438/7/6 1448/7/6
f 1447/4/6 1437/4/6 1448/4/6
f 1438/11/6 1439/11/6 1449/11/6
f 1448/7/6 1438/7/6 1449/7/6
f 1439/8/6 1440/8/6 1450/8/6
f 1449/11/6 1439/11/6 1450/11/6
f 1440/6/6 1441/6/6 1451/6/6
f 1450/8/6 1440/8/6 1451/8/6
f 1441/8/6 1442/8/6 1452/8/6
f 1451/6/6 1441/6/6 1452/6/6
f 1442/9/6 1443/9/6 1453/9/6
f 1452/8/6 1442/8/6 1453/8/6
f 1443/7/6 1429/7/6 1454/7/6
f 1453/9/6 1443/9/6 1454/9/6
f 1454/7/6 1429/7/6 1455/7/6
f 1444/4/6 1445/4/6 1456/4/6
f 1445/5/6 1446/5/6 1457/5/6
f 1456/4/6 1445/4/6 1457/4/6
f 1446/7/6 1434/7/6 1458/7/6
f 1457/5/6 1446/5/6 1458/5/6
f 1434/10/6 1435/10/6 1459/10/6
f 1458/7/6 1434/7/6 1459/7/6
f 1447/7/6 1448/7/6 1460/7/6
f 1459/10/6 1435/10/6 1460/10/6
f 1435/7/6 1447/7/6 1460/7/6
f 1460/7/6 1448/7/6 1461/7/6
f 1448/9/6 1449/9/6 1462/9/6
f 1461/7/6 1448/7/6 1462/7/6
f 1449/8/6 1450/8/6 1463/8/6
f 1462/9/6 1449/9/6 1463/9/6
f 1450/9/6 1451/9/6 1464/9/6
f 1463/8/6 1450/8/6 1464/8/6
f 1451/11/6 1452/11/6 1465/11/6
f 1464/9/6 1451/9/6 1465/9/6
f 1452/5/6 1453/5/6 1466/5/6
f 1465/11/6 1452/11/6 1466/11/6
f 1453/7/6 1454/7/6 1467/7/6
f 1466/5/6 1453/5/6 1467/5/6
f 1467/7/6 1454/7/6 1468/7/6
f 1456/5/6 1457/5/6 1469/5/6
f 1457/9/6 1458/9/6 1470/9/6
f 1469/5/6 1457/5/6 1470/5/6
f 1458/9/6 1459/9/6 1470/9/6
f 1470/9/6 1459/9/6 1471/9/6
f 1459/5/6 1460/5/6 1472/5/6
f 1471/9/6 1459/9/6 1472/9/6
f 1460/7/6 1461/7/6 1473/7/6
f 1472/5/6 1460/5/6 1473/5/6
f 1461/4/6 1462/4/6 1474/4/6
f 1473/7/6 1461/7/6 1474/7/6
f 1462/9/6 1463/9/6 1475/9/6
f 1474/4/6 1462/4/6 1475/4/6
f 1463/9/6 1464/9/6 1475/9/6
f 1475/9/6 1464/9/6 1476/9/6
f 1464/6/6 1465/6/6 1477/6/6
f 1476/9/6 1464/9/6 1477/9/6
f 1465/5/6 1466/5/6 1478/5/6
f 1477/6/6 1465/6/6 1478/6/6
f 1466/5/6 1467/5/6 1478/5/6
f 1478/5/6 1467/5/6 1479/5/6
f 1467/9/6 1468/9/6 1480/9/6
f 1479/5/6 1467/5/6 1480/5/6
f 1480/9/6 1468/9/6 1481/9/6
f 1470/11/6 1471/11/6 1482/11/6
f 1471/6/6 1472/6/6 1483/6/6
f 1482/11/6 1471/11/6 1483/11/6
f 1472/11/6 1473/11/6 1484/11/6
f 1483/6/6 1472/6/6 1484/6/6
f 1473/8/6 1474/8/6 1485/8/6
f 1484/11/6 1473/11/6 1485/11/6
f 1475/4/6 1476/4/6 1486/4/6
f 1485/8/6 1474/8/6 1486/8/6
f 1474/4/6 1475/4/6 1486/4/6
f 1486/4/6 1476/4/6 1487/4/6
f 1476/11/6 1477/11/6 1488/11/6
f 1487/4/6 1476/4/6 1488/4/6
f 1477/4/6 1478/4/6 1489/4/6
f 1488/11/6 1477/11/6 1489/11/6
f 1478/11/6 1479/11/6 1490/11/6
f 1489/4/6 1478/4/6 1490/4/6
f 1479/10/6 1480/10/6 1491/10/6
f 1490/11/6 1479/11/6 1491/11/6
f 1483/5/6 1484/5/6 1492/5/6
f 1484/10/6 1485/10/6 1493/10/6
f 1492/5/6 1484/5/6 1493/5/6
f 1485/5/6 1486/5/6 1494/5/6
f 1493/10/6 1485/10/6 1494/10/6
f 1486/11/6 1487/11/6 1495/11/6
f 1494/5/6 1486/5/6 1495/5/6
f 1487/9/6 1488/9/6 1496/9/6
f 1495/11/6 1487/11/6 1496/11/6
f 1488/10/6 1489/10/6 1497/10/6
f 1496/9/6 1488/9/6 1497/9/6
f 1489/7/6 1490/7/6 1498/7/6
f 1497/10/6 1489/10/6 1498/10/6
f 1490/8/6 1491/8/6 1499/8/6
f 1498/7/6 1490/7/6 1499/7/6
f 1491/10/6 1480/10/6 1500/10/6
f 1499/8/6 1491/8/6 1500/8/6
f 1500/10/6 1480/10/6 1501/10/6
f 1493/7/6 1494/7/6 1502/7/6
f 1494/4/6 1495/4/6 1503/4/6
f 1502/7/6 1494/7/6 1503/7/6
f 1495/11/6 1496/11/6 1504/11/6
f 1503/4/6 1495/4/6 1504/4/6
f 1496/11/6 1497/11/6 1504/11/6
f 1497/10/6 1498/10/6 1505/10/6
f 1504/11/6 1497/11/6 1505/11/6
f 1498/11/6 1499/11/6 1506/11/6
f 1505/10/6 1498/10/6 1506/10/6
f 1499/7/6 1500/7/6 1507/7/6
f 1506/11/6 1499/11/6 1507/11/6
f 1507/7/6 1500/7/6 1508/7/6
f 1509/6/6 1510/6/6 1516/6/6
f 1510/9/6 1511/9/6 1517/9/6
f 1516/6/6 1510/6/6 1517/6/6
f 1511/4/6 1512/4/6 1518/4/6
f 1517/9/6 1511/9/6 1518/9/6
f 1513/9/6 1514/9/6 1519/9/6
f 1515/9/6 1516/9/6 1523/9/6
f 1516/11/6 1517/11/6 1524/11/6
f 1523/9/6 1516/9/6 1524/9/6
f 1517/7/6 1518/7/6 1525/7/6
f 1524/11/6 1517/11/6 1525/11/6
f 1518/4/6 1512/4/6 1526/4/6
f 1525/7/6 1518/7/6 1526/7/6
f 1512/6/6 1513/6/6 1527/6/6
f 1526/4/6 1512/4/6 1527/4/6
f 1513/9/6 1519/9/6 1528/9/6
f 1527/6/6 1513/6/6 1528/6/6
f 1519/9/6 1520/9/6 1528/9/6
f 1528/9/6 1520/9/6 1529/9/6
f 1520/4/6 1521/4/6 1530/4/6
f 1529/9/6 1520/9/6 1530/9/6
f 1530/4/6 1521/4/6 1531/4/6
f 1522/2/6 1523/2/6 1535/2/6
f 1523/6/6 1524/6/6 1536/6/6
f 1535/2/6 1523/2/6 1536/2/6
f 1524/7/6 1525/7/6 1537/7/6
f 1536/6/6 1524/6/6 1537/6/6
f 1525/11/6 1526/11/6 1538/11/6
f 1537/7/6 1525/7/6 1538/7/6
f 1526/9/6 1527/9/6 1539/9/6
f 1538/11/6 1526/11/6 1539/11/6
f 1527/7/6 1528/7/6 1540/7/6
f 1539/9/6 1527/9/6 1540/9/6
f 1528/4/6 1529/4/6 1541/4/6
f 1540/7/6 1528/7/6 1541/7/6
f 1529/6/6 1530/6/6 1542/6/6
f 1541/4/6 1529/4/6 1542/4/6
f 1530/5/6 1531/5/6 1543/5/6
f 1542/6/6 1530/6/6 1543/6/6
f 1531/10/6 1532/10/6 1544/10/6
f 1543/5/6 1531/5/6 1544/5/6
f 1532/9/6 1533/9/6 1545/9/6
f 1544/10/6 1532/10/6 1545/10/6
f 1545/9/6 1533/9/6 1546/9/6
f 1535/6/6 1536/6/6 1548/6/6
f 1534/6/6 1535/6/6 1548/6/6
f 1548/6/6 1536/6/6 1549/6/6
f 1536/11/6 1537/11/6 1550/11/6
f 1549/6/6 1536/6/6 1550/6/6
f 1537/9/6 1538/9/6 1551/9/6
f 1550/11/6 1537/11/6 1551/11/6
f 1539/10/6 1540/10/6 1552/10/6
f 1551/9/6 1538/9/6 1552/9/6
f 1538/10/6 1539/10/6 1552/10/6
f 1540/6/6 1541/6/6 1553/6/6
f 1552/10/6 1540/10/6 1553/10/6
f 1541/6/6 1542/6/6 1553/6/6
f 1542/10/6 1543/10/6 1554/10/6
f 1553/6/6 1542/6/6 1554/6/6
f 1543/6/6 1544/6/6 1555/6/6
f 1554/10/6 1543/10/6 1555/10/6
f 1546/8/6 1547/8/6 1556/8/6
f 1555/6/6 1544/6/6 1556/6/6
f 1545/8/6 1546/8/6 1556/8/6
f 1544/8/6 1545/8/6 1556/8/6
f 1556/8/6 1547/8/6 1557/8/6
f 1548/4/6 1549/4/6 1558/4/6
f 1550/8/6 1551/8/6 1559/8/6
f 1558/4/6 1549/4/6 1559/4/6
f 1549/8/6 1550/8/6 1559/8/6
f 1559/8/6 1551/8/6 1560/8/6
f 1551/4/6 1552/4/6 1561/4/6
f 1560/8/6 1551/8/6 1561/8/6
f 1552/8/6 1553/8/6 1562/8/6
f 1561/4/6 1552/4/6 1562/4/6
f 1553/7/6 1554/7/6 1563/7/6
f 1562/8/6 1553/8/6 1563/8/6
f 1554/5/6 1555/5/6 1564/5/6
f 1563/7/6 1554/7/6 1564/7/6
f 1555/4/6 1556/4/6 1565/4/6
f 1564/5/6 1555/5/6 1565/5/6
f 1556/11/6 1557/11/6 1566/11/6
f 1565/4/6 1556/4/6 1566/4/6
f 1566/11/6 1557/11/6 1567/11/6
f 1567/11/6 1557/11/6 1568/11/6
f 1568/11/6 1557/11/6 1569/11/6
f 1558/10/6 1559/10/6 1570/10/6
f 1559/6/6 1560/6/6 1571/6/6
f 1570/10/6 1559/10/6 1571/10/6
f 1560/5/6 1561/5/6 1572/5/6
f 1571/6/6 1560/6/6 1572/6/6
f 1561/6/6 1562/6/6 1573/6/6
f 1572/5/6 1561/5/6 1573/5/6
f 1562/9/6 1563/9/6 1574/9/6
f 1573/6/6 1562/6/6 1574/6/6
f 1574/9/6 1563/9/6 1575/9/6
f 1563/10/6 1564/10/6 1576/10/6
f 1575/9/6 1563/9/6 1576/9/6
f 1576/10/6 1564/10/6 1577/10/6
f 1564/11/6 1565/11/6 1578/11/6
f 1577/10/6 1564/10/6 1578/10/6
f 1565/4/6 1566/4/6 1579/4/6
f 1578/11/6 1565/11/6 1579/11/6
f 1566/10/6 1567/10/6 1580/10/6
f 1579/4/6 1566/4/6 1580/4/6
f 1567/6/6 1568/6/6 1581/6/6
f 1580/10/6 1567/10/6 1581/10/6
f 1568/10/6 1569/10/6 1582/10/6
f 1581/6/6 1568/6/6 1582/6/6
f 1582/10/6 1569/10/6 1583/10/6
f 1570/5/6 1571/5/6 1584/5/6
f 1571/4/6 1572/4/6 1585/4/6
f 1584/5/6 1571/5/6 1585/5/6
f 1572/7/6 1573/7/6 1586/7/6
f 1585/4/6 1572/4/6 1586/4/6
f 1573/11/6 1574/11/6 1587/11/6
f 1586/7/6 1573/7/6 1587/7/6
f 1574/10/6 1575/10/6 1588/10/6
f 1587/11/6 1574/11/6 1588/11/6
f 1575/6/6 1576/6/6 1589/6/6
f 1588/10/6 1575/10/6 1589/10/6
f 1576/11/6 1577/11/6 1590/11/6
f 1589/6/6 1576/6/6 1590/6/6
f 1577/10/6 1578/10/6 1591/10/6
f 1590/11/6 1577/11/6 1591/11/6
f 1578/5/6 1579/5/6 1592/5/6
f 1591/10/6 1578/10/6 1592/10/6
f 1579/8/6 1580/8/6 1593/8/6
f 1592/5/6 1579/5/6 1593/5/6
f 1580/8/6 1581/8/6 1593/8/6
f 1593/8/6 1581/8/6 1594/8/6
f 1581/4/6 1582/4/6 1595/4/6
f 1594/8/6 1581/8/6 1595/8/6
f 1582/5/6 1583/5/6 1596/5/6
f 1595/4/6 1582/4/6 1596/4/6
f 1596/5/6 1583/5/6 1597/5/6
f 1585/2/6 1586/2/6 1598/2/6
f 1586/10/6 1587/10/6 1599/10/6
f 1598/2/6 1586/2/6 1599/2/6
f 1587/4/6 1588/4/6 1600/4/6
f 1599/10/6 1587/10/6 1600/10/6
f 1588/11/6 1589/11/6 1601/11/6
f 1600/4/6 1588/4/6 1601/4/6
f 1589/10/6 1590/10/6 1602/10/6
f 1601/11/6 1589/11/6 1602/11/6
f 1590/5/6 1591/5/6 1603/5/6
f 1602/10/6 1590/10/6 1603/10/6
f 1591/4/6 1592/4/6 1604/4/6
f 1603/5/6 1591/5/6 1604/5/6
f 1592/11/6 1593/11/6 1605/11/6
f 1604/4/6 1592/4/6 1605/4/6
f 1593/4/6 1594/4/6 1606/4/6
f 1605/11/6 1593/11/6 1606/11/6
f 1594/8/6 1595/8/6 1607/8/6
f 1606/4/6 1594/4/6 1607/4/6
f 1595/10/6 1596/10/6 1608/10/6
f 1607/8/6 1595/8/6 1608/8/6
f 1608/10/6 1596/10/6 1609/10/6
f 1599/10/6 1600/10/6 1610/10/6
f 1600/8/6 1601/8/6 1611/8/6
f 1610/10/6 1600/10/6 1611/10/6
f 1601/7/6 1602/7/6 1612/7/6
f 1611/8/6 1601/8/6 1612/8/6
f 1602/7/6 1603/7/6 1612/7/6
f 1603/6/6 1604/6/6 1613/6/6
f 1612/7/6 1603/7/6 1613/7/6
f 1604/7/6 1605/7/6 1614/7/6
f 1613/6/6 1604/6/6 1614/6/6
f 1605/11/6 1606/11/6 1615/11/6
f 1614/7/6 1605/7/6 1615/7/6
f 1606/10/6 1607/10/6 1616/10/6
f 1615/11/6 1606/11/6 1616/11/6
f 1616/10/6 1607/10/6 1617/10/6
f 1611/5/6 1612/5/6 1618/5/6
f 1612/6/6 1613/6/6 1619/6/6
f 1618/5/6 1612/5/6 1619/5/6
f 1613/7/6 1614/7/6 1620/7/6
f 1619/6/6 1613/6/6 1620/6/6
f 1614/5/6 1615/5/6 1621/5/6
f 1620/7/6 1614/7/6 1621/7/6
f 1621/5/6 1615/5/6 1622/5/6
